<ttFont>
<head>
    <!-- Most of this table will be recalculated by the compiler -->
    <tableVersion value="1.0"/>
    <fontRevision value="1.301"/>
    <checkSumAdjustment value="0xa2dc7370"/>
    <magicNumber value="0x5f0f3cf5"/>
    <flags value="00000000 00001011"/>
    <unitsPerEm value="1000"/>
    <created value="Mon May 10 23:48:48 2010"/>
    <modified value="Thu Mar  6 18:33:52 2014"/>
    <xMin value="-271"/>
    <yMin value="-322"/>
    <xMax value="1336"/>
    <yMax value="1158"/>
    <macStyle value="00000000 00000010"/>
    <lowestRecPPEM value="9"/>
    <fontDirectionHint value="2"/>
    <indexToLocFormat value="0"/>
    <glyphDataFormat value="0"/>
  </head>
    <TTGlyph name="A" xMin="-42" yMin="0" xMax="634" yMax="743">
      <contour>
        <pt x="506" y="0" on="1"/>
        <pt x="471" y="168" on="1"/>
        <pt x="192" y="168" on="1"/>
        <pt x="90" y="0" on="1"/>
        <pt x="-42" y="0" on="1"/>
        <pt x="432" y="743" on="1"/>
        <pt x="449" y="743" on="1"/>
        <pt x="634" y="0" on="1"/>
      </contour>
      <contour>
        <pt x="398" y="510" on="1"/>
        <pt x="251" y="267" on="1"/>
        <pt x="450" y="267" on="1"/>
      </contour>
    </TTGlyph>
    <TTGlyph name="AE" xMin="-46" yMin="0" xMax="1027" yMax="733">
      <contour>
        <pt x="1005" y="619" on="1"/>
        <pt x="698" y="619" on="1"/>
        <pt x="661" y="427" on="1"/>
        <pt x="937" y="427" on="1"/>
        <pt x="915" y="317" on="1"/>
        <pt x="640" y="317" on="1"/>
        <pt x="601" y="114" on="1"/>
        <pt x="907" y="114" on="1"/>
        <pt x="884" y="0" on="1"/>
        <pt x="454" y="0" on="1"/>
        <pt x="489" y="180" on="1"/>
        <pt x="250" y="180" on="1"/>
        <pt x="96" y="0" on="1"/>
        <pt x="-46" y="0" on="1"/>
        <pt x="591" y="733" on="1"/>
        <pt x="1027" y="733" on="1"/>
      </contour>
      <contour>
        <pt x="562" y="552" on="1"/>
        <pt x="335" y="283" on="1"/>
        <pt x="509" y="283" on="1"/>
      </contour>
    </TTGlyph>
    <TTGlyph name="AEacute" xMin="-46" yMin="0" xMax="1027" yMax="981">
      <component glyphName="acute" x="514" y="312" flags="0x4"/>
      <component glyphName="AE" x="0" y="0" flags="0x4"/>
    </TTGlyph>
    <TTGlyph name="Aacute" xMin="-42" yMin="0" xMax="634" yMax="981">
      <component glyphName="A" x="0" y="0" flags="0x204"/>
      <component glyphName="acute" x="217" y="312" flags="0x4"/>
    </TTGlyph>
    <TTGlyph name="Abreve" xMin="-42" yMin="0" xMax="639" yMax="965">
      <component glyphName="A" x="0" y="0" flags="0x204"/>
      <component glyphName="breve" x="165" y="312" flags="0x4"/>
    </TTGlyph>
    <TTGlyph name="Acircumflex" xMin="-42" yMin="0" xMax="634" yMax="980">
      <component glyphName="A" x="0" y="0" flags="0x204"/>
      <component glyphName="circumflex" x="161" y="312" flags="0x4"/>
    </TTGlyph>
    <TTGlyph name="Adieresis" xMin="-42" yMin="0" xMax="634" yMax="929">
      <component glyphName="A" x="0" y="0" flags="0x204"/>
      <component glyphName="dieresis" x="166" y="312" flags="0x4"/>
    </TTGlyph>
    <TTGlyph name="Agrave" xMin="-42" yMin="0" xMax="634" yMax="981">
      <component glyphName="A" x="0" y="0" flags="0x204"/>
      <component glyphName="grave" x="114" y="312" flags="0x4"/>
    </TTGlyph>
    <TTGlyph name="Amacron" xMin="-42" yMin="0" xMax="634" yMax="903">
      <component glyphName="A" x="0" y="0" flags="0x204"/>
      <component glyphName="macron" x="167" y="312" flags="0x4"/>
    </TTGlyph>
    <TTGlyph name="Aogonek" xMin="-42" yMin="-222" xMax="634" yMax="743">
      <contour>
        <pt x="620" y="-173" on="1"/>
        <pt x="596" y="-196" on="0"/>
        <pt x="542" y="-221" on="0"/>
        <pt x="508" y="-222" on="1"/>
        <pt x="471" y="-222" on="0"/>
        <pt x="432" y="-184" on="0"/>
        <pt x="432" y="-151" on="1"/>
        <pt x="432" y="-109" on="0"/>
        <pt x="483" y="-36" on="0"/>
        <pt x="525" y="0" on="1"/>
        <pt x="506" y="0" on="1"/>
        <pt x="471" y="168" on="1"/>
        <pt x="192" y="168" on="1"/>
        <pt x="90" y="0" on="1"/>
        <pt x="-42" y="0" on="1"/>
        <pt x="432" y="743" on="1"/>
        <pt x="449" y="743" on="1"/>
        <pt x="634" y="0" on="1"/>
        <pt x="602" y="0" on="1"/>
        <pt x="591" y="-11" on="0"/>
        <pt x="562" y="-39" on="0"/>
        <pt x="536" y="-71" on="0"/>
        <pt x="518" y="-105" on="0"/>
        <pt x="518" y="-121" on="1"/>
        <pt x="518" y="-150" on="0"/>
        <pt x="546" y="-150" on="1"/>
        <pt x="558" y="-150" on="0"/>
        <pt x="581" y="-138" on="0"/>
        <pt x="595" y="-126" on="1"/>
      </contour>
      <contour>
        <pt x="398" y="510" on="1"/>
        <pt x="251" y="267" on="1"/>
        <pt x="450" y="267" on="1"/>
      </contour>
    </TTGlyph>
    <TTGlyph name="Aring" xMin="-42" yMin="0" xMax="634" yMax="925">
      <contour>
        <pt x="565" y="829" on="1"/>
        <pt x="565" y="807" on="0"/>
        <pt x="550" y="765" on="0"/>
        <pt x="523" y="730" on="0"/>
        <pt x="483" y="705" on="0"/>
        <pt x="459" y="701" on="1"/>
        <pt x="634" y="0" on="1"/>
        <pt x="506" y="0" on="1"/>
        <pt x="471" y="168" on="1"/>
        <pt x="192" y="168" on="1"/>
        <pt x="90" y="0" on="1"/>
        <pt x="-42" y="0" on="1"/>
        <pt x="406" y="703" on="1"/>
        <pt x="376" y="712" on="0"/>
        <pt x="339" y="762" on="0"/>
        <pt x="339" y="795" on="1"/>
        <pt x="339" y="819" on="0"/>
        <pt x="357" y="866" on="0"/>
        <pt x="390" y="902" on="0"/>
        <pt x="438" y="925" on="0"/>
        <pt x="467" y="925" on="1"/>
        <pt x="510" y="925" on="0"/>
        <pt x="565" y="869" on="0"/>
      </contour>
      <contour>
        <pt x="398" y="510" on="1"/>
        <pt x="251" y="267" on="1"/>
        <pt x="450" y="267" on="1"/>
      </contour>
      <contour>
        <pt x="500" y="824" on="1"/>
        <pt x="500" y="845" on="0"/>
        <pt x="478" y="870" on="0"/>
        <pt x="460" y="870" on="1"/>
        <pt x="439" y="870" on="0"/>
        <pt x="404" y="831" on="0"/>
        <pt x="404" y="800" on="1"/>
        <pt x="404" y="779" on="0"/>
        <pt x="425" y="754" on="0"/>
        <pt x="443" y="754" on="1"/>
        <pt x="465" y="754" on="0"/>
        <pt x="500" y="792" on="0"/>
      </contour>
    </TTGlyph>
    <TTGlyph name="Aringacute" xMin="-42" yMin="0" xMax="669" yMax="1158">
      <component glyphName="acute" x="257" y="489" flags="0x4"/>
      <component glyphName="Aring" x="0" y="0" flags="0x4"/>
    </TTGlyph>
    <TTGlyph name="Atilde" xMin="-42" yMin="0" xMax="635" yMax="936">
      <component glyphName="A" x="0" y="0" flags="0x204"/>
      <component glyphName="tilde" x="163" y="312" flags="0x4"/>
    </TTGlyph>
    <TTGlyph name="B" xMin="39" yMin="-8" xMax="600" yMax="738">
      <contour>
        <pt x="600" y="556" on="1"/>
        <pt x="600" y="495" on="0"/>
        <pt x="518" y="394" on="0"/>
        <pt x="446" y="372" on="1"/>
        <pt x="498" y="349" on="0"/>
        <pt x="559" y="275" on="0"/>
        <pt x="559" y="222" on="1"/>
        <pt x="559" y="172" on="0"/>
        <pt x="519" y="88" on="0"/>
        <pt x="438" y="27" on="0"/>
        <pt x="317" y="-8" on="0"/>
        <pt x="236" y="-8" on="1"/>
        <pt x="185" y="-8" on="0"/>
        <pt x="82" y="4" on="0"/>
        <pt x="39" y="12" on="1"/>
        <pt x="178" y="727" on="1"/>
        <pt x="215" y="732" on="0"/>
        <pt x="294" y="738" on="0"/>
        <pt x="336" y="738" on="1"/>
        <pt x="399" y="738" on="0"/>
        <pt x="498" y="711" on="0"/>
        <pt x="565" y="662" on="0"/>
        <pt x="600" y="595" on="0"/>
      </contour>
      <contour>
        <pt x="469" y="533" on="1"/>
        <pt x="469" y="578" on="0"/>
        <pt x="401" y="630" on="0"/>
        <pt x="340" y="630" on="1"/>
        <pt x="323" y="630" on="0"/>
        <pt x="295" y="627" on="0"/>
        <pt x="281" y="625" on="1"/>
        <pt x="241" y="420" on="1"/>
        <pt x="253" y="418" on="0"/>
        <pt x="293" y="417" on="0"/>
        <pt x="313" y="417" on="1"/>
        <pt x="391" y="417" on="0"/>
        <pt x="469" y="484" on="0"/>
      </contour>
      <contour>
        <pt x="428" y="221" on="1"/>
        <pt x="428" y="271" on="0"/>
        <pt x="346" y="328" on="0"/>
        <pt x="274" y="328" on="1"/>
        <pt x="258" y="328" on="0"/>
        <pt x="233" y="327" on="0"/>
        <pt x="223" y="326" on="1"/>
        <pt x="180" y="106" on="1"/>
        <pt x="203" y="102" on="0"/>
        <pt x="239" y="100" on="0"/>
        <pt x="262" y="100" on="1"/>
        <pt x="297" y="100" on="0"/>
        <pt x="358" y="116" on="0"/>
        <pt x="403" y="147" on="0"/>
        <pt x="428" y="192" on="0"/>
      </contour>
    </TTGlyph>
    <TTGlyph name="C" xMin="76" yMin="-12" xMax="733" yMax="745">
      <contour>
        <pt x="673" y="573" on="1"/>
        <pt x="638" y="598" on="0"/>
        <pt x="546" y="630" on="0"/>
        <pt x="493" y="630" on="1"/>
        <pt x="430" y="630" on="0"/>
        <pt x="324" y="580" on="0"/>
        <pt x="249" y="497" on="0"/>
        <pt x="207" y="388" on="0"/>
        <pt x="207" y="330" on="1"/>
        <pt x="207" y="276" on="0"/>
        <pt x="240" y="191" on="0"/>
        <pt x="300" y="133" on="0"/>
        <pt x="382" y="103" on="0"/>
        <pt x="430" y="103" on="1"/>
        <pt x="477" y="103" on="0"/>
        <pt x="567" y="131" on="0"/>
        <pt x="612" y="154" on="1"/>
        <pt x="639" y="49" on="1"/>
        <pt x="583" y="18" on="0"/>
        <pt x="473" y="-12" on="0"/>
        <pt x="413" y="-12" on="1"/>
        <pt x="341" y="-12" on="0"/>
        <pt x="218" y="35" on="0"/>
        <pt x="128" y="121" on="0"/>
        <pt x="76" y="242" on="0"/>
        <pt x="76" y="315" on="1"/>
        <pt x="76" y="405" on="0"/>
        <pt x="143" y="561" on="0"/>
        <pt x="259" y="678" on="0"/>
        <pt x="414" y="745" on="0"/>
        <pt x="501" y="745" on="1"/>
        <pt x="573" y="745" on="0"/>
        <pt x="692" y="705" on="0"/>
        <pt x="733" y="676" on="1"/>
      </contour>
    </TTGlyph>
    <TTGlyph name="Cacute" xMin="76" yMin="-12" xMax="733" yMax="981">
      <component glyphName="acute" x="273" y="312" flags="0x4"/>
      <component glyphName="C" x="0" y="0" flags="0x4"/>
    </TTGlyph>
    <TTGlyph name="Ccaron" xMin="76" yMin="-12" xMax="733" yMax="979">
      <component glyphName="caron" x="226" y="312" flags="0x4"/>
      <component glyphName="C" x="0" y="0" flags="0x4"/>
    </TTGlyph>
    <TTGlyph name="Ccedilla" xMin="76" yMin="-254" xMax="733" yMax="745">
      <contour>
        <pt x="453" y="-147" on="1"/>
        <pt x="453" y="-192" on="0"/>
        <pt x="387" y="-254" on="0"/>
        <pt x="331" y="-254" on="1"/>
        <pt x="296" y="-254" on="0"/>
        <pt x="234" y="-233" on="0"/>
        <pt x="205" y="-213" on="1"/>
        <pt x="243" y="-154" on="1"/>
        <pt x="291" y="-188" on="0"/>
        <pt x="333" y="-188" on="1"/>
        <pt x="350" y="-188" on="0"/>
        <pt x="376" y="-170" on="0"/>
        <pt x="376" y="-152" on="1"/>
        <pt x="376" y="-138" on="0"/>
        <pt x="339" y="-111" on="0"/>
        <pt x="289" y="-108" on="1"/>
        <pt x="285" y="-99" on="1"/>
        <pt x="330" y="-3" on="1"/>
        <pt x="274" y="9" on="0"/>
        <pt x="181" y="65" on="0"/>
        <pt x="113" y="147" on="0"/>
        <pt x="76" y="253" on="0"/>
        <pt x="76" y="315" on="1"/>
        <pt x="76" y="405" on="0"/>
        <pt x="143" y="561" on="0"/>
        <pt x="259" y="678" on="0"/>
        <pt x="414" y="745" on="0"/>
        <pt x="501" y="745" on="1"/>
        <pt x="573" y="745" on="0"/>
        <pt x="692" y="705" on="0"/>
        <pt x="733" y="676" on="1"/>
        <pt x="673" y="573" on="1"/>
        <pt x="638" y="598" on="0"/>
        <pt x="546" y="630" on="0"/>
        <pt x="493" y="630" on="1"/>
        <pt x="430" y="630" on="0"/>
        <pt x="324" y="580" on="0"/>
        <pt x="249" y="497" on="0"/>
        <pt x="207" y="388" on="0"/>
        <pt x="207" y="330" on="1"/>
        <pt x="207" y="276" on="0"/>
        <pt x="240" y="191" on="0"/>
        <pt x="300" y="133" on="0"/>
        <pt x="382" y="103" on="0"/>
        <pt x="430" y="103" on="1"/>
        <pt x="477" y="103" on="0"/>
        <pt x="567" y="131" on="0"/>
        <pt x="612" y="154" on="1"/>
        <pt x="639" y="49" on="1"/>
        <pt x="583" y="18" on="0"/>
        <pt x="473" y="-12" on="0"/>
        <pt x="413" y="-12" on="1"/>
        <pt x="405" y="-12" on="0"/>
        <pt x="389" y="-11" on="0"/>
        <pt x="381" y="-10" on="1"/>
        <pt x="362" y="-56" on="1"/>
        <pt x="405" y="-67" on="0"/>
        <pt x="453" y="-112" on="0"/>
      </contour>
    </TTGlyph>
    <TTGlyph name="Cdotaccent" xMin="76" yMin="-12" xMax="733" yMax="929">
      <component glyphName="C" x="0" y="0" flags="0x204"/>
      <component glyphName="dotaccent" x="234" y="312" flags="0x4"/>
    </TTGlyph>
    <TTGlyph name="D" xMin="39" yMin="-6" xMax="724" yMax="738">
      <contour>
        <pt x="245" y="-6" on="1"/>
        <pt x="197" y="-6" on="0"/>
        <pt x="98" y="0" on="0"/>
        <pt x="39" y="8" on="1"/>
        <pt x="178" y="726" on="1"/>
        <pt x="218" y="732" on="0"/>
        <pt x="291" y="738" on="0"/>
        <pt x="341" y="738" on="1"/>
        <pt x="443" y="738" on="0"/>
        <pt x="590" y="684" on="0"/>
        <pt x="638" y="636" on="1"/>
        <pt x="681" y="593" on="0"/>
        <pt x="724" y="478" on="0"/>
        <pt x="724" y="412" on="1"/>
        <pt x="724" y="319" on="0"/>
        <pt x="652" y="165" on="0"/>
        <pt x="525" y="55" on="0"/>
        <pt x="349" y="-6" on="0"/>
      </contour>
      <contour>
        <pt x="355" y="628" on="1"/>
        <pt x="337" y="628" on="0"/>
        <pt x="301" y="626" on="0"/>
        <pt x="283" y="623" on="1"/>
        <pt x="183" y="110" on="1"/>
        <pt x="203" y="107" on="0"/>
        <pt x="247" y="105" on="0"/>
        <pt x="269" y="105" on="1"/>
        <pt x="336" y="105" on="0"/>
        <pt x="454" y="147" on="0"/>
        <pt x="541" y="225" on="0"/>
        <pt x="592" y="334" on="0"/>
        <pt x="592" y="402" on="1"/>
        <pt x="592" y="459" on="0"/>
        <pt x="559" y="539" on="0"/>
        <pt x="533" y="565" on="1"/>
        <pt x="501" y="597" on="0"/>
        <pt x="410" y="628" on="0"/>
      </contour>
    </TTGlyph>
    <TTGlyph name="Dcaron" xMin="39" yMin="-6" xMax="724" yMax="979">
      <component glyphName="caron" x="162" y="312" flags="0x4"/>
      <component glyphName="D" x="0" y="0" flags="0x4"/>
    </TTGlyph>
    <TTGlyph name="Dcroat" xMin="28" yMin="-6" xMax="734" yMax="738">
      <component glyphName="Eth" x="0" y="0" flags="0x204"/>
    </TTGlyph>
    <TTGlyph name="E" xMin="37" yMin="0" xMax="610" yMax="733">
      <contour>
        <pt x="588" y="619" on="1"/>
        <pt x="282" y="619" on="1"/>
        <pt x="245" y="427" on="1"/>
        <pt x="520" y="427" on="1"/>
        <pt x="499" y="317" on="1"/>
        <pt x="224" y="317" on="1"/>
        <pt x="184" y="114" on="1"/>
        <pt x="490" y="114" on="1"/>
        <pt x="468" y="0" on="1"/>
        <pt x="37" y="0" on="1"/>
        <pt x="180" y="733" on="1"/>
        <pt x="610" y="733" on="1"/>
      </contour>
    </TTGlyph>
    <TTGlyph name="Eacute" xMin="37" yMin="0" xMax="610" yMax="981">
      <component glyphName="acute" x="172" y="312" flags="0x4"/>
      <component glyphName="E" x="0" y="0" flags="0x4"/>
    </TTGlyph>
    <TTGlyph name="Ebreve" xMin="37" yMin="0" xMax="610" yMax="965">
      <component glyphName="E" x="0" y="0" flags="0x204"/>
      <component glyphName="breve" x="123" y="312" flags="0x4"/>
    </TTGlyph>
    <TTGlyph name="Ecaron" xMin="37" yMin="0" xMax="613" yMax="979">
      <component glyphName="caron" x="125" y="312" flags="0x4"/>
      <component glyphName="E" x="0" y="0" flags="0x4"/>
    </TTGlyph>
    <TTGlyph name="Ecircumflex" xMin="37" yMin="0" xMax="610" yMax="980">
      <component glyphName="circumflex" x="115" y="312" flags="0x4"/>
      <component glyphName="E" x="0" y="0" flags="0x4"/>
    </TTGlyph>
    <TTGlyph name="Edieresis" xMin="37" yMin="0" xMax="610" yMax="929">
      <component glyphName="dieresis" x="121" y="312" flags="0x4"/>
      <component glyphName="E" x="0" y="0" flags="0x4"/>
    </TTGlyph>
    <TTGlyph name="Edotaccent" xMin="37" yMin="0" xMax="610" yMax="929">
      <component glyphName="E" x="0" y="0" flags="0x204"/>
      <component glyphName="dotaccent" x="134" y="312" flags="0x4"/>
    </TTGlyph>
    <TTGlyph name="Egrave" xMin="37" yMin="0" xMax="610" yMax="981">
      <component glyphName="E" x="0" y="0" flags="0x204"/>
      <component glyphName="grave" x="69" y="312" flags="0x4"/>
    </TTGlyph>
    <TTGlyph name="Emacron" xMin="37" yMin="0" xMax="610" yMax="903">
      <component glyphName="E" x="0" y="0" flags="0x204"/>
      <component glyphName="macron" x="121" y="312" flags="0x4"/>
    </TTGlyph>
    <TTGlyph name="Eogonek" xMin="37" yMin="-222" xMax="610" yMax="733">
      <contour>
        <pt x="588" y="619" on="1"/>
        <pt x="282" y="619" on="1"/>
        <pt x="245" y="427" on="1"/>
        <pt x="520" y="427" on="1"/>
        <pt x="499" y="317" on="1"/>
        <pt x="224" y="317" on="1"/>
        <pt x="184" y="114" on="1"/>
        <pt x="490" y="114" on="1"/>
        <pt x="468" y="0" on="1"/>
        <pt x="427" y="0" on="1"/>
        <pt x="416" y="-11" on="0"/>
        <pt x="387" y="-39" on="0"/>
        <pt x="361" y="-71" on="0"/>
        <pt x="343" y="-105" on="0"/>
        <pt x="343" y="-121" on="1"/>
        <pt x="343" y="-150" on="0"/>
        <pt x="371" y="-150" on="1"/>
        <pt x="383" y="-150" on="0"/>
        <pt x="406" y="-138" on="0"/>
        <pt x="420" y="-126" on="1"/>
        <pt x="445" y="-173" on="1"/>
        <pt x="421" y="-196" on="0"/>
        <pt x="367" y="-221" on="0"/>
        <pt x="333" y="-222" on="1"/>
        <pt x="296" y="-222" on="0"/>
        <pt x="257" y="-184" on="0"/>
        <pt x="257" y="-151" on="1"/>
        <pt x="257" y="-109" on="0"/>
        <pt x="308" y="-36" on="0"/>
        <pt x="350" y="0" on="1"/>
        <pt x="37" y="0" on="1"/>
        <pt x="180" y="733" on="1"/>
        <pt x="610" y="733" on="1"/>
      </contour>
    </TTGlyph>
    <TTGlyph name="Eth" xMin="28" yMin="-6" xMax="734" yMax="738">
      <contour>
        <pt x="734" y="412" on="1"/>
        <pt x="734" y="319" on="0"/>
        <pt x="662" y="165" on="0"/>
        <pt x="535" y="55" on="0"/>
        <pt x="359" y="-6" on="0"/>
        <pt x="255" y="-6" on="1"/>
        <pt x="207" y="-6" on="0"/>
        <pt x="108" y="0" on="0"/>
        <pt x="49" y="8" on="1"/>
        <pt x="109" y="321" on="1"/>
        <pt x="28" y="321" on="1"/>
        <pt x="48" y="425" on="1"/>
        <pt x="129" y="425" on="1"/>
        <pt x="188" y="726" on="1"/>
        <pt x="228" y="732" on="0"/>
        <pt x="301" y="738" on="0"/>
        <pt x="351" y="738" on="1"/>
        <pt x="453" y="738" on="0"/>
        <pt x="600" y="684" on="0"/>
        <pt x="648" y="636" on="1"/>
        <pt x="691" y="593" on="0"/>
        <pt x="734" y="478" on="0"/>
      </contour>
      <contour>
        <pt x="602" y="402" on="1"/>
        <pt x="602" y="459" on="0"/>
        <pt x="569" y="539" on="0"/>
        <pt x="543" y="565" on="1"/>
        <pt x="511" y="597" on="0"/>
        <pt x="420" y="628" on="0"/>
        <pt x="365" y="628" on="1"/>
        <pt x="347" y="628" on="0"/>
        <pt x="311" y="626" on="0"/>
        <pt x="293" y="623" on="1"/>
        <pt x="254" y="425" on="1"/>
        <pt x="366" y="425" on="1"/>
        <pt x="346" y="321" on="1"/>
        <pt x="234" y="321" on="1"/>
        <pt x="193" y="110" on="1"/>
        <pt x="213" y="107" on="0"/>
        <pt x="257" y="105" on="0"/>
        <pt x="279" y="105" on="1"/>
        <pt x="346" y="105" on="0"/>
        <pt x="464" y="147" on="0"/>
        <pt x="551" y="225" on="0"/>
        <pt x="602" y="334" on="0"/>
      </contour>
    </TTGlyph>
    <TTGlyph name="Euro" xMin="28" yMin="-10" xMax="629" yMax="593">
      <contour>
        <pt x="105" y="259" on="1"/>
        <pt x="106" y="276" on="0"/>
        <pt x="109" y="307" on="0"/>
        <pt x="112" y="323" on="1"/>
        <pt x="54" y="323" on="1"/>
        <pt x="68" y="398" on="1"/>
        <pt x="137" y="398" on="1"/>
        <pt x="158" y="441" on="0"/>
        <pt x="221" y="513" on="0"/>
        <pt x="300" y="565" on="0"/>
        <pt x="393" y="593" on="0"/>
        <pt x="444" y="593" on="1"/>
        <pt x="502" y="593" on="0"/>
        <pt x="597" y="562" on="0"/>
        <pt x="629" y="539" on="1"/>
        <pt x="578" y="451" on="1"/>
        <pt x="549" y="471" on="0"/>
        <pt x="476" y="495" on="0"/>
        <pt x="435" y="495" on="1"/>
        <pt x="376" y="495" on="0"/>
        <pt x="284" y="442" on="0"/>
        <pt x="255" y="398" on="1"/>
        <pt x="519" y="398" on="1"/>
        <pt x="505" y="323" on="1"/>
        <pt x="221" y="323" on="1"/>
        <pt x="214" y="295" on="0"/>
        <pt x="214" y="261" on="1"/>
        <pt x="214" y="259" on="1"/>
        <pt x="492" y="259" on="1"/>
        <pt x="478" y="185" on="1"/>
        <pt x="227" y="185" on="1"/>
        <pt x="247" y="136" on="0"/>
        <pt x="332" y="88" on="0"/>
        <pt x="389" y="88" on="1"/>
        <pt x="459" y="88" on="0"/>
        <pt x="530" y="125" on="1"/>
        <pt x="550" y="35" on="1"/>
        <pt x="506" y="12" on="0"/>
        <pt x="421" y="-10" on="0"/>
        <pt x="374" y="-10" on="1"/>
        <pt x="325" y="-10" on="0"/>
        <pt x="239" y="17" on="0"/>
        <pt x="170" y="68" on="0"/>
        <pt x="122" y="140" on="0"/>
        <pt x="112" y="185" on="1"/>
        <pt x="28" y="185" on="1"/>
        <pt x="41" y="259" on="1"/>
      </contour>
    </TTGlyph>
    <TTGlyph name="Euro.lin" xMin="34" yMin="-12" xMax="789" yMax="745">
      <contour>
        <pt x="168" y="490" on="1"/>
        <pt x="193" y="547" on="0"/>
        <pt x="273" y="640" on="0"/>
        <pt x="373" y="708" on="0"/>
        <pt x="492" y="745" on="0"/>
        <pt x="556" y="745" on="1"/>
        <pt x="628" y="745" on="0"/>
        <pt x="748" y="705" on="0"/>
        <pt x="789" y="676" on="1"/>
        <pt x="729" y="571" on="1"/>
        <pt x="693" y="597" on="0"/>
        <pt x="601" y="628" on="0"/>
        <pt x="548" y="628" on="1"/>
        <pt x="467" y="628" on="0"/>
        <pt x="340" y="552" on="0"/>
        <pt x="302" y="490" on="1"/>
        <pt x="649" y="490" on="1"/>
        <pt x="634" y="412" on="1"/>
        <pt x="269" y="412" on="1"/>
        <pt x="258" y="370" on="0"/>
        <pt x="258" y="329" on="1"/>
        <pt x="258" y="323" on="1"/>
        <pt x="618" y="323" on="1"/>
        <pt x="603" y="246" on="1"/>
        <pt x="271" y="246" on="1"/>
        <pt x="292" y="181" on="0"/>
        <pt x="403" y="104" on="0"/>
        <pt x="488" y="104" on="1"/>
        <pt x="529" y="104" on="0"/>
        <pt x="622" y="131" on="0"/>
        <pt x="668" y="155" on="1"/>
        <pt x="695" y="49" on="1"/>
        <pt x="588" y="-12" on="0"/>
        <pt x="469" y="-12" on="1"/>
        <pt x="403" y="-12" on="0"/>
        <pt x="291" y="26" on="0"/>
        <pt x="205" y="94" on="0"/>
        <pt x="148" y="189" on="0"/>
        <pt x="137" y="246" on="1"/>
        <pt x="34" y="246" on="1"/>
        <pt x="50" y="323" on="1"/>
        <pt x="131" y="323" on="1"/>
        <pt x="131" y="366" on="0"/>
        <pt x="142" y="412" on="1"/>
        <pt x="66" y="412" on="1"/>
        <pt x="81" y="490" on="1"/>
      </contour>
    </TTGlyph>
    <TTGlyph name="F" xMin="37" yMin="0" xMax="610" yMax="733">
      <contour>
        <pt x="588" y="619" on="1"/>
        <pt x="282" y="619" on="1"/>
        <pt x="240" y="405" on="1"/>
        <pt x="508" y="405" on="1"/>
        <pt x="486" y="294" on="1"/>
        <pt x="219" y="294" on="1"/>
        <pt x="162" y="0" on="1"/>
        <pt x="37" y="0" on="1"/>
        <pt x="180" y="733" on="1"/>
        <pt x="610" y="733" on="1"/>
      </contour>
    </TTGlyph>
    <TTGlyph name="G" xMin="75" yMin="-12" xMax="738" yMax="745">
      <contour>
        <pt x="658" y="55" on="1"/>
        <pt x="599" y="21" on="0"/>
        <pt x="484" y="-12" on="0"/>
        <pt x="409" y="-12" on="1"/>
        <pt x="341" y="-12" on="0"/>
        <pt x="219" y="33" on="0"/>
        <pt x="128" y="117" on="0"/>
        <pt x="75" y="238" on="0"/>
        <pt x="75" y="315" on="1"/>
        <pt x="75" y="408" on="0"/>
        <pt x="144" y="566" on="0"/>
        <pt x="261" y="681" on="0"/>
        <pt x="415" y="745" on="0"/>
        <pt x="500" y="745" on="1"/>
        <pt x="574" y="745" on="0"/>
        <pt x="695" y="704" on="0"/>
        <pt x="738" y="674" on="1"/>
        <pt x="672" y="575" on="1"/>
        <pt x="639" y="598" on="0"/>
        <pt x="543" y="630" on="0"/>
        <pt x="487" y="630" on="1"/>
        <pt x="425" y="630" on="0"/>
        <pt x="322" y="581" on="0"/>
        <pt x="248" y="497" on="0"/>
        <pt x="207" y="387" on="0"/>
        <pt x="207" y="327" on="1"/>
        <pt x="207" y="272" on="0"/>
        <pt x="239" y="187" on="0"/>
        <pt x="298" y="128" on="0"/>
        <pt x="379" y="98" on="0"/>
        <pt x="428" y="98" on="1"/>
        <pt x="470" y="98" on="0"/>
        <pt x="528" y="114" on="0"/>
        <pt x="553" y="128" on="1"/>
        <pt x="582" y="279" on="1"/>
        <pt x="417" y="279" on="1"/>
        <pt x="438" y="388" on="1"/>
        <pt x="723" y="388" on="1"/>
      </contour>
    </TTGlyph>
    <TTGlyph name="G.alt" xMin="76" yMin="-12" xMax="803" yMax="745">
      <contour>
        <pt x="803" y="378" on="1"/>
        <pt x="791" y="285" on="0"/>
        <pt x="727" y="140" on="0"/>
        <pt x="629" y="40" on="0"/>
        <pt x="497" y="-12" on="0"/>
        <pt x="418" y="-12" on="1"/>
        <pt x="347" y="-12" on="0"/>
        <pt x="223" y="34" on="0"/>
        <pt x="130" y="120" on="0"/>
        <pt x="76" y="241" on="0"/>
        <pt x="76" y="316" on="1"/>
        <pt x="76" y="409" on="0"/>
        <pt x="145" y="567" on="0"/>
        <pt x="261" y="681" on="0"/>
        <pt x="415" y="745" on="0"/>
        <pt x="500" y="745" on="1"/>
        <pt x="574" y="745" on="0"/>
        <pt x="695" y="704" on="0"/>
        <pt x="738" y="674" on="1"/>
        <pt x="672" y="575" on="1"/>
        <pt x="639" y="598" on="0"/>
        <pt x="543" y="630" on="0"/>
        <pt x="488" y="630" on="1"/>
        <pt x="425" y="630" on="0"/>
        <pt x="322" y="581" on="0"/>
        <pt x="248" y="497" on="0"/>
        <pt x="207" y="386" on="0"/>
        <pt x="207" y="325" on="1"/>
        <pt x="207" y="272" on="0"/>
        <pt x="240" y="188" on="0"/>
        <pt x="299" y="130" on="0"/>
        <pt x="383" y="98" on="0"/>
        <pt x="434" y="98" on="1"/>
        <pt x="473" y="98" on="0"/>
        <pt x="543" y="123" on="0"/>
        <pt x="600" y="168" on="0"/>
        <pt x="643" y="231" on="0"/>
        <pt x="654" y="270" on="1"/>
        <pt x="404" y="270" on="1"/>
        <pt x="425" y="378" on="1"/>
      </contour>
    </TTGlyph>
    <TTGlyph name="Gbreve" xMin="75" yMin="-12" xMax="738" yMax="965">
      <component glyphName="G" x="0" y="0" flags="0x204"/>
      <component glyphName="breve" x="225" y="312" flags="0x4"/>
    </TTGlyph>
    <TTGlyph name="Gbreve.alt" xMin="76" yMin="-12" xMax="803" yMax="965">
      <component glyphName="G.alt" x="0" y="0" flags="0x204"/>
      <component glyphName="breve" x="225" y="312" flags="0x4"/>
    </TTGlyph>
    <TTGlyph name="Gcommaaccent" xMin="75" yMin="-322" xMax="738" yMax="745">
      <component glyphName="commaaccent" x="209" y="0" flags="0x4"/>
      <component glyphName="G" x="0" y="0" flags="0x4"/>
    </TTGlyph>
    <TTGlyph name="Gcommaaccent.alt" xMin="76" yMin="-322" xMax="803" yMax="745">
      <component glyphName="commaaccent" x="256" y="0" flags="0x4"/>
      <component glyphName="G.alt" x="0" y="0" flags="0x4"/>
    </TTGlyph>
    <TTGlyph name="Gdotaccent" xMin="75" yMin="-12" xMax="738" yMax="929">
      <component glyphName="G" x="0" y="0" flags="0x204"/>
      <component glyphName="dotaccent" x="236" y="312" flags="0x4"/>
    </TTGlyph>
    <TTGlyph name="Gdotaccent.alt" xMin="76" yMin="-12" xMax="803" yMax="929">
      <component glyphName="G.alt" x="0" y="0" flags="0x204"/>
      <component glyphName="dotaccent" x="236" y="312" flags="0x4"/>
    </TTGlyph>
    <TTGlyph name="H" xMin="37" yMin="0" xMax="749" yMax="733">
      <contour>
        <pt x="606" y="0" on="1"/>
        <pt x="482" y="0" on="1"/>
        <pt x="543" y="315" on="1"/>
        <pt x="223" y="315" on="1"/>
        <pt x="162" y="0" on="1"/>
        <pt x="37" y="0" on="1"/>
        <pt x="180" y="733" on="1"/>
        <pt x="304" y="733" on="1"/>
        <pt x="245" y="427" on="1"/>
        <pt x="564" y="427" on="1"/>
        <pt x="624" y="733" on="1"/>
        <pt x="749" y="733" on="1"/>
      </contour>
    </TTGlyph>
    <TTGlyph name="Hbar" xMin="47" yMin="0" xMax="809" yMax="733">
      <contour>
        <pt x="737" y="620" on="1"/>
        <pt x="809" y="620" on="1"/>
        <pt x="792" y="534" on="1"/>
        <pt x="720" y="534" on="1"/>
        <pt x="616" y="0" on="1"/>
        <pt x="492" y="0" on="1"/>
        <pt x="551" y="305" on="1"/>
        <pt x="231" y="305" on="1"/>
        <pt x="172" y="0" on="1"/>
        <pt x="47" y="0" on="1"/>
        <pt x="151" y="534" on="1"/>
        <pt x="78" y="534" on="1"/>
        <pt x="95" y="620" on="1"/>
        <pt x="168" y="620" on="1"/>
        <pt x="190" y="733" on="1"/>
        <pt x="314" y="733" on="1"/>
        <pt x="292" y="620" on="1"/>
        <pt x="612" y="620" on="1"/>
        <pt x="634" y="733" on="1"/>
        <pt x="759" y="733" on="1"/>
      </contour>
      <contour>
        <pt x="572" y="417" on="1"/>
        <pt x="595" y="534" on="1"/>
        <pt x="275" y="534" on="1"/>
        <pt x="253" y="417" on="1"/>
      </contour>
    </TTGlyph>
    <TTGlyph name="I" xMin="43" yMin="0" xMax="310" yMax="733">
      <contour>
        <pt x="167" y="0" on="1"/>
        <pt x="43" y="0" on="1"/>
        <pt x="185" y="733" on="1"/>
        <pt x="310" y="733" on="1"/>
      </contour>
    </TTGlyph>
    <TTGlyph name="Iacute" xMin="43" yMin="0" xMax="437" yMax="981">
      <component glyphName="I" x="0" y="0" flags="0x204"/>
      <component glyphName="acute" x="25" y="312" flags="0x4"/>
    </TTGlyph>
    <TTGlyph name="Ibreve" xMin="43" yMin="0" xMax="452" yMax="965">
      <component glyphName="I" x="0" y="0" flags="0x204"/>
      <component glyphName="breve" x="-22" y="312" flags="0x4"/>
    </TTGlyph>
    <TTGlyph name="Icircumflex" xMin="43" yMin="0" xMax="428" yMax="980">
      <component glyphName="I" x="0" y="0" flags="0x204"/>
      <component glyphName="circumflex" x="-30" y="312" flags="0x4"/>
    </TTGlyph>
    <TTGlyph name="Idieresis" xMin="43" yMin="0" xMax="427" yMax="929">
      <component glyphName="I" x="0" y="0" flags="0x204"/>
      <component glyphName="dieresis" x="-25" y="312" flags="0x4"/>
    </TTGlyph>
    <TTGlyph name="Idotaccent" xMin="43" yMin="0" xMax="336" yMax="929">
      <component glyphName="I" x="0" y="0" flags="0x204"/>
      <component glyphName="dotaccent" x="-12" y="312" flags="0x4"/>
    </TTGlyph>
    <TTGlyph name="Igrave" xMin="43" yMin="0" xMax="325" yMax="981">
      <component glyphName="I" x="0" y="0" flags="0x204"/>
      <component glyphName="grave" x="-77" y="312" flags="0x4"/>
    </TTGlyph>
    <TTGlyph name="Imacron" xMin="43" yMin="0" xMax="424" yMax="903">
      <component glyphName="I" x="0" y="0" flags="0x204"/>
      <component glyphName="macron" x="-24" y="312" flags="0x4"/>
    </TTGlyph>
    <TTGlyph name="Iogonek" xMin="-24" yMin="-222" xMax="310" yMax="733">
      <contour>
        <pt x="167" y="0" on="1"/>
        <pt x="147" y="0" on="1"/>
        <pt x="136" y="-11" on="0"/>
        <pt x="107" y="-39" on="0"/>
        <pt x="81" y="-71" on="0"/>
        <pt x="63" y="-105" on="0"/>
        <pt x="63" y="-121" on="1"/>
        <pt x="63" y="-150" on="0"/>
        <pt x="91" y="-150" on="1"/>
        <pt x="103" y="-150" on="0"/>
        <pt x="126" y="-138" on="0"/>
        <pt x="140" y="-126" on="1"/>
        <pt x="165" y="-173" on="1"/>
        <pt x="141" y="-196" on="0"/>
        <pt x="87" y="-221" on="0"/>
        <pt x="53" y="-222" on="1"/>
        <pt x="16" y="-222" on="0"/>
        <pt x="-24" y="-184" on="0"/>
        <pt x="-24" y="-151" on="1"/>
        <pt x="-24" y="-109" on="0"/>
        <pt x="28" y="-36" on="0"/>
        <pt x="70" y="0" on="1"/>
        <pt x="43" y="0" on="1"/>
        <pt x="185" y="733" on="1"/>
        <pt x="310" y="733" on="1"/>
      </contour>
    </TTGlyph>
    <TTGlyph name="J" xMin="-20" yMin="-12" xMax="516" yMax="733">
      <contour>
        <pt x="417" y="224" on="1"/>
        <pt x="394" y="110" on="0"/>
        <pt x="276" y="-12" on="0"/>
        <pt x="165" y="-12" on="1"/>
        <pt x="110" y="-12" on="0"/>
        <pt x="14" y="23" on="0"/>
        <pt x="-20" y="50" on="1"/>
        <pt x="44" y="146" on="1"/>
        <pt x="71" y="126" on="0"/>
        <pt x="131" y="102" on="0"/>
        <pt x="164" y="102" on="1"/>
        <pt x="222" y="102" on="0"/>
        <pt x="282" y="169" on="0"/>
        <pt x="296" y="244" on="1"/>
        <pt x="392" y="733" on="1"/>
        <pt x="516" y="733" on="1"/>
      </contour>
    </TTGlyph>
    <TTGlyph name="K" xMin="37" yMin="0" xMax="728" yMax="733">
      <contour>
        <pt x="351" y="374" on="1"/>
        <pt x="601" y="0" on="1"/>
        <pt x="451" y="0" on="1"/>
        <pt x="230" y="352" on="1"/>
        <pt x="162" y="0" on="1"/>
        <pt x="37" y="0" on="1"/>
        <pt x="180" y="733" on="1"/>
        <pt x="304" y="733" on="1"/>
        <pt x="240" y="403" on="1"/>
        <pt x="571" y="733" on="1"/>
        <pt x="728" y="733" on="1"/>
      </contour>
    </TTGlyph>
    <TTGlyph name="Kcommaaccent" xMin="37" yMin="-322" xMax="728" yMax="733">
      <component glyphName="commaaccent" x="146" y="0" flags="0x4"/>
      <component glyphName="K" x="0" y="0" flags="0x4"/>
    </TTGlyph>
    <TTGlyph name="L" xMin="37" yMin="0" xMax="490" yMax="733">
      <contour>
        <pt x="467" y="0" on="1"/>
        <pt x="37" y="0" on="1"/>
        <pt x="180" y="733" on="1"/>
        <pt x="304" y="733" on="1"/>
        <pt x="184" y="114" on="1"/>
        <pt x="490" y="114" on="1"/>
      </contour>
    </TTGlyph>
    <TTGlyph name="Lacute" xMin="37" yMin="0" xMax="490" yMax="981">
      <component glyphName="acute" x="34" y="312" flags="0x4"/>
      <component glyphName="L" x="0" y="0" flags="0x4"/>
    </TTGlyph>
    <TTGlyph name="Lcaron" xMin="37" yMin="0" xMax="497" yMax="733">
      <component glyphName="caron.alt" x="294" y="-12" flags="0x4"/>
      <component glyphName="L" x="0" y="0" flags="0x4"/>
    </TTGlyph>
    <TTGlyph name="Lcommaaccent" xMin="37" yMin="-322" xMax="490" yMax="733">
      <component glyphName="commaaccent" x="106" y="0" flags="0x4"/>
      <component glyphName="L" x="0" y="0" flags="0x4"/>
    </TTGlyph>
    <TTGlyph name="Ldot" xMin="37" yMin="0" xMax="503" yMax="733">
      <contour>
        <pt x="467" y="0" on="1"/>
        <pt x="37" y="0" on="1"/>
        <pt x="180" y="733" on="1"/>
        <pt x="304" y="733" on="1"/>
        <pt x="184" y="114" on="1"/>
        <pt x="490" y="114" on="1"/>
      </contour>
      <contour>
        <pt x="503" y="365" on="1"/>
        <pt x="503" y="340" on="0"/>
        <pt x="468" y="304" on="0"/>
        <pt x="442" y="304" on="1"/>
        <pt x="417" y="304" on="0"/>
        <pt x="381" y="340" on="0"/>
        <pt x="381" y="365" on="1"/>
        <pt x="381" y="391" on="0"/>
        <pt x="417" y="427" on="0"/>
        <pt x="442" y="427" on="1"/>
        <pt x="468" y="427" on="0"/>
        <pt x="503" y="391" on="0"/>
      </contour>
    </TTGlyph>
    <TTGlyph name="Lslash" xMin="43" yMin="0" xMax="505" yMax="733">
      <contour>
        <pt x="482" y="0" on="1"/>
        <pt x="52" y="0" on="1"/>
        <pt x="106" y="276" on="1"/>
        <pt x="43" y="250" on="1"/>
        <pt x="64" y="357" on="1"/>
        <pt x="126" y="383" on="1"/>
        <pt x="195" y="733" on="1"/>
        <pt x="319" y="733" on="1"/>
        <pt x="262" y="438" on="1"/>
        <pt x="374" y="484" on="1"/>
        <pt x="354" y="377" on="1"/>
        <pt x="241" y="330" on="1"/>
        <pt x="199" y="114" on="1"/>
        <pt x="505" y="114" on="1"/>
      </contour>
    </TTGlyph>
    <TTGlyph name="M" xMin="28" yMin="0" xMax="866" yMax="744">
      <contour>
        <pt x="753" y="0" on="1"/>
        <pt x="630" y="0" on="1"/>
        <pt x="705" y="433" on="1"/>
        <pt x="421" y="89" on="1"/>
        <pt x="407" y="89" on="1"/>
        <pt x="244" y="446" on="1"/>
        <pt x="150" y="0" on="1"/>
        <pt x="28" y="0" on="1"/>
        <pt x="203" y="742" on="1"/>
        <pt x="221" y="744" on="1"/>
        <pt x="444" y="258" on="1"/>
        <pt x="846" y="744" on="1"/>
        <pt x="866" y="742" on="1"/>
      </contour>
    </TTGlyph>
    <TTGlyph name="M.alt" xMin="28" yMin="0" xMax="866" yMax="744">
      <contour>
        <pt x="753" y="0" on="1"/>
        <pt x="630" y="0" on="1"/>
        <pt x="707" y="444" on="1"/>
        <pt x="429" y="129" on="1"/>
        <pt x="415" y="129" on="1"/>
        <pt x="246" y="457" on="1"/>
        <pt x="150" y="0" on="1"/>
        <pt x="28" y="0" on="1"/>
        <pt x="203" y="742" on="1"/>
        <pt x="221" y="744" on="1"/>
        <pt x="450" y="292" on="1"/>
        <pt x="846" y="744" on="1"/>
        <pt x="866" y="742" on="1"/>
      </contour>
    </TTGlyph>
    <TTGlyph name="N" xMin="37" yMin="-14" xMax="759" yMax="747">
      <contour>
        <pt x="614" y="-11" on="1"/>
        <pt x="600" y="-14" on="1"/>
        <pt x="254" y="473" on="1"/>
        <pt x="162" y="0" on="1"/>
        <pt x="37" y="0" on="1"/>
        <pt x="182" y="743" on="1"/>
        <pt x="202" y="747" on="1"/>
        <pt x="543" y="266" on="1"/>
        <pt x="634" y="733" on="1"/>
        <pt x="759" y="733" on="1"/>
      </contour>
    </TTGlyph>
    <TTGlyph name="Nacute" xMin="37" yMin="-14" xMax="759" yMax="974">
      <component glyphName="acute" x="245" y="305" flags="0x4"/>
      <component glyphName="N" x="0" y="0" flags="0x4"/>
    </TTGlyph>
    <TTGlyph name="Ncaron" xMin="37" yMin="-14" xMax="759" yMax="972">
      <component glyphName="caron" x="198" y="305" flags="0x4"/>
      <component glyphName="N" x="0" y="0" flags="0x4"/>
    </TTGlyph>
    <TTGlyph name="Ncommaaccent" xMin="37" yMin="-322" xMax="759" yMax="747">
      <component glyphName="commaaccent" x="176" y="0" flags="0x4"/>
      <component glyphName="N" x="0" y="0" flags="0x4"/>
    </TTGlyph>
    <TTGlyph name="Ntilde" xMin="37" yMin="-14" xMax="759" yMax="929">
      <component glyphName="N" x="0" y="0" flags="0x204"/>
      <component glyphName="tilde" x="191" y="305" flags="0x4"/>
    </TTGlyph>
    <TTGlyph name="O" xMin="76" yMin="-12" xMax="812" yMax="745">
      <contour>
        <pt x="812" y="418" on="1"/>
        <pt x="812" y="338" on="0"/>
        <pt x="754" y="184" on="0"/>
        <pt x="648" y="62" on="0"/>
        <pt x="497" y="-12" on="0"/>
        <pt x="404" y="-12" on="1"/>
        <pt x="331" y="-12" on="0"/>
        <pt x="210" y="34" on="0"/>
        <pt x="124" y="120" on="0"/>
        <pt x="76" y="241" on="0"/>
        <pt x="76" y="316" on="1"/>
        <pt x="76" y="396" on="0"/>
        <pt x="134" y="550" on="0"/>
        <pt x="240" y="671" on="0"/>
        <pt x="392" y="745" on="0"/>
        <pt x="485" y="745" on="1"/>
        <pt x="558" y="745" on="0"/>
        <pt x="678" y="699" on="0"/>
        <pt x="764" y="613" on="0"/>
        <pt x="812" y="493" on="0"/>
      </contour>
      <contour>
        <pt x="682" y="410" on="1"/>
        <pt x="682" y="514" on="0"/>
        <pt x="573" y="634" on="0"/>
        <pt x="478" y="634" on="1"/>
        <pt x="419" y="634" on="0"/>
        <pt x="320" y="585" on="0"/>
        <pt x="248" y="500" on="0"/>
        <pt x="207" y="387" on="0"/>
        <pt x="207" y="323" on="1"/>
        <pt x="207" y="220" on="0"/>
        <pt x="315" y="99" on="0"/>
        <pt x="410" y="99" on="1"/>
        <pt x="469" y="99" on="0"/>
        <pt x="569" y="148" on="0"/>
        <pt x="641" y="233" on="0"/>
        <pt x="682" y="346" on="0"/>
      </contour>
    </TTGlyph>
    <TTGlyph name="OE" xMin="78" yMin="-6" xMax="1071" yMax="739">
      <contour>
        <pt x="1049" y="619" on="1"/>
        <pt x="742" y="619" on="1"/>
        <pt x="705" y="427" on="1"/>
        <pt x="981" y="427" on="1"/>
        <pt x="959" y="317" on="1"/>
        <pt x="684" y="317" on="1"/>
        <pt x="645" y="114" on="1"/>
        <pt x="951" y="114" on="1"/>
        <pt x="928" y="0" on="1"/>
        <pt x="571" y="0" on="1"/>
        <pt x="546" y="-2" on="0"/>
        <pt x="494" y="-6" on="0"/>
        <pt x="462" y="-6" on="1"/>
        <pt x="370" y="-6" on="0"/>
        <pt x="227" y="42" on="0"/>
        <pt x="129" y="129" on="0"/>
        <pt x="78" y="249" on="0"/>
        <pt x="78" y="321" on="1"/>
        <pt x="78" y="414" on="0"/>
        <pt x="149" y="568" on="0"/>
        <pt x="277" y="678" on="0"/>
        <pt x="453" y="739" on="0"/>
        <pt x="557" y="739" on="1"/>
        <pt x="619" y="739" on="0"/>
        <pt x="688" y="733" on="1"/>
        <pt x="1071" y="733" on="1"/>
      </contour>
      <contour>
        <pt x="447" y="105" on="1"/>
        <pt x="465" y="105" on="0"/>
        <pt x="501" y="107" on="0"/>
        <pt x="519" y="110" on="1"/>
        <pt x="618" y="624" on="1"/>
        <pt x="600" y="626" on="0"/>
        <pt x="556" y="629" on="0"/>
        <pt x="533" y="629" on="1"/>
        <pt x="466" y="629" on="0"/>
        <pt x="348" y="587" on="0"/>
        <pt x="261" y="509" on="0"/>
        <pt x="210" y="399" on="0"/>
        <pt x="210" y="331" on="1"/>
        <pt x="210" y="268" on="0"/>
        <pt x="252" y="183" on="0"/>
        <pt x="285" y="157" on="1"/>
        <pt x="314" y="133" on="0"/>
        <pt x="396" y="105" on="0"/>
      </contour>
    </TTGlyph>
    <TTGlyph name="Oacute" xMin="76" yMin="-12" xMax="812" yMax="981">
      <component glyphName="acute" x="293" y="312" flags="0x4"/>
      <component glyphName="O" x="0" y="0" flags="0x4"/>
    </TTGlyph>
    <TTGlyph name="Obreve" xMin="76" yMin="-12" xMax="812" yMax="965">
      <component glyphName="O" x="0" y="0" flags="0x204"/>
      <component glyphName="breve" x="244" y="312" flags="0x4"/>
    </TTGlyph>
    <TTGlyph name="Ocircumflex" xMin="76" yMin="-12" xMax="812" yMax="980">
      <component glyphName="circumflex" x="236" y="312" flags="0x4"/>
      <component glyphName="O" x="0" y="0" flags="0x4"/>
    </TTGlyph>
    <TTGlyph name="Odieresis" xMin="76" yMin="-12" xMax="812" yMax="929">
      <component glyphName="dieresis" x="241" y="312" flags="0x4"/>
      <component glyphName="O" x="0" y="0" flags="0x4"/>
    </TTGlyph>
    <TTGlyph name="Ograve" xMin="76" yMin="-12" xMax="812" yMax="981">
      <component glyphName="O" x="0" y="0" flags="0x204"/>
      <component glyphName="grave" x="189" y="312" flags="0x4"/>
    </TTGlyph>
    <TTGlyph name="Ohungarumlaut" xMin="76" yMin="-12" xMax="812" yMax="1017">
      <component glyphName="hungarumlaut" x="291" y="312" flags="0x4"/>
      <component glyphName="O" x="0" y="0" flags="0x4"/>
    </TTGlyph>
    <TTGlyph name="Omacron" xMin="76" yMin="-12" xMax="812" yMax="903">
      <component glyphName="macron" x="242" y="312" flags="0x4"/>
      <component glyphName="O" x="0" y="0" flags="0x4"/>
    </TTGlyph>
    <TTGlyph name="Oslash" xMin="29" yMin="-12" xMax="860" yMax="745">
      <contour>
        <pt x="812" y="421" on="1"/>
        <pt x="812" y="340" on="0"/>
        <pt x="754" y="185" on="0"/>
        <pt x="648" y="63" on="0"/>
        <pt x="497" y="-12" on="0"/>
        <pt x="404" y="-12" on="1"/>
        <pt x="333" y="-12" on="0"/>
        <pt x="217" y="30" on="0"/>
        <pt x="174" y="69" on="1"/>
        <pt x="86" y="-6" on="1"/>
        <pt x="29" y="64" on="1"/>
        <pt x="118" y="140" on="1"/>
        <pt x="98" y="176" on="0"/>
        <pt x="76" y="262" on="0"/>
        <pt x="76" y="312" on="1"/>
        <pt x="76" y="393" on="0"/>
        <pt x="134" y="549" on="0"/>
        <pt x="240" y="670" on="0"/>
        <pt x="392" y="745" on="0"/>
        <pt x="485" y="745" on="1"/>
        <pt x="555" y="745" on="0"/>
        <pt x="672" y="702" on="0"/>
        <pt x="715" y="662" on="1"/>
        <pt x="803" y="738" on="1"/>
        <pt x="860" y="669" on="1"/>
        <pt x="770" y="592" on="1"/>
        <pt x="790" y="556" on="0"/>
        <pt x="812" y="470" on="0"/>
      </contour>
      <contour>
        <pt x="206" y="320" on="1"/>
        <pt x="206" y="271" on="0"/>
        <pt x="220" y="227" on="1"/>
        <pt x="622" y="581" on="1"/>
        <pt x="568" y="635" on="0"/>
        <pt x="478" y="635" on="1"/>
        <pt x="419" y="635" on="0"/>
        <pt x="320" y="585" on="0"/>
        <pt x="247" y="500" on="0"/>
        <pt x="206" y="385" on="0"/>
      </contour>
      <contour>
        <pt x="683" y="413" on="1"/>
        <pt x="683" y="462" on="0"/>
        <pt x="669" y="504" on="1"/>
        <pt x="266" y="151" on="1"/>
        <pt x="320" y="97" on="0"/>
        <pt x="411" y="98" on="1"/>
        <pt x="470" y="98" on="0"/>
        <pt x="570" y="148" on="0"/>
        <pt x="642" y="233" on="0"/>
        <pt x="683" y="348" on="0"/>
      </contour>
    </TTGlyph>
    <TTGlyph name="Oslashacute" xMin="29" yMin="-12" xMax="860" yMax="981">
      <component glyphName="Oslash" x="0" y="0" flags="0x204"/>
      <component glyphName="acute" x="293" y="312" flags="0x4"/>
    </TTGlyph>
    <TTGlyph name="Otilde" xMin="76" yMin="-12" xMax="812" yMax="936">
      <component glyphName="O" x="0" y="0" flags="0x204"/>
      <component glyphName="tilde" x="239" y="312" flags="0x4"/>
    </TTGlyph>
    <TTGlyph name="P" xMin="37" yMin="0" xMax="607" yMax="738">
      <contour>
        <pt x="607" y="512" on="1"/>
        <pt x="607" y="450" on="0"/>
        <pt x="561" y="348" on="0"/>
        <pt x="475" y="275" on="0"/>
        <pt x="352" y="235" on="0"/>
        <pt x="274" y="235" on="1"/>
        <pt x="269" y="235" on="0"/>
        <pt x="251" y="236" on="0"/>
        <pt x="231" y="237" on="0"/>
        <pt x="213" y="238" on="0"/>
        <pt x="208" y="239" on="1"/>
        <pt x="162" y="0" on="1"/>
        <pt x="37" y="0" on="1"/>
        <pt x="179" y="727" on="1"/>
        <pt x="214" y="732" on="0"/>
        <pt x="278" y="738" on="0"/>
        <pt x="320" y="738" on="1"/>
        <pt x="388" y="738" on="0"/>
        <pt x="495" y="706" on="0"/>
        <pt x="568" y="646" on="0"/>
        <pt x="607" y="563" on="0"/>
      </contour>
      <contour>
        <pt x="478" y="499" on="1"/>
        <pt x="478" y="554" on="0"/>
        <pt x="404" y="623" on="0"/>
        <pt x="337" y="623" on="1"/>
        <pt x="321" y="623" on="0"/>
        <pt x="295" y="620" on="0"/>
        <pt x="282" y="618" on="1"/>
        <pt x="230" y="349" on="1"/>
        <pt x="246" y="347" on="0"/>
        <pt x="276" y="345" on="0"/>
        <pt x="293" y="345" on="1"/>
        <pt x="378" y="345" on="0"/>
        <pt x="478" y="428" on="0"/>
      </contour>
    </TTGlyph>
    <TTGlyph name="Q" xMin="76" yMin="-27" xMax="812" yMax="745">
      <contour>
        <pt x="812" y="418" on="1"/>
        <pt x="812" y="338" on="0"/>
        <pt x="753" y="185" on="0"/>
        <pt x="697" y="123" on="1"/>
        <pt x="758" y="55" on="1"/>
        <pt x="666" y="-27" on="1"/>
        <pt x="605" y="45" on="1"/>
        <pt x="561" y="18" on="0"/>
        <pt x="461" y="-12" on="0"/>
        <pt x="404" y="-12" on="1"/>
        <pt x="331" y="-12" on="0"/>
        <pt x="210" y="34" on="0"/>
        <pt x="124" y="120" on="0"/>
        <pt x="76" y="241" on="0"/>
        <pt x="76" y="316" on="1"/>
        <pt x="76" y="396" on="0"/>
        <pt x="134" y="550" on="0"/>
        <pt x="240" y="671" on="0"/>
        <pt x="392" y="745" on="0"/>
        <pt x="485" y="745" on="1"/>
        <pt x="558" y="745" on="0"/>
        <pt x="678" y="699" on="0"/>
        <pt x="764" y="613" on="0"/>
        <pt x="812" y="493" on="0"/>
      </contour>
      <contour>
        <pt x="682" y="410" on="1"/>
        <pt x="682" y="514" on="0"/>
        <pt x="573" y="634" on="0"/>
        <pt x="478" y="634" on="1"/>
        <pt x="419" y="634" on="0"/>
        <pt x="320" y="585" on="0"/>
        <pt x="248" y="500" on="0"/>
        <pt x="207" y="387" on="0"/>
        <pt x="207" y="323" on="1"/>
        <pt x="207" y="272" on="0"/>
        <pt x="235" y="189" on="0"/>
        <pt x="288" y="130" on="0"/>
        <pt x="363" y="99" on="0"/>
        <pt x="411" y="99" on="1"/>
        <pt x="444" y="99" on="0"/>
        <pt x="504" y="115" on="0"/>
        <pt x="530" y="129" on="1"/>
        <pt x="424" y="247" on="1"/>
        <pt x="517" y="329" on="1"/>
        <pt x="618" y="211" on="1"/>
        <pt x="648" y="251" on="0"/>
        <pt x="682" y="351" on="0"/>
      </contour>
    </TTGlyph>
    <TTGlyph name="R" xMin="37" yMin="0" xMax="611" yMax="738">
      <contour>
        <pt x="611" y="522" on="1"/>
        <pt x="611" y="436" on="0"/>
        <pt x="507" y="313" on="0"/>
        <pt x="423" y="285" on="1"/>
        <pt x="563" y="0" on="1"/>
        <pt x="418" y="0" on="1"/>
        <pt x="303" y="262" on="1"/>
        <pt x="300" y="261" on="0"/>
        <pt x="288" y="261" on="0"/>
        <pt x="285" y="261" on="1"/>
        <pt x="266" y="261" on="0"/>
        <pt x="231" y="263" on="0"/>
        <pt x="214" y="265" on="1"/>
        <pt x="162" y="0" on="1"/>
        <pt x="37" y="0" on="1"/>
        <pt x="179" y="728" on="1"/>
        <pt x="212" y="733" on="0"/>
        <pt x="286" y="738" on="0"/>
        <pt x="333" y="738" on="1"/>
        <pt x="398" y="738" on="0"/>
        <pt x="501" y="707" on="0"/>
        <pt x="573" y="651" on="0"/>
        <pt x="611" y="571" on="0"/>
      </contour>
      <contour>
        <pt x="480" y="509" on="1"/>
        <pt x="480" y="564" on="0"/>
        <pt x="406" y="626" on="0"/>
        <pt x="341" y="626" on="1"/>
        <pt x="323" y="626" on="0"/>
        <pt x="296" y="624" on="0"/>
        <pt x="282" y="621" on="1"/>
        <pt x="234" y="369" on="1"/>
        <pt x="252" y="367" on="0"/>
        <pt x="282" y="366" on="0"/>
        <pt x="300" y="366" on="1"/>
        <pt x="382" y="366" on="0"/>
        <pt x="480" y="443" on="0"/>
      </contour>
    </TTGlyph>
    <TTGlyph name="Racute" xMin="37" yMin="0" xMax="611" yMax="981">
      <component glyphName="acute" x="177" y="312" flags="0x4"/>
      <component glyphName="R" x="0" y="0" flags="0x4"/>
    </TTGlyph>
    <TTGlyph name="Rcaron" xMin="37" yMin="0" xMax="618" yMax="979">
      <component glyphName="caron" x="130" y="312" flags="0x4"/>
      <component glyphName="R" x="0" y="0" flags="0x4"/>
    </TTGlyph>
    <TTGlyph name="Rcommaaccent" xMin="37" yMin="-322" xMax="611" yMax="738">
      <component glyphName="commaaccent" x="107" y="0" flags="0x4"/>
      <component glyphName="R" x="0" y="0" flags="0x4"/>
    </TTGlyph>
    <TTGlyph name="S" xMin="6" yMin="-12" xMax="558" yMax="745">
      <contour>
        <pt x="503" y="573" on="1"/>
        <pt x="470" y="599" on="0"/>
        <pt x="389" y="633" on="0"/>
        <pt x="348" y="633" on="1"/>
        <pt x="295" y="633" on="0"/>
        <pt x="242" y="575" on="0"/>
        <pt x="242" y="537" on="1"/>
        <pt x="242" y="518" on="0"/>
        <pt x="257" y="488" on="0"/>
        <pt x="285" y="461" on="0"/>
        <pt x="327" y="433" on="0"/>
        <pt x="354" y="417" on="1"/>
        <pt x="385" y="397" on="0"/>
        <pt x="438" y="357" on="0"/>
        <pt x="476" y="310" on="0"/>
        <pt x="497" y="254" on="0"/>
        <pt x="497" y="219" on="1"/>
        <pt x="497" y="173" on="0"/>
        <pt x="465" y="90" on="0"/>
        <pt x="402" y="26" on="0"/>
        <pt x="309" y="-12" on="0"/>
        <pt x="248" y="-12" on="1"/>
        <pt x="179" y="-12" on="0"/>
        <pt x="50" y="39" on="0"/>
        <pt x="6" y="76" on="1"/>
        <pt x="63" y="179" on="1"/>
        <pt x="101" y="145" on="0"/>
        <pt x="203" y="102" on="0"/>
        <pt x="253" y="102" on="1"/>
        <pt x="313" y="102" on="0"/>
        <pt x="369" y="159" on="0"/>
        <pt x="369" y="203" on="1"/>
        <pt x="369" y="244" on="0"/>
        <pt x="309" y="298" on="0"/>
        <pt x="257" y="330" on="1"/>
        <pt x="225" y="349" on="0"/>
        <pt x="173" y="388" on="0"/>
        <pt x="135" y="434" on="0"/>
        <pt x="115" y="489" on="0"/>
        <pt x="115" y="524" on="1"/>
        <pt x="115" y="569" on="0"/>
        <pt x="150" y="650" on="0"/>
        <pt x="214" y="710" on="0"/>
        <pt x="301" y="745" on="0"/>
        <pt x="354" y="745" on="1"/>
        <pt x="414" y="745" on="0"/>
        <pt x="518" y="708" on="0"/>
        <pt x="558" y="679" on="1"/>
      </contour>
    </TTGlyph>
    <TTGlyph name="Sacute" xMin="6" yMin="-12" xMax="558" yMax="981">
      <component glyphName="acute" x="141" y="312" flags="0x4"/>
      <component glyphName="S" x="0" y="0" flags="0x4"/>
    </TTGlyph>
    <TTGlyph name="Scaron" xMin="6" yMin="-12" xMax="582" yMax="979">
      <component glyphName="caron" x="94" y="312" flags="0x4"/>
      <component glyphName="S" x="0" y="0" flags="0x4"/>
    </TTGlyph>
    <TTGlyph name="Scedilla" xMin="6" yMin="-254" xMax="558" yMax="745">
      <contour>
        <pt x="311" y="-147" on="1"/>
        <pt x="311" y="-192" on="0"/>
        <pt x="245" y="-254" on="0"/>
        <pt x="189" y="-254" on="1"/>
        <pt x="154" y="-254" on="0"/>
        <pt x="92" y="-233" on="0"/>
        <pt x="63" y="-213" on="1"/>
        <pt x="101" y="-154" on="1"/>
        <pt x="149" y="-188" on="0"/>
        <pt x="191" y="-188" on="1"/>
        <pt x="208" y="-188" on="0"/>
        <pt x="234" y="-170" on="0"/>
        <pt x="234" y="-152" on="1"/>
        <pt x="234" y="-138" on="0"/>
        <pt x="197" y="-111" on="0"/>
        <pt x="147" y="-108" on="1"/>
        <pt x="143" y="-99" on="1"/>
        <pt x="187" y="-6" on="1"/>
        <pt x="134" y="3" on="0"/>
        <pt x="41" y="47" on="0"/>
        <pt x="6" y="76" on="1"/>
        <pt x="63" y="179" on="1"/>
        <pt x="101" y="145" on="0"/>
        <pt x="203" y="102" on="0"/>
        <pt x="253" y="102" on="1"/>
        <pt x="313" y="102" on="0"/>
        <pt x="369" y="159" on="0"/>
        <pt x="369" y="203" on="1"/>
        <pt x="369" y="244" on="0"/>
        <pt x="309" y="298" on="0"/>
        <pt x="257" y="330" on="1"/>
        <pt x="225" y="349" on="0"/>
        <pt x="173" y="388" on="0"/>
        <pt x="135" y="434" on="0"/>
        <pt x="115" y="489" on="0"/>
        <pt x="115" y="524" on="1"/>
        <pt x="115" y="569" on="0"/>
        <pt x="150" y="650" on="0"/>
        <pt x="214" y="710" on="0"/>
        <pt x="301" y="745" on="0"/>
        <pt x="354" y="745" on="1"/>
        <pt x="414" y="745" on="0"/>
        <pt x="518" y="708" on="0"/>
        <pt x="558" y="679" on="1"/>
        <pt x="503" y="573" on="1"/>
        <pt x="470" y="599" on="0"/>
        <pt x="389" y="633" on="0"/>
        <pt x="348" y="633" on="1"/>
        <pt x="295" y="633" on="0"/>
        <pt x="242" y="575" on="0"/>
        <pt x="242" y="537" on="1"/>
        <pt x="242" y="518" on="0"/>
        <pt x="257" y="488" on="0"/>
        <pt x="285" y="461" on="0"/>
        <pt x="327" y="433" on="0"/>
        <pt x="354" y="417" on="1"/>
        <pt x="385" y="397" on="0"/>
        <pt x="438" y="357" on="0"/>
        <pt x="476" y="310" on="0"/>
        <pt x="497" y="254" on="0"/>
        <pt x="497" y="219" on="1"/>
        <pt x="497" y="173" on="0"/>
        <pt x="465" y="90" on="0"/>
        <pt x="402" y="26" on="0"/>
        <pt x="309" y="-12" on="0"/>
        <pt x="248" y="-12" on="1"/>
        <pt x="238" y="-12" on="1"/>
        <pt x="220" y="-56" on="1"/>
        <pt x="263" y="-67" on="0"/>
        <pt x="311" y="-112" on="0"/>
      </contour>
    </TTGlyph>
    <TTGlyph name="Scommaaccent" xMin="6" yMin="-322" xMax="558" yMax="745">
      <component glyphName="commaaccent" x="70" y="0" flags="0x4"/>
      <component glyphName="S" x="0" y="0" flags="0x4"/>
    </TTGlyph>
    <TTGlyph name="T" xMin="102" yMin="0" xMax="698" yMax="733">
      <contour>
        <pt x="676" y="619" on="1"/>
        <pt x="451" y="619" on="1"/>
        <pt x="330" y="0" on="1"/>
        <pt x="206" y="0" on="1"/>
        <pt x="327" y="619" on="1"/>
        <pt x="102" y="619" on="1"/>
        <pt x="124" y="733" on="1"/>
        <pt x="698" y="733" on="1"/>
      </contour>
    </TTGlyph>
    <TTGlyph name="Tcaron" xMin="102" yMin="0" xMax="698" yMax="979">
      <component glyphName="caron" x="143" y="312" flags="0x4"/>
      <component glyphName="T" x="0" y="0" flags="0x4"/>
    </TTGlyph>
    <TTGlyph name="Tcommaaccent" xMin="102" yMin="-322" xMax="698" yMax="733">
      <component glyphName="commaaccent" x="119" y="0" flags="0x4"/>
      <component glyphName="T" x="0" y="0" flags="0x4"/>
    </TTGlyph>
    <TTGlyph name="Thorn" xMin="37" yMin="0" xMax="583" yMax="733">
      <contour>
        <pt x="180" y="733" on="1"/>
        <pt x="304" y="733" on="1"/>
        <pt x="282" y="616" on="1"/>
        <pt x="287" y="617" on="0"/>
        <pt x="296" y="617" on="0"/>
        <pt x="301" y="617" on="1"/>
        <pt x="369" y="617" on="0"/>
        <pt x="474" y="585" on="0"/>
        <pt x="546" y="525" on="0"/>
        <pt x="583" y="442" on="0"/>
        <pt x="583" y="391" on="1"/>
        <pt x="583" y="329" on="0"/>
        <pt x="537" y="227" on="0"/>
        <pt x="451" y="154" on="0"/>
        <pt x="328" y="114" on="0"/>
        <pt x="250" y="114" on="1"/>
        <pt x="246" y="114" on="0"/>
        <pt x="228" y="115" on="0"/>
        <pt x="208" y="116" on="0"/>
        <pt x="190" y="117" on="0"/>
        <pt x="185" y="118" on="1"/>
        <pt x="162" y="0" on="1"/>
        <pt x="37" y="0" on="1"/>
      </contour>
      <contour>
        <pt x="454" y="378" on="1"/>
        <pt x="454" y="433" on="0"/>
        <pt x="381" y="502" on="0"/>
        <pt x="314" y="502" on="1"/>
        <pt x="281" y="502" on="0"/>
        <pt x="258" y="498" on="1"/>
        <pt x="206" y="227" on="1"/>
        <pt x="237" y="224" on="0"/>
        <pt x="270" y="224" on="1"/>
        <pt x="355" y="224" on="0"/>
        <pt x="454" y="307" on="0"/>
      </contour>
    </TTGlyph>
    <TTGlyph name="U" xMin="80" yMin="-12" xMax="740" yMax="733">
      <contour>
        <pt x="648" y="260" on="1"/>
        <pt x="622" y="125" on="0"/>
        <pt x="463" y="-12" on="0"/>
        <pt x="334" y="-12" on="1"/>
        <pt x="276" y="-12" on="0"/>
        <pt x="182" y="19" on="0"/>
        <pt x="116" y="79" on="0"/>
        <pt x="80" y="166" on="0"/>
        <pt x="80" y="222" on="1"/>
        <pt x="80" y="240" on="0"/>
        <pt x="84" y="284" on="0"/>
        <pt x="89" y="305" on="1"/>
        <pt x="172" y="733" on="1"/>
        <pt x="296" y="733" on="1"/>
        <pt x="212" y="298" on="1"/>
        <pt x="210" y="285" on="0"/>
        <pt x="206" y="251" on="0"/>
        <pt x="206" y="237" on="1"/>
        <pt x="206" y="173" on="0"/>
        <pt x="277" y="101" on="0"/>
        <pt x="346" y="101" on="1"/>
        <pt x="419" y="101" on="0"/>
        <pt x="509" y="187" on="0"/>
        <pt x="527" y="282" on="1"/>
        <pt x="616" y="733" on="1"/>
        <pt x="740" y="733" on="1"/>
      </contour>
    </TTGlyph>
    <TTGlyph name="Uacute" xMin="80" yMin="-12" xMax="740" yMax="974">
      <component glyphName="acute" x="230" y="305" flags="0x4"/>
      <component glyphName="U" x="0" y="0" flags="0x4"/>
    </TTGlyph>
    <TTGlyph name="Ubreve" xMin="80" yMin="-12" xMax="740" yMax="958">
      <component glyphName="U" x="0" y="0" flags="0x204"/>
      <component glyphName="breve" x="181" y="305" flags="0x4"/>
    </TTGlyph>
    <TTGlyph name="Ucircumflex" xMin="80" yMin="-12" xMax="740" yMax="973">
      <component glyphName="circumflex" x="173" y="305" flags="0x4"/>
      <component glyphName="U" x="0" y="0" flags="0x4"/>
    </TTGlyph>
    <TTGlyph name="Udieresis" xMin="80" yMin="-12" xMax="740" yMax="922">
      <component glyphName="dieresis" x="178" y="305" flags="0x4"/>
      <component glyphName="U" x="0" y="0" flags="0x4"/>
    </TTGlyph>
    <TTGlyph name="Ugrave" xMin="80" yMin="-12" xMax="740" yMax="974">
      <component glyphName="U" x="0" y="0" flags="0x204"/>
      <component glyphName="grave" x="127" y="305" flags="0x4"/>
    </TTGlyph>
    <TTGlyph name="Uhungarumlaut" xMin="80" yMin="-12" xMax="740" yMax="1010">
      <component glyphName="U" x="0" y="0" flags="0x204"/>
      <component glyphName="hungarumlaut" x="228" y="305" flags="0x4"/>
    </TTGlyph>
    <TTGlyph name="Umacron" xMin="80" yMin="-12" xMax="740" yMax="896">
      <component glyphName="U" x="0" y="0" flags="0x204"/>
      <component glyphName="macron" x="179" y="305" flags="0x4"/>
    </TTGlyph>
    <TTGlyph name="Uogonek" xMin="80" yMin="-222" xMax="740" yMax="733">
      <contour>
        <pt x="648" y="260" on="1"/>
        <pt x="623" y="132" on="0"/>
        <pt x="479" y="-3" on="0"/>
        <pt x="363" y="-11" on="1"/>
        <pt x="351" y="-22" on="0"/>
        <pt x="326" y="-48" on="0"/>
        <pt x="304" y="-77" on="0"/>
        <pt x="290" y="-107" on="0"/>
        <pt x="290" y="-121" on="1"/>
        <pt x="290" y="-150" on="0"/>
        <pt x="318" y="-150" on="1"/>
        <pt x="330" y="-150" on="0"/>
        <pt x="354" y="-138" on="0"/>
        <pt x="368" y="-126" on="1"/>
        <pt x="393" y="-173" on="1"/>
        <pt x="368" y="-196" on="0"/>
        <pt x="315" y="-221" on="0"/>
        <pt x="281" y="-222" on="1"/>
        <pt x="244" y="-222" on="0"/>
        <pt x="204" y="-184" on="0"/>
        <pt x="204" y="-151" on="1"/>
        <pt x="204" y="-112" on="0"/>
        <pt x="249" y="-43" on="0"/>
        <pt x="287" y="-9" on="1"/>
        <pt x="190" y="2" on="0"/>
        <pt x="80" y="120" on="0"/>
        <pt x="80" y="222" on="1"/>
        <pt x="80" y="240" on="0"/>
        <pt x="84" y="284" on="0"/>
        <pt x="89" y="305" on="1"/>
        <pt x="172" y="733" on="1"/>
        <pt x="296" y="733" on="1"/>
        <pt x="212" y="298" on="1"/>
        <pt x="210" y="285" on="0"/>
        <pt x="206" y="251" on="0"/>
        <pt x="206" y="237" on="1"/>
        <pt x="206" y="173" on="0"/>
        <pt x="277" y="101" on="0"/>
        <pt x="346" y="101" on="1"/>
        <pt x="419" y="101" on="0"/>
        <pt x="509" y="187" on="0"/>
        <pt x="527" y="282" on="1"/>
        <pt x="616" y="733" on="1"/>
        <pt x="740" y="733" on="1"/>
      </contour>
    </TTGlyph>
    <TTGlyph name="Uring" xMin="80" yMin="-12" xMax="740" yMax="1017">
      <component glyphName="ring" x="183" y="305" flags="0x4"/>
      <component glyphName="U" x="0" y="0" flags="0x4"/>
    </TTGlyph>
    <TTGlyph name="V" xMin="101" yMin="-10" xMax="777" yMax="733">
      <contour>
        <pt x="302" y="-10" on="1"/>
        <pt x="286" y="-10" on="1"/>
        <pt x="101" y="733" on="1"/>
        <pt x="238" y="733" on="1"/>
        <pt x="344" y="241" on="1"/>
        <pt x="635" y="733" on="1"/>
        <pt x="777" y="733" on="1"/>
      </contour>
    </TTGlyph>
    <TTGlyph name="W" xMin="107" yMin="-14" xMax="1049" yMax="739">
      <contour>
        <pt x="673" y="-12" on="1"/>
        <pt x="654" y="-14" on="1"/>
        <pt x="530" y="494" on="1"/>
        <pt x="214" y="-14" on="1"/>
        <pt x="194" y="-12" on="1"/>
        <pt x="107" y="733" on="1"/>
        <pt x="246" y="733" on="1"/>
        <pt x="284" y="274" on="1"/>
        <pt x="568" y="739" on="1"/>
        <pt x="583" y="739" on="1"/>
        <pt x="695" y="272" on="1"/>
        <pt x="908" y="733" on="1"/>
        <pt x="1049" y="733" on="1"/>
      </contour>
    </TTGlyph>
    <TTGlyph name="Wacute" xMin="107" yMin="-14" xMax="1049" yMax="981">
      <component glyphName="acute" x="353" y="312" flags="0x4"/>
      <component glyphName="W" x="0" y="0" flags="0x4"/>
    </TTGlyph>
    <TTGlyph name="Wcircumflex" xMin="107" yMin="-14" xMax="1049" yMax="980">
      <component glyphName="circumflex" x="296" y="312" flags="0x4"/>
      <component glyphName="W" x="0" y="0" flags="0x4"/>
    </TTGlyph>
    <TTGlyph name="Wdieresis" xMin="107" yMin="-14" xMax="1049" yMax="929">
      <component glyphName="dieresis" x="302" y="312" flags="0x4"/>
      <component glyphName="W" x="0" y="0" flags="0x4"/>
    </TTGlyph>
    <TTGlyph name="Wgrave" xMin="107" yMin="-14" xMax="1049" yMax="981">
      <component glyphName="W" x="0" y="0" flags="0x204"/>
      <component glyphName="grave" x="250" y="312" flags="0x4"/>
    </TTGlyph>
    <TTGlyph name="X" xMin="-21" yMin="0" xMax="766" yMax="733">
      <contour>
        <pt x="448" y="365" on="1"/>
        <pt x="624" y="0" on="1"/>
        <pt x="481" y="0" on="1"/>
        <pt x="356" y="271" on="1"/>
        <pt x="131" y="0" on="1"/>
        <pt x="-21" y="0" on="1"/>
        <pt x="298" y="367" on="1"/>
        <pt x="122" y="733" on="1"/>
        <pt x="264" y="733" on="1"/>
        <pt x="390" y="462" on="1"/>
        <pt x="615" y="733" on="1"/>
        <pt x="766" y="733" on="1"/>
      </contour>
    </TTGlyph>
    <TTGlyph name="Y" xMin="104" yMin="0" xMax="728" yMax="733">
      <contour>
        <pt x="396" y="306" on="1"/>
        <pt x="336" y="0" on="1"/>
        <pt x="212" y="0" on="1"/>
        <pt x="272" y="308" on="1"/>
        <pt x="104" y="733" on="1"/>
        <pt x="239" y="733" on="1"/>
        <pt x="357" y="421" on="1"/>
        <pt x="585" y="733" on="1"/>
        <pt x="728" y="733" on="1"/>
      </contour>
    </TTGlyph>
    <TTGlyph name="Yacute" xMin="104" yMin="0" xMax="728" yMax="974">
      <component glyphName="Y" x="0" y="0" flags="0x204"/>
      <component glyphName="acute" x="194" y="305" flags="0x4"/>
    </TTGlyph>
    <TTGlyph name="Ycircumflex" xMin="104" yMin="0" xMax="728" yMax="973">
      <component glyphName="Y" x="0" y="0" flags="0x204"/>
      <component glyphName="circumflex" x="137" y="305" flags="0x4"/>
    </TTGlyph>
    <TTGlyph name="Ydieresis" xMin="104" yMin="0" xMax="728" yMax="922">
      <component glyphName="Y" x="0" y="0" flags="0x204"/>
      <component glyphName="dieresis" x="143" y="305" flags="0x4"/>
    </TTGlyph>
    <TTGlyph name="Ygrave" xMin="104" yMin="0" xMax="728" yMax="974">
      <component glyphName="Y" x="0" y="0" flags="0x204"/>
      <component glyphName="grave" x="91" y="305" flags="0x4"/>
    </TTGlyph>
    <TTGlyph name="Z" xMin="-10" yMin="0" xMax="701" yMax="733">
      <contour>
        <pt x="211" y="114" on="1"/>
        <pt x="575" y="114" on="1"/>
        <pt x="553" y="0" on="1"/>
        <pt x="-8" y="0" on="1"/>
        <pt x="-10" y="15" on="1"/>
        <pt x="481" y="619" on="1"/>
        <pt x="134" y="619" on="1"/>
        <pt x="156" y="733" on="1"/>
        <pt x="699" y="733" on="1"/>
        <pt x="701" y="718" on="1"/>
      </contour>
    </TTGlyph>
    <TTGlyph name="Zacute" xMin="-10" yMin="0" xMax="701" yMax="981">
      <component glyphName="acute" x="194" y="312" flags="0x4"/>
      <component glyphName="Z" x="0" y="0" flags="0x4"/>
    </TTGlyph>
    <TTGlyph name="Zcaron" xMin="-10" yMin="0" xMax="701" yMax="979">
      <component glyphName="caron" x="147" y="312" flags="0x4"/>
      <component glyphName="Z" x="0" y="0" flags="0x4"/>
    </TTGlyph>
    <TTGlyph name="Zdotaccent" xMin="-10" yMin="0" xMax="701" yMax="929">
      <component glyphName="Z" x="0" y="0" flags="0x204"/>
      <component glyphName="dotaccent" x="156" y="312" flags="0x4"/>
    </TTGlyph>
    <TTGlyph name="a" xMin="11" yMin="-8" xMax="410" yMax="435">
      <contour>
        <pt x="410" y="296" on="1"/>
        <pt x="410" y="281" on="0"/>
        <pt x="406" y="246" on="0"/>
        <pt x="403" y="230" on="1"/>
        <pt x="357" y="0" on="1"/>
        <pt x="250" y="0" on="1"/>
        <pt x="257" y="37" on="1"/>
        <pt x="230" y="15" on="0"/>
        <pt x="174" y="-8" on="0"/>
        <pt x="137" y="-8" on="1"/>
        <pt x="112" y="-8" on="0"/>
        <pt x="66" y="8" on="0"/>
        <pt x="32" y="40" on="0"/>
        <pt x="11" y="85" on="0"/>
        <pt x="11" y="114" on="1"/>
        <pt x="11" y="145" on="0"/>
        <pt x="35" y="199" on="0"/>
        <pt x="78" y="238" on="0"/>
        <pt x="140" y="260" on="0"/>
        <pt x="179" y="260" on="1"/>
        <pt x="215" y="260" on="0"/>
        <pt x="270" y="242" on="0"/>
        <pt x="290" y="229" on="1"/>
        <pt x="294" y="250" on="1"/>
        <pt x="295" y="255" on="0"/>
        <pt x="298" y="273" on="0"/>
        <pt x="298" y="279" on="1"/>
        <pt x="298" y="310" on="0"/>
        <pt x="256" y="346" on="0"/>
        <pt x="215" y="346" on="1"/>
        <pt x="176" y="346" on="0"/>
        <pt x="114" y="326" on="1"/>
        <pt x="107" y="412" on="1"/>
        <pt x="139" y="422" on="0"/>
        <pt x="210" y="435" on="0"/>
        <pt x="245" y="435" on="1"/>
        <pt x="322" y="435" on="0"/>
        <pt x="410" y="368" on="0"/>
      </contour>
      <contour>
        <pt x="277" y="161" on="1"/>
        <pt x="262" y="173" on="0"/>
        <pt x="221" y="188" on="0"/>
        <pt x="195" y="188" on="1"/>
        <pt x="160" y="188" on="0"/>
        <pt x="117" y="151" on="0"/>
        <pt x="117" y="122" on="1"/>
        <pt x="117" y="97" on="0"/>
        <pt x="150" y="66" on="0"/>
        <pt x="180" y="66" on="1"/>
        <pt x="204" y="66" on="0"/>
        <pt x="246" y="87" on="0"/>
        <pt x="266" y="104" on="1"/>
      </contour>
    </TTGlyph>
    <TTGlyph name="aacute" xMin="11" yMin="-8" xMax="450" yMax="669">
      <component glyphName="a" x="0" y="0" flags="0x204"/>
      <component glyphName="acute" x="38" y="0" flags="0x4"/>
    </TTGlyph>
    <TTGlyph name="abreve" xMin="11" yMin="-8" xMax="465" yMax="653">
      <component glyphName="a" x="0" y="0" flags="0x204"/>
      <component glyphName="breve" x="-9" y="0" flags="0x4"/>
    </TTGlyph>
    <TTGlyph name="acircumflex" xMin="11" yMin="-8" xMax="440" yMax="668">
      <component glyphName="a" x="0" y="0" flags="0x204"/>
      <component glyphName="circumflex" x="-18" y="0" flags="0x4"/>
    </TTGlyph>
    <TTGlyph name="acute" xMin="180" yMin="479" xMax="412" yMax="669">
      <contour>
        <pt x="206" y="479" on="1"/>
        <pt x="180" y="534" on="1"/>
        <pt x="368" y="669" on="1"/>
        <pt x="412" y="571" on="1"/>
      </contour>
    </TTGlyph>
    <TTGlyph name="adieresis" xMin="11" yMin="-8" xMax="440" yMax="617">
      <component glyphName="a" x="0" y="0" flags="0x204"/>
      <component glyphName="dieresis" x="-12" y="0" flags="0x4"/>
    </TTGlyph>
    <TTGlyph name="ae" xMin="11" yMin="-8" xMax="695" yMax="435">
      <contour>
        <pt x="150" y="-8" on="1"/>
        <pt x="121" y="-8" on="0"/>
        <pt x="70" y="8" on="0"/>
        <pt x="33" y="40" on="0"/>
        <pt x="11" y="85" on="0"/>
        <pt x="11" y="114" on="1"/>
        <pt x="11" y="145" on="0"/>
        <pt x="35" y="199" on="0"/>
        <pt x="78" y="238" on="0"/>
        <pt x="140" y="260" on="0"/>
        <pt x="179" y="260" on="1"/>
        <pt x="214" y="260" on="0"/>
        <pt x="270" y="242" on="0"/>
        <pt x="290" y="229" on="1"/>
        <pt x="295" y="253" on="1"/>
        <pt x="296" y="259" on="0"/>
        <pt x="298" y="273" on="0"/>
        <pt x="298" y="278" on="1"/>
        <pt x="298" y="313" on="0"/>
        <pt x="255" y="347" on="0"/>
        <pt x="215" y="347" on="1"/>
        <pt x="174" y="347" on="0"/>
        <pt x="114" y="327" on="1"/>
        <pt x="106" y="410" on="1"/>
        <pt x="138" y="421" on="0"/>
        <pt x="210" y="435" on="0"/>
        <pt x="245" y="435" on="1"/>
        <pt x="293" y="435" on="0"/>
        <pt x="361" y="405" on="0"/>
        <pt x="377" y="371" on="1"/>
        <pt x="408" y="400" on="0"/>
        <pt x="483" y="435" on="0"/>
        <pt x="528" y="435" on="1"/>
        <pt x="569" y="435" on="0"/>
        <pt x="632" y="408" on="0"/>
        <pt x="674" y="362" on="0"/>
        <pt x="695" y="299" on="0"/>
        <pt x="695" y="262" on="1"/>
        <pt x="695" y="245" on="0"/>
        <pt x="688" y="204" on="0"/>
        <pt x="682" y="184" on="1"/>
        <pt x="392" y="184" on="1"/>
        <pt x="392" y="176" on="1"/>
        <pt x="394" y="125" on="0"/>
        <pt x="455" y="81" on="0"/>
        <pt x="506" y="81" on="1"/>
        <pt x="532" y="81" on="0"/>
        <pt x="581" y="90" on="0"/>
        <pt x="613" y="98" on="1"/>
        <pt x="625" y="15" on="1"/>
        <pt x="592" y="4" on="0"/>
        <pt x="530" y="-8" on="0"/>
        <pt x="484" y="-8" on="1"/>
        <pt x="427" y="-8" on="0"/>
        <pt x="340" y="29" on="0"/>
        <pt x="315" y="68" on="1"/>
        <pt x="283" y="33" on="0"/>
        <pt x="200" y="-8" on="0"/>
      </contour>
      <contour>
        <pt x="182" y="68" on="1"/>
        <pt x="217" y="68" on="0"/>
        <pt x="275" y="111" on="0"/>
        <pt x="290" y="146" on="1"/>
        <pt x="275" y="166" on="0"/>
        <pt x="223" y="188" on="0"/>
        <pt x="195" y="188" on="1"/>
        <pt x="160" y="188" on="0"/>
        <pt x="117" y="152" on="0"/>
        <pt x="117" y="124" on="1"/>
        <pt x="117" y="99" on="0"/>
        <pt x="152" y="68" on="0"/>
      </contour>
      <contour>
        <pt x="590" y="254" on="1"/>
        <pt x="591" y="259" on="0"/>
        <pt x="591" y="267" on="0"/>
        <pt x="591" y="270" on="1"/>
        <pt x="591" y="302" on="0"/>
        <pt x="554" y="346" on="0"/>
        <pt x="516" y="346" on="1"/>
        <pt x="478" y="346" on="0"/>
        <pt x="417" y="294" on="0"/>
        <pt x="402" y="254" on="1"/>
      </contour>
    </TTGlyph>
    <TTGlyph name="aeacute" xMin="11" yMin="-8" xMax="695" yMax="669">
      <component glyphName="acute" x="166" y="0" flags="0x4"/>
      <component glyphName="ae" x="0" y="0" flags="0x4"/>
    </TTGlyph>
    <TTGlyph name="agrave" xMin="11" yMin="-8" xMax="410" yMax="669">
      <component glyphName="a" x="0" y="0" flags="0x204"/>
      <component glyphName="grave" x="-64" y="0" flags="0x4"/>
    </TTGlyph>
    <TTGlyph name="amacron" xMin="11" yMin="-8" xMax="437" yMax="591">
      <component glyphName="a" x="0" y="0" flags="0x204"/>
      <component glyphName="macron" x="-11" y="0" flags="0x4"/>
    </TTGlyph>
    <TTGlyph name="ampersand" xMin="36" yMin="-16" xMax="591" yMax="598">
      <contour>
        <pt x="591" y="227" on="1"/>
        <pt x="533" y="168" on="0"/>
        <pt x="476" y="118" on="1"/>
        <pt x="493" y="99" on="0"/>
        <pt x="527" y="64" on="0"/>
        <pt x="544" y="48" on="1"/>
        <pt x="465" y="-16" on="1"/>
        <pt x="448" y="0" on="0"/>
        <pt x="413" y="36" on="0"/>
        <pt x="395" y="56" on="1"/>
        <pt x="347" y="24" on="0"/>
        <pt x="258" y="-10" on="0"/>
        <pt x="212" y="-10" on="1"/>
        <pt x="173" y="-10" on="0"/>
        <pt x="109" y="11" on="0"/>
        <pt x="62" y="51" on="0"/>
        <pt x="36" y="108" on="0"/>
        <pt x="36" y="144" on="1"/>
        <pt x="36" y="207" on="0"/>
        <pt x="123" y="302" on="0"/>
        <pt x="207" y="329" on="1"/>
        <pt x="197" y="352" on="0"/>
        <pt x="186" y="395" on="0"/>
        <pt x="186" y="419" on="1"/>
        <pt x="186" y="455" on="0"/>
        <pt x="216" y="519" on="0"/>
        <pt x="268" y="569" on="0"/>
        <pt x="338" y="598" on="0"/>
        <pt x="379" y="598" on="1"/>
        <pt x="413" y="598" on="0"/>
        <pt x="468" y="577" on="0"/>
        <pt x="506" y="542" on="0"/>
        <pt x="527" y="495" on="0"/>
        <pt x="527" y="469" on="1"/>
        <pt x="527" y="409" on="0"/>
        <pt x="437" y="318" on="0"/>
        <pt x="344" y="289" on="1"/>
        <pt x="377" y="238" on="0"/>
        <pt x="421" y="183" on="1"/>
        <pt x="448" y="206" on="0"/>
        <pt x="503" y="262" on="0"/>
        <pt x="530" y="291" on="1"/>
      </contour>
      <contour>
        <pt x="339" y="121" on="1"/>
        <pt x="311" y="156" on="0"/>
        <pt x="261" y="227" on="0"/>
        <pt x="243" y="260" on="1"/>
        <pt x="198" y="244" on="0"/>
        <pt x="151" y="190" on="0"/>
        <pt x="151" y="158" on="1"/>
        <pt x="151" y="125" on="0"/>
        <pt x="194" y="83" on="0"/>
        <pt x="236" y="83" on="1"/>
        <pt x="260" y="83" on="0"/>
        <pt x="312" y="103" on="0"/>
      </contour>
      <contour>
        <pt x="424" y="456" on="1"/>
        <pt x="424" y="479" on="0"/>
        <pt x="395" y="511" on="0"/>
        <pt x="369" y="511" on="1"/>
        <pt x="353" y="511" on="0"/>
        <pt x="325" y="497" on="0"/>
        <pt x="304" y="473" on="0"/>
        <pt x="291" y="441" on="0"/>
        <pt x="291" y="423" on="1"/>
        <pt x="291" y="404" on="0"/>
        <pt x="299" y="373" on="0"/>
        <pt x="309" y="353" on="1"/>
        <pt x="369" y="372" on="0"/>
        <pt x="424" y="423" on="0"/>
      </contour>
    </TTGlyph>
    <TTGlyph name="ampersand.cap" xMin="29" yMin="-14" xMax="715" yMax="741">
      <contour>
        <pt x="715" y="277" on="1"/>
        <pt x="680" y="241" on="0"/>
        <pt x="604" y="169" on="0"/>
        <pt x="568" y="137" on="1"/>
        <pt x="612" y="91" on="0"/>
        <pt x="650" y="58" on="1"/>
        <pt x="558" y="-14" on="1"/>
        <pt x="517" y="22" on="0"/>
        <pt x="470" y="74" on="1"/>
        <pt x="409" y="32" on="0"/>
        <pt x="299" y="-9" on="0"/>
        <pt x="243" y="-9" on="1"/>
        <pt x="196" y="-9" on="0"/>
        <pt x="117" y="17" on="0"/>
        <pt x="60" y="66" on="0"/>
        <pt x="29" y="136" on="0"/>
        <pt x="29" y="180" on="1"/>
        <pt x="29" y="262" on="0"/>
        <pt x="137" y="376" on="0"/>
        <pt x="240" y="405" on="1"/>
        <pt x="229" y="432" on="0"/>
        <pt x="215" y="485" on="0"/>
        <pt x="215" y="518" on="1"/>
        <pt x="215" y="562" on="0"/>
        <pt x="250" y="643" on="0"/>
        <pt x="311" y="704" on="0"/>
        <pt x="396" y="741" on="0"/>
        <pt x="447" y="741" on="1"/>
        <pt x="490" y="741" on="0"/>
        <pt x="559" y="715" on="0"/>
        <pt x="606" y="671" on="0"/>
        <pt x="631" y="613" on="0"/>
        <pt x="631" y="580" on="1"/>
        <pt x="631" y="502" on="0"/>
        <pt x="512" y="388" on="0"/>
        <pt x="399" y="354" on="1"/>
        <pt x="418" y="321" on="0"/>
        <pt x="470" y="248" on="0"/>
        <pt x="499" y="215" on="1"/>
        <pt x="534" y="247" on="0"/>
        <pt x="608" y="319" on="0"/>
        <pt x="641" y="354" on="1"/>
      </contour>
      <contour>
        <pt x="402" y="145" on="1"/>
        <pt x="369" y="185" on="0"/>
        <pt x="304" y="277" on="0"/>
        <pt x="278" y="323" on="1"/>
        <pt x="223" y="306" on="0"/>
        <pt x="163" y="236" on="0"/>
        <pt x="163" y="195" on="1"/>
        <pt x="163" y="153" on="0"/>
        <pt x="215" y="98" on="0"/>
        <pt x="268" y="98" on="1"/>
        <pt x="300" y="98" on="0"/>
        <pt x="370" y="122" on="0"/>
      </contour>
      <contour>
        <pt x="355" y="433" on="1"/>
        <pt x="436" y="454" on="0"/>
        <pt x="513" y="525" on="0"/>
        <pt x="513" y="567" on="1"/>
        <pt x="513" y="600" on="0"/>
        <pt x="474" y="644" on="0"/>
        <pt x="441" y="644" on="1"/>
        <pt x="418" y="644" on="0"/>
        <pt x="379" y="623" on="0"/>
        <pt x="351" y="589" on="0"/>
        <pt x="335" y="546" on="0"/>
        <pt x="335" y="523" on="1"/>
        <pt x="335" y="496" on="0"/>
        <pt x="345" y="453" on="0"/>
      </contour>
    </TTGlyph>
    <TTGlyph name="aogonek" xMin="11" yMin="-222" xMax="410" yMax="435">
      <contour>
        <pt x="342" y="-173" on="1"/>
        <pt x="318" y="-196" on="0"/>
        <pt x="264" y="-221" on="0"/>
        <pt x="230" y="-222" on="1"/>
        <pt x="193" y="-222" on="0"/>
        <pt x="154" y="-184" on="0"/>
        <pt x="154" y="-151" on="1"/>
        <pt x="154" y="-108" on="0"/>
        <pt x="208" y="-34" on="0"/>
        <pt x="250" y="2" on="1"/>
        <pt x="257" y="37" on="1"/>
        <pt x="230" y="15" on="0"/>
        <pt x="174" y="-8" on="0"/>
        <pt x="137" y="-8" on="1"/>
        <pt x="112" y="-8" on="0"/>
        <pt x="66" y="8" on="0"/>
        <pt x="32" y="40" on="0"/>
        <pt x="11" y="85" on="0"/>
        <pt x="11" y="114" on="1"/>
        <pt x="11" y="145" on="0"/>
        <pt x="35" y="199" on="0"/>
        <pt x="78" y="238" on="0"/>
        <pt x="140" y="260" on="0"/>
        <pt x="179" y="260" on="1"/>
        <pt x="215" y="260" on="0"/>
        <pt x="270" y="242" on="0"/>
        <pt x="290" y="229" on="1"/>
        <pt x="294" y="250" on="1"/>
        <pt x="295" y="255" on="0"/>
        <pt x="298" y="273" on="0"/>
        <pt x="298" y="279" on="1"/>
        <pt x="298" y="310" on="0"/>
        <pt x="256" y="346" on="0"/>
        <pt x="215" y="346" on="1"/>
        <pt x="176" y="346" on="0"/>
        <pt x="114" y="326" on="1"/>
        <pt x="107" y="412" on="1"/>
        <pt x="139" y="422" on="0"/>
        <pt x="210" y="435" on="0"/>
        <pt x="245" y="435" on="1"/>
        <pt x="322" y="435" on="0"/>
        <pt x="410" y="368" on="0"/>
        <pt x="410" y="296" on="1"/>
        <pt x="410" y="281" on="0"/>
        <pt x="406" y="246" on="0"/>
        <pt x="403" y="230" on="1"/>
        <pt x="357" y="0" on="1"/>
        <pt x="324" y="0" on="1"/>
        <pt x="313" y="-11" on="0"/>
        <pt x="284" y="-39" on="0"/>
        <pt x="258" y="-71" on="0"/>
        <pt x="240" y="-105" on="0"/>
        <pt x="240" y="-121" on="1"/>
        <pt x="240" y="-150" on="0"/>
        <pt x="268" y="-150" on="1"/>
        <pt x="280" y="-150" on="0"/>
        <pt x="303" y="-138" on="0"/>
        <pt x="317" y="-126" on="1"/>
      </contour>
      <contour>
        <pt x="277" y="161" on="1"/>
        <pt x="262" y="173" on="0"/>
        <pt x="221" y="188" on="0"/>
        <pt x="195" y="188" on="1"/>
        <pt x="160" y="188" on="0"/>
        <pt x="117" y="151" on="0"/>
        <pt x="117" y="122" on="1"/>
        <pt x="117" y="97" on="0"/>
        <pt x="150" y="66" on="0"/>
        <pt x="180" y="66" on="1"/>
        <pt x="204" y="66" on="0"/>
        <pt x="246" y="87" on="0"/>
        <pt x="266" y="104" on="1"/>
      </contour>
    </TTGlyph>
    <TTGlyph name="aring" xMin="11" yMin="-8" xMax="410" yMax="712">
      <component glyphName="a" x="0" y="0" flags="0x204"/>
      <component glyphName="ring" x="-7" y="0" flags="0x4"/>
    </TTGlyph>
    <TTGlyph name="aringacute" xMin="11" yMin="-8" xMax="513" yMax="946">
      <component glyphName="a" x="0" y="0" flags="0x204"/>
      <component glyphName="acute" x="101" y="277" flags="0x4"/>
      <component glyphName="ring" x="-7" y="0" flags="0x4"/>
    </TTGlyph>
    <TTGlyph name="arrowleft" xMin="38" yMin="1" xMax="674" yMax="488">
      <contour>
        <pt x="193" y="199" on="1"/>
        <pt x="317" y="65" on="1"/>
        <pt x="246" y="1" on="1"/>
        <pt x="38" y="238" on="1"/>
        <pt x="41" y="251" on="1"/>
        <pt x="341" y="488" on="1"/>
        <pt x="394" y="415" on="1"/>
        <pt x="225" y="290" on="1"/>
        <pt x="674" y="290" on="1"/>
        <pt x="656" y="199" on="1"/>
      </contour>
    </TTGlyph>
    <TTGlyph name="arrowleft.cap" xMin="61" yMin="127" xMax="697" yMax="614">
      <component glyphName="arrowleft" x="23" y="126" flags="0x204"/>
    </TTGlyph>
    <TTGlyph name="arrowright" xMin="47" yMin="1" xMax="683" yMax="488">
      <contour>
        <pt x="528" y="290" on="1"/>
        <pt x="404" y="424" on="1"/>
        <pt x="475" y="488" on="1"/>
        <pt x="683" y="251" on="1"/>
        <pt x="680" y="238" on="1"/>
        <pt x="380" y="1" on="1"/>
        <pt x="327" y="74" on="1"/>
        <pt x="496" y="199" on="1"/>
        <pt x="47" y="199" on="1"/>
        <pt x="65" y="290" on="1"/>
      </contour>
    </TTGlyph>
    <TTGlyph name="arrowright.cap" xMin="72" yMin="127" xMax="708" yMax="614">
      <component glyphName="arrowright" x="25" y="126" flags="0x204"/>
    </TTGlyph>
    <TTGlyph name="asciicircum" xMin="119" yMin="491" xMax="457" yMax="668">
      <contour>
        <pt x="357" y="491" on="1"/>
        <pt x="308" y="574" on="1"/>
        <pt x="227" y="491" on="1"/>
        <pt x="119" y="491" on="1"/>
        <pt x="302" y="668" on="1"/>
        <pt x="348" y="668" on="1"/>
        <pt x="457" y="491" on="1"/>
      </contour>
    </TTGlyph>
    <TTGlyph name="asciitilde" xMin="98" yMin="306" xMax="438" yMax="430">
      <contour>
        <pt x="438" y="368" on="1"/>
        <pt x="411" y="340" on="0"/>
        <pt x="351" y="306" on="0"/>
        <pt x="322" y="306" on="1"/>
        <pt x="300" y="306" on="0"/>
        <pt x="270" y="319" on="0"/>
        <pt x="254" y="327" on="1"/>
        <pt x="237" y="336" on="0"/>
        <pt x="213" y="345" on="0"/>
        <pt x="197" y="345" on="1"/>
        <pt x="178" y="345" on="0"/>
        <pt x="149" y="327" on="0"/>
        <pt x="129" y="308" on="1"/>
        <pt x="98" y="369" on="1"/>
        <pt x="124" y="396" on="0"/>
        <pt x="181" y="428" on="0"/>
        <pt x="210" y="428" on="1"/>
        <pt x="230" y="428" on="0"/>
        <pt x="261" y="416" on="0"/>
        <pt x="276" y="408" on="1"/>
        <pt x="293" y="400" on="0"/>
        <pt x="318" y="390" on="0"/>
        <pt x="333" y="390" on="1"/>
        <pt x="352" y="390" on="0"/>
        <pt x="383" y="410" on="0"/>
        <pt x="404" y="430" on="1"/>
      </contour>
    </TTGlyph>
    <TTGlyph name="asterisk" xMin="112" yMin="420" xMax="425" yMax="734">
      <contour>
        <pt x="315" y="550" on="1"/>
        <pt x="369" y="454" on="1"/>
        <pt x="296" y="420" on="1"/>
        <pt x="256" y="523" on="1"/>
        <pt x="181" y="443" on="1"/>
        <pt x="126" y="501" on="1"/>
        <pt x="212" y="570" on="1"/>
        <pt x="112" y="616" on="1"/>
        <pt x="151" y="685" on="1"/>
        <pt x="243" y="625" on="1"/>
        <pt x="257" y="734" on="1"/>
        <pt x="335" y="719" on="1"/>
        <pt x="307" y="613" on="1"/>
        <pt x="415" y="634" on="1"/>
        <pt x="425" y="555" on="1"/>
      </contour>
    </TTGlyph>
    <TTGlyph name="at" xMin="60" yMin="-12" xMax="658" yMax="591">
      <contour>
        <pt x="658" y="340" on="1"/>
        <pt x="658" y="300" on="0"/>
        <pt x="633" y="229" on="0"/>
        <pt x="591" y="175" on="0"/>
        <pt x="535" y="144" on="0"/>
        <pt x="504" y="144" on="1"/>
        <pt x="444" y="144" on="0"/>
        <pt x="425" y="189" on="1"/>
        <pt x="404" y="169" on="0"/>
        <pt x="359" y="148" on="0"/>
        <pt x="330" y="148" on="1"/>
        <pt x="285" y="148" on="0"/>
        <pt x="235" y="192" on="0"/>
        <pt x="235" y="224" on="1"/>
        <pt x="235" y="257" on="0"/>
        <pt x="285" y="310" on="0"/>
        <pt x="331" y="310" on="1"/>
        <pt x="358" y="310" on="0"/>
        <pt x="396" y="297" on="0"/>
        <pt x="410" y="288" on="1"/>
        <pt x="411" y="293" on="0"/>
        <pt x="413" y="307" on="0"/>
        <pt x="413" y="311" on="1"/>
        <pt x="413" y="358" on="0"/>
        <pt x="344" y="358" on="1"/>
        <pt x="333" y="358" on="0"/>
        <pt x="312" y="357" on="0"/>
        <pt x="294" y="354" on="1"/>
        <pt x="298" y="411" on="1"/>
        <pt x="317" y="414" on="0"/>
        <pt x="345" y="417" on="0"/>
        <pt x="360" y="417" on="1"/>
        <pt x="425" y="417" on="0"/>
        <pt x="484" y="364" on="0"/>
        <pt x="484" y="318" on="1"/>
        <pt x="484" y="313" on="0"/>
        <pt x="482" y="293" on="0"/>
        <pt x="480" y="284" on="1"/>
        <pt x="470" y="233" on="1"/>
        <pt x="466" y="215" on="0"/>
        <pt x="487" y="192" on="0"/>
        <pt x="507" y="192" on="1"/>
        <pt x="526" y="192" on="0"/>
        <pt x="559" y="214" on="0"/>
        <pt x="584" y="253" on="0"/>
        <pt x="598" y="303" on="0"/>
        <pt x="598" y="332" on="1"/>
        <pt x="598" y="375" on="0"/>
        <pt x="570" y="450" on="0"/>
        <pt x="516" y="506" on="0"/>
        <pt x="436" y="538" on="0"/>
        <pt x="384" y="538" on="1"/>
        <pt x="325" y="538" on="0"/>
        <pt x="228" y="493" on="0"/>
        <pt x="159" y="418" on="0"/>
        <pt x="121" y="318" on="0"/>
        <pt x="121" y="264" on="1"/>
        <pt x="121" y="222" on="0"/>
        <pt x="150" y="142" on="0"/>
        <pt x="211" y="79" on="0"/>
        <pt x="304" y="41" on="0"/>
        <pt x="369" y="41" on="1"/>
        <pt x="393" y="41" on="0"/>
        <pt x="434" y="46" on="0"/>
        <pt x="465" y="53" on="1"/>
        <pt x="469" y="-1" on="1"/>
        <pt x="450" y="-4" on="0"/>
        <pt x="421" y="-9" on="0"/>
        <pt x="394" y="-11" on="0"/>
        <pt x="369" y="-12" on="0"/>
        <pt x="355" y="-12" on="1"/>
        <pt x="278" y="-12" on="0"/>
        <pt x="166" y="39" on="0"/>
        <pt x="94" y="118" on="0"/>
        <pt x="60" y="212" on="0"/>
        <pt x="60" y="254" on="1"/>
        <pt x="60" y="322" on="0"/>
        <pt x="109" y="445" on="0"/>
        <pt x="195" y="537" on="0"/>
        <pt x="314" y="591" on="0"/>
        <pt x="384" y="591" on="1"/>
        <pt x="447" y="591" on="0"/>
        <pt x="549" y="552" on="0"/>
        <pt x="620" y="484" on="0"/>
        <pt x="658" y="392" on="0"/>
      </contour>
      <contour>
        <pt x="403" y="248" on="1"/>
        <pt x="391" y="255" on="0"/>
        <pt x="364" y="264" on="0"/>
        <pt x="348" y="264" on="1"/>
        <pt x="328" y="264" on="0"/>
        <pt x="305" y="243" on="0"/>
        <pt x="305" y="228" on="1"/>
        <pt x="305" y="214" on="0"/>
        <pt x="327" y="195" on="0"/>
        <pt x="347" y="195" on="1"/>
        <pt x="375" y="195" on="0"/>
        <pt x="397" y="218" on="1"/>
      </contour>
    </TTGlyph>
    <TTGlyph name="at.cap" xMin="92" yMin="-12" xMax="842" yMax="745">
      <contour>
        <pt x="608" y="-1" on="1"/>
        <pt x="575" y="-6" on="0"/>
        <pt x="512" y="-12" on="0"/>
        <pt x="485" y="-12" on="1"/>
        <pt x="404" y="-12" on="0"/>
        <pt x="260" y="36" on="0"/>
        <pt x="154" y="125" on="0"/>
        <pt x="92" y="252" on="0"/>
        <pt x="92" y="332" on="1"/>
        <pt x="92" y="417" on="0"/>
        <pt x="154" y="567" on="0"/>
        <pt x="264" y="679" on="0"/>
        <pt x="413" y="745" on="0"/>
        <pt x="500" y="745" on="1"/>
        <pt x="570" y="745" on="0"/>
        <pt x="695" y="699" on="0"/>
        <pt x="788" y="614" on="0"/>
        <pt x="842" y="494" on="0"/>
        <pt x="842" y="421" on="1"/>
        <pt x="842" y="375" on="0"/>
        <pt x="819" y="288" on="0"/>
        <pt x="771" y="220" on="0"/>
        <pt x="699" y="179" on="0"/>
        <pt x="651" y="179" on="1"/>
        <pt x="616" y="179" on="0"/>
        <pt x="559" y="209" on="0"/>
        <pt x="549" y="244" on="1"/>
        <pt x="526" y="214" on="0"/>
        <pt x="464" y="184" on="0"/>
        <pt x="427" y="184" on="1"/>
        <pt x="403" y="184" on="0"/>
        <pt x="359" y="196" on="0"/>
        <pt x="326" y="220" on="0"/>
        <pt x="307" y="255" on="0"/>
        <pt x="307" y="279" on="1"/>
        <pt x="307" y="305" on="0"/>
        <pt x="326" y="345" on="0"/>
        <pt x="359" y="373" on="0"/>
        <pt x="402" y="388" on="0"/>
        <pt x="427" y="388" on="1"/>
        <pt x="485" y="388" on="0"/>
        <pt x="531" y="359" on="1"/>
        <pt x="536" y="377" on="0"/>
        <pt x="536" y="392" on="1"/>
        <pt x="536" y="409" on="0"/>
        <pt x="520" y="431" on="0"/>
        <pt x="493" y="443" on="0"/>
        <pt x="459" y="448" on="0"/>
        <pt x="441" y="448" on="1"/>
        <pt x="426" y="448" on="0"/>
        <pt x="398" y="445" on="0"/>
        <pt x="384" y="443" on="1"/>
        <pt x="387" y="516" on="1"/>
        <pt x="406" y="518" on="0"/>
        <pt x="442" y="521" on="0"/>
        <pt x="461" y="521" on="1"/>
        <pt x="537" y="521" on="0"/>
        <pt x="621" y="464" on="0"/>
        <pt x="621" y="407" on="1"/>
        <pt x="621" y="390" on="0"/>
        <pt x="616" y="368" on="1"/>
        <pt x="602" y="303" on="1"/>
        <pt x="597" y="277" on="0"/>
        <pt x="623" y="239" on="0"/>
        <pt x="655" y="239" on="1"/>
        <pt x="687" y="239" on="0"/>
        <pt x="732" y="274" on="0"/>
        <pt x="760" y="327" on="0"/>
        <pt x="772" y="390" on="0"/>
        <pt x="772" y="419" on="1"/>
        <pt x="772" y="480" on="0"/>
        <pt x="730" y="577" on="0"/>
        <pt x="655" y="645" on="0"/>
        <pt x="553" y="681" on="0"/>
        <pt x="494" y="681" on="1"/>
        <pt x="423" y="681" on="0"/>
        <pt x="302" y="625" on="0"/>
        <pt x="213" y="529" on="0"/>
        <pt x="163" y="403" on="0"/>
        <pt x="163" y="333" on="1"/>
        <pt x="163" y="265" on="0"/>
        <pt x="216" y="160" on="0"/>
        <pt x="305" y="89" on="0"/>
        <pt x="423" y="52" on="0"/>
        <pt x="488" y="52" on="1"/>
        <pt x="516" y="52" on="0"/>
        <pt x="573" y="58" on="0"/>
        <pt x="602" y="65" on="1"/>
      </contour>
      <contour>
        <pt x="520" y="299" on="1"/>
        <pt x="492" y="327" on="0"/>
        <pt x="453" y="327" on="1"/>
        <pt x="427" y="327" on="0"/>
        <pt x="398" y="303" on="0"/>
        <pt x="398" y="283" on="1"/>
        <pt x="398" y="263" on="0"/>
        <pt x="429" y="243" on="0"/>
        <pt x="450" y="243" on="1"/>
        <pt x="470" y="243" on="0"/>
        <pt x="505" y="266" on="0"/>
        <pt x="518" y="288" on="1"/>
      </contour>
    </TTGlyph>
    <TTGlyph name="atilde" xMin="11" yMin="-8" xMax="458" yMax="624">
      <component glyphName="a" x="0" y="0" flags="0x204"/>
      <component glyphName="tilde" x="-14" y="0" flags="0x4"/>
    </TTGlyph>
    <TTGlyph name="b" xMin="15" yMin="-8" xMax="475" yMax="733">
      <contour>
        <pt x="475" y="254" on="1"/>
        <pt x="475" y="202" on="0"/>
        <pt x="440" y="107" on="0"/>
        <pt x="378" y="35" on="0"/>
        <pt x="295" y="-8" on="0"/>
        <pt x="246" y="-8" on="1"/>
        <pt x="212" y="-8" on="0"/>
        <pt x="154" y="14" on="0"/>
        <pt x="131" y="31" on="1"/>
        <pt x="125" y="0" on="1"/>
        <pt x="15" y="0" on="1"/>
        <pt x="157" y="733" on="1"/>
        <pt x="271" y="733" on="1"/>
        <pt x="206" y="401" on="1"/>
        <pt x="229" y="418" on="0"/>
        <pt x="281" y="435" on="0"/>
        <pt x="313" y="435" on="1"/>
        <pt x="350" y="435" on="0"/>
        <pt x="410" y="407" on="0"/>
        <pt x="452" y="359" on="0"/>
        <pt x="475" y="293" on="0"/>
      </contour>
      <contour>
        <pt x="362" y="245" on="1"/>
        <pt x="362" y="292" on="0"/>
        <pt x="314" y="344" on="0"/>
        <pt x="275" y="344" on="1"/>
        <pt x="252" y="344" on="0"/>
        <pt x="208" y="325" on="0"/>
        <pt x="188" y="308" on="1"/>
        <pt x="151" y="114" on="1"/>
        <pt x="168" y="99" on="0"/>
        <pt x="208" y="83" on="0"/>
        <pt x="233" y="83" on="1"/>
        <pt x="260" y="83" on="0"/>
        <pt x="307" y="106" on="0"/>
        <pt x="342" y="148" on="0"/>
        <pt x="362" y="208" on="0"/>
      </contour>
    </TTGlyph>
    <TTGlyph name="backslash" xMin="88" yMin="-216" xMax="260" yMax="733">
      <contour>
        <pt x="173" y="-216" on="1"/>
        <pt x="88" y="733" on="1"/>
        <pt x="175" y="733" on="1"/>
        <pt x="260" y="-216" on="1"/>
      </contour>
    </TTGlyph>
    <TTGlyph name="backslash.cap" xMin="119" yMin="-109" xMax="291" yMax="840">
      <component glyphName="backslash" x="31" y="107" flags="0x204"/>
    </TTGlyph>
    <TTGlyph name="bar" xMin="7" yMin="-216" xMax="278" yMax="733">
      <contour>
        <pt x="7" y="-216" on="1"/>
        <pt x="192" y="733" on="1"/>
        <pt x="278" y="733" on="1"/>
        <pt x="93" y="-216" on="1"/>
      </contour>
    </TTGlyph>
    <TTGlyph name="bar.cap" xMin="31" yMin="-109" xMax="302" yMax="840">
      <component glyphName="bar" x="24" y="107" flags="0x204"/>
    </TTGlyph>
    <TTGlyph name="braceleft" xMin="26" yMin="-223" xMax="400" yMax="741">
      <contour>
        <pt x="382" y="647" on="1"/>
        <pt x="377" y="648" on="0"/>
        <pt x="365" y="648" on="0"/>
        <pt x="364" y="648" on="1"/>
        <pt x="326" y="648" on="0"/>
        <pt x="283" y="609" on="0"/>
        <pt x="274" y="561" on="1"/>
        <pt x="237" y="371" on="1"/>
        <pt x="232" y="344" on="0"/>
        <pt x="217" y="308" on="0"/>
        <pt x="195" y="282" on="0"/>
        <pt x="164" y="265" on="0"/>
        <pt x="142" y="258" on="1"/>
        <pt x="171" y="246" on="0"/>
        <pt x="198" y="212" on="0"/>
        <pt x="198" y="185" on="1"/>
        <pt x="198" y="179" on="0"/>
        <pt x="195" y="155" on="0"/>
        <pt x="192" y="140" on="1"/>
        <pt x="158" y="-32" on="1"/>
        <pt x="156" y="-41" on="0"/>
        <pt x="154" y="-60" on="0"/>
        <pt x="154" y="-65" on="1"/>
        <pt x="154" y="-100" on="0"/>
        <pt x="193" y="-129" on="0"/>
        <pt x="232" y="-131" on="1"/>
        <pt x="215" y="-223" on="1"/>
        <pt x="136" y="-219" on="0"/>
        <pt x="57" y="-153" on="0"/>
        <pt x="57" y="-84" on="1"/>
        <pt x="57" y="-73" on="0"/>
        <pt x="61" y="-42" on="0"/>
        <pt x="64" y="-27" on="1"/>
        <pt x="98" y="150" on="1"/>
        <pt x="99" y="156" on="0"/>
        <pt x="101" y="171" on="0"/>
        <pt x="101" y="176" on="1"/>
        <pt x="101" y="197" on="0"/>
        <pt x="75" y="220" on="0"/>
        <pt x="46" y="220" on="1"/>
        <pt x="26" y="220" on="1"/>
        <pt x="42" y="301" on="1"/>
        <pt x="63" y="301" on="1"/>
        <pt x="100" y="301" on="0"/>
        <pt x="134" y="335" on="0"/>
        <pt x="140" y="369" on="1"/>
        <pt x="182" y="580" on="1"/>
        <pt x="198" y="663" on="0"/>
        <pt x="285" y="741" on="0"/>
        <pt x="364" y="741" on="1"/>
        <pt x="369" y="741" on="0"/>
        <pt x="394" y="740" on="0"/>
        <pt x="400" y="740" on="1"/>
      </contour>
    </TTGlyph>
    <TTGlyph name="braceleft.cap" xMin="47" yMin="-116" xMax="421" yMax="848">
      <component glyphName="braceleft" x="21" y="107" flags="0x204"/>
    </TTGlyph>
    <TTGlyph name="braceright" xMin="-72" yMin="-225" xMax="302" yMax="739">
      <contour>
        <pt x="-54" y="-131" on="1"/>
        <pt x="-49" y="-132" on="0"/>
        <pt x="-37" y="-132" on="0"/>
        <pt x="-36" y="-132" on="1"/>
        <pt x="2" y="-132" on="0"/>
        <pt x="45" y="-93" on="0"/>
        <pt x="54" y="-45" on="1"/>
        <pt x="91" y="145" on="1"/>
        <pt x="96" y="172" on="0"/>
        <pt x="111" y="208" on="0"/>
        <pt x="133" y="234" on="0"/>
        <pt x="164" y="250" on="0"/>
        <pt x="186" y="258" on="1"/>
        <pt x="157" y="271" on="0"/>
        <pt x="130" y="304" on="0"/>
        <pt x="130" y="332" on="1"/>
        <pt x="130" y="338" on="0"/>
        <pt x="133" y="362" on="0"/>
        <pt x="136" y="376" on="1"/>
        <pt x="170" y="548" on="1"/>
        <pt x="172" y="557" on="0"/>
        <pt x="174" y="576" on="0"/>
        <pt x="174" y="581" on="1"/>
        <pt x="174" y="616" on="0"/>
        <pt x="135" y="645" on="0"/>
        <pt x="96" y="647" on="1"/>
        <pt x="113" y="739" on="1"/>
        <pt x="192" y="735" on="0"/>
        <pt x="271" y="669" on="0"/>
        <pt x="271" y="600" on="1"/>
        <pt x="271" y="589" on="0"/>
        <pt x="267" y="558" on="0"/>
        <pt x="264" y="543" on="1"/>
        <pt x="230" y="367" on="1"/>
        <pt x="229" y="361" on="0"/>
        <pt x="227" y="346" on="0"/>
        <pt x="227" y="341" on="1"/>
        <pt x="227" y="320" on="0"/>
        <pt x="253" y="297" on="0"/>
        <pt x="282" y="297" on="1"/>
        <pt x="302" y="297" on="1"/>
        <pt x="286" y="215" on="1"/>
        <pt x="265" y="215" on="1"/>
        <pt x="228" y="215" on="0"/>
        <pt x="194" y="182" on="0"/>
        <pt x="188" y="148" on="1"/>
        <pt x="146" y="-64" on="1"/>
        <pt x="130" y="-147" on="0"/>
        <pt x="43" y="-225" on="0"/>
        <pt x="-37" y="-225" on="1"/>
        <pt x="-42" y="-225" on="0"/>
        <pt x="-67" y="-224" on="0"/>
        <pt x="-72" y="-224" on="1"/>
      </contour>
    </TTGlyph>
    <TTGlyph name="braceright.cap" xMin="-52" yMin="-118" xMax="322" yMax="846">
      <component glyphName="braceright" x="20" y="107" flags="0x204"/>
    </TTGlyph>
    <TTGlyph name="bracketleft" xMin="-5" yMin="-216" xMax="399" yMax="733">
      <contour>
        <pt x="383" y="646" on="1"/>
        <pt x="257" y="646" on="1"/>
        <pt x="106" y="-130" on="1"/>
        <pt x="232" y="-130" on="1"/>
        <pt x="215" y="-216" on="1"/>
        <pt x="-5" y="-216" on="1"/>
        <pt x="179" y="733" on="1"/>
        <pt x="399" y="733" on="1"/>
      </contour>
    </TTGlyph>
    <TTGlyph name="bracketleft.cap" xMin="15" yMin="-109" xMax="419" yMax="840">
      <component glyphName="bracketleft" x="20" y="107" flags="0x204"/>
    </TTGlyph>
    <TTGlyph name="bracketright" xMin="-61" yMin="-216" xMax="344" yMax="733">
      <contour>
        <pt x="160" y="-216" on="1"/>
        <pt x="-61" y="-216" on="1"/>
        <pt x="-44" y="-129" on="1"/>
        <pt x="82" y="-129" on="1"/>
        <pt x="233" y="647" on="1"/>
        <pt x="107" y="647" on="1"/>
        <pt x="124" y="733" on="1"/>
        <pt x="344" y="733" on="1"/>
      </contour>
    </TTGlyph>
    <TTGlyph name="bracketright.cap" xMin="-41" yMin="-109" xMax="364" yMax="840">
      <component glyphName="bracketright" x="20" y="107" flags="0x4"/>
    </TTGlyph>
    <TTGlyph name="breve" xMin="147" yMin="485" xMax="474" yMax="653">
      <contour>
        <pt x="474" y="647" on="1"/>
        <pt x="460" y="575" on="0"/>
        <pt x="372" y="485" on="0"/>
        <pt x="291" y="485" on="1"/>
        <pt x="221" y="485" on="0"/>
        <pt x="147" y="554" on="0"/>
        <pt x="147" y="610" on="1"/>
        <pt x="147" y="630" on="0"/>
        <pt x="151" y="647" on="1"/>
        <pt x="238" y="653" on="1"/>
        <pt x="236" y="646" on="0"/>
        <pt x="235" y="631" on="0"/>
        <pt x="235" y="624" on="1"/>
        <pt x="235" y="592" on="0"/>
        <pt x="267" y="558" on="0"/>
        <pt x="298" y="558" on="1"/>
        <pt x="333" y="558" on="0"/>
        <pt x="378" y="603" on="0"/>
        <pt x="388" y="653" on="1"/>
      </contour>
    </TTGlyph>
    <TTGlyph name="bullet" xMin="83" yMin="202" xMax="406" yMax="531">
      <contour>
        <pt x="406" y="366" on="1"/>
        <pt x="406" y="332" on="0"/>
        <pt x="381" y="272" on="0"/>
        <pt x="337" y="228" on="0"/>
        <pt x="278" y="202" on="0"/>
        <pt x="245" y="202" on="1"/>
        <pt x="211" y="202" on="0"/>
        <pt x="152" y="228" on="0"/>
        <pt x="108" y="272" on="0"/>
        <pt x="83" y="332" on="0"/>
        <pt x="83" y="366" on="1"/>
        <pt x="83" y="400" on="0"/>
        <pt x="108" y="461" on="0"/>
        <pt x="152" y="505" on="0"/>
        <pt x="211" y="531" on="0"/>
        <pt x="245" y="531" on="1"/>
        <pt x="278" y="531" on="0"/>
        <pt x="337" y="505" on="0"/>
        <pt x="381" y="461" on="0"/>
        <pt x="406" y="400" on="0"/>
      </contour>
    </TTGlyph>
    <TTGlyph name="c" xMin="36" yMin="-8" xMax="433" yMax="435">
      <contour>
        <pt x="382" y="310" on="1"/>
        <pt x="359" y="325" on="0"/>
        <pt x="311" y="343" on="0"/>
        <pt x="281" y="343" on="1"/>
        <pt x="252" y="343" on="0"/>
        <pt x="204" y="319" on="0"/>
        <pt x="168" y="278" on="0"/>
        <pt x="148" y="223" on="0"/>
        <pt x="148" y="192" on="1"/>
        <pt x="148" y="164" on="0"/>
        <pt x="166" y="124" on="0"/>
        <pt x="197" y="97" on="0"/>
        <pt x="238" y="84" on="0"/>
        <pt x="260" y="84" on="1"/>
        <pt x="305" y="84" on="0"/>
        <pt x="348" y="104" on="1"/>
        <pt x="367" y="21" on="1"/>
        <pt x="337" y="7" on="0"/>
        <pt x="275" y="-8" on="0"/>
        <pt x="236" y="-8" on="1"/>
        <pt x="195" y="-8" on="0"/>
        <pt x="123" y="17" on="0"/>
        <pt x="68" y="65" on="0"/>
        <pt x="36" y="137" on="0"/>
        <pt x="36" y="184" on="1"/>
        <pt x="36" y="232" on="0"/>
        <pt x="72" y="322" on="0"/>
        <pt x="138" y="393" on="0"/>
        <pt x="230" y="435" on="0"/>
        <pt x="287" y="435" on="1"/>
        <pt x="333" y="435" on="0"/>
        <pt x="404" y="409" on="0"/>
        <pt x="433" y="389" on="1"/>
      </contour>
    </TTGlyph>
    <TTGlyph name="cacute" xMin="36" yMin="-8" xMax="469" yMax="669">
      <component glyphName="acute" x="57" y="0" flags="0x4"/>
      <component glyphName="c" x="0" y="0" flags="0x4"/>
    </TTGlyph>
    <TTGlyph name="caron" xMin="150" yMin="490" xMax="488" yMax="667">
      <contour>
        <pt x="305" y="490" on="1"/>
        <pt x="260" y="490" on="1"/>
        <pt x="150" y="667" on="1"/>
        <pt x="251" y="667" on="1"/>
        <pt x="300" y="584" on="1"/>
        <pt x="380" y="667" on="1"/>
        <pt x="488" y="667" on="1"/>
      </contour>
    </TTGlyph>
    <TTGlyph name="caron.alt" xMin="23" yMin="527" xMax="203" yMax="741">
      <contour>
        <pt x="203" y="720" on="1"/>
        <pt x="192" y="654" on="0"/>
        <pt x="120" y="557" on="0"/>
        <pt x="69" y="527" on="1"/>
        <pt x="23" y="564" on="1"/>
        <pt x="59" y="596" on="0"/>
        <pt x="103" y="681" on="0"/>
        <pt x="115" y="741" on="1"/>
      </contour>
    </TTGlyph>
    <TTGlyph name="ccaron" xMin="36" yMin="-8" xMax="498" yMax="667">
      <component glyphName="caron" x="10" y="0" flags="0x4"/>
      <component glyphName="c" x="0" y="0" flags="0x4"/>
    </TTGlyph>
    <TTGlyph name="ccedilla" xMin="36" yMin="-254" xMax="433" yMax="435">
      <contour>
        <pt x="289" y="-147" on="1"/>
        <pt x="289" y="-192" on="0"/>
        <pt x="223" y="-254" on="0"/>
        <pt x="167" y="-254" on="1"/>
        <pt x="132" y="-254" on="0"/>
        <pt x="70" y="-233" on="0"/>
        <pt x="41" y="-213" on="1"/>
        <pt x="79" y="-154" on="1"/>
        <pt x="127" y="-188" on="0"/>
        <pt x="169" y="-188" on="1"/>
        <pt x="186" y="-188" on="0"/>
        <pt x="212" y="-170" on="0"/>
        <pt x="212" y="-152" on="1"/>
        <pt x="212" y="-138" on="0"/>
        <pt x="175" y="-111" on="0"/>
        <pt x="125" y="-108" on="1"/>
        <pt x="121" y="-99" on="1"/>
        <pt x="168" y="1" on="1"/>
        <pt x="111" y="18" on="0"/>
        <pt x="36" y="109" on="0"/>
        <pt x="36" y="184" on="1"/>
        <pt x="36" y="232" on="0"/>
        <pt x="72" y="322" on="0"/>
        <pt x="138" y="393" on="0"/>
        <pt x="230" y="435" on="0"/>
        <pt x="287" y="435" on="1"/>
        <pt x="333" y="435" on="0"/>
        <pt x="404" y="409" on="0"/>
        <pt x="433" y="389" on="1"/>
        <pt x="382" y="310" on="1"/>
        <pt x="359" y="325" on="0"/>
        <pt x="311" y="343" on="0"/>
        <pt x="281" y="343" on="1"/>
        <pt x="252" y="343" on="0"/>
        <pt x="204" y="319" on="0"/>
        <pt x="168" y="278" on="0"/>
        <pt x="148" y="223" on="0"/>
        <pt x="148" y="192" on="1"/>
        <pt x="148" y="164" on="0"/>
        <pt x="166" y="124" on="0"/>
        <pt x="197" y="97" on="0"/>
        <pt x="238" y="84" on="0"/>
        <pt x="260" y="84" on="1"/>
        <pt x="305" y="84" on="0"/>
        <pt x="348" y="104" on="1"/>
        <pt x="367" y="21" on="1"/>
        <pt x="337" y="7" on="0"/>
        <pt x="275" y="-8" on="0"/>
        <pt x="236" y="-8" on="1"/>
        <pt x="231" y="-8" on="0"/>
        <pt x="223" y="-8" on="0"/>
        <pt x="218" y="-7" on="1"/>
        <pt x="198" y="-56" on="1"/>
        <pt x="241" y="-67" on="0"/>
        <pt x="289" y="-112" on="0"/>
      </contour>
    </TTGlyph>
    <TTGlyph name="cdotaccent" xMin="36" yMin="-8" xMax="433" yMax="617">
      <component glyphName="c" x="0" y="0" flags="0x204"/>
      <component glyphName="dotaccent" x="18" y="0" flags="0x4"/>
    </TTGlyph>
    <TTGlyph name="cedilla" xMin="40" yMin="-254" xMax="288" yMax="17">
      <contour>
        <pt x="288" y="-147" on="1"/>
        <pt x="288" y="-192" on="0"/>
        <pt x="222" y="-254" on="0"/>
        <pt x="166" y="-254" on="1"/>
        <pt x="131" y="-254" on="0"/>
        <pt x="69" y="-233" on="0"/>
        <pt x="40" y="-213" on="1"/>
        <pt x="78" y="-154" on="1"/>
        <pt x="126" y="-188" on="0"/>
        <pt x="168" y="-188" on="1"/>
        <pt x="185" y="-188" on="0"/>
        <pt x="211" y="-170" on="0"/>
        <pt x="211" y="-152" on="1"/>
        <pt x="211" y="-138" on="0"/>
        <pt x="174" y="-111" on="0"/>
        <pt x="124" y="-108" on="1"/>
        <pt x="120" y="-99" on="1"/>
        <pt x="175" y="17" on="1"/>
        <pt x="222" y="4" on="1"/>
        <pt x="197" y="-56" on="1"/>
        <pt x="240" y="-67" on="0"/>
        <pt x="288" y="-112" on="0"/>
      </contour>
    </TTGlyph>
    <TTGlyph name="cent" xMin="36" yMin="-83" xMax="433" yMax="509">
      <contour>
        <pt x="344" y="429" on="1"/>
        <pt x="371" y="423" on="0"/>
        <pt x="416" y="401" on="0"/>
        <pt x="433" y="389" on="1"/>
        <pt x="383" y="309" on="1"/>
        <pt x="368" y="319" on="0"/>
        <pt x="337" y="334" on="0"/>
        <pt x="320" y="338" on="1"/>
        <pt x="252" y="84" on="1"/>
        <pt x="257" y="84" on="1"/>
        <pt x="280" y="84" on="0"/>
        <pt x="326" y="95" on="0"/>
        <pt x="348" y="105" on="1"/>
        <pt x="367" y="21" on="1"/>
        <pt x="337" y="7" on="0"/>
        <pt x="275" y="-8" on="0"/>
        <pt x="236" y="-8" on="1"/>
        <pt x="228" y="-8" on="1"/>
        <pt x="209" y="-83" on="1"/>
        <pt x="140" y="-80" on="1"/>
        <pt x="162" y="3" on="1"/>
        <pt x="107" y="21" on="0"/>
        <pt x="36" y="111" on="0"/>
        <pt x="36" y="184" on="1"/>
        <pt x="36" y="231" on="0"/>
        <pt x="70" y="320" on="0"/>
        <pt x="132" y="389" on="0"/>
        <pt x="221" y="432" on="0"/>
        <pt x="275" y="435" on="1"/>
        <pt x="295" y="509" on="1"/>
        <pt x="364" y="506" on="1"/>
      </contour>
      <contour>
        <pt x="144" y="187" on="1"/>
        <pt x="144" y="155" on="0"/>
        <pt x="168" y="113" on="0"/>
        <pt x="188" y="102" on="1"/>
        <pt x="250" y="340" on="1"/>
        <pt x="225" y="334" on="0"/>
        <pt x="186" y="306" on="0"/>
        <pt x="159" y="265" on="0"/>
        <pt x="144" y="215" on="0"/>
      </contour>
    </TTGlyph>
    <TTGlyph name="cent.lin" xMin="69" yMin="75" xMax="466" yMax="667">
      <component glyphName="cent" x="33" y="158" flags="0x4"/>
    </TTGlyph>
    <TTGlyph name="circumflex" xMin="120" yMin="491" xMax="458" yMax="668">
      <contour>
        <pt x="358" y="491" on="1"/>
        <pt x="309" y="574" on="1"/>
        <pt x="228" y="491" on="1"/>
        <pt x="120" y="491" on="1"/>
        <pt x="303" y="668" on="1"/>
        <pt x="349" y="668" on="1"/>
        <pt x="458" y="491" on="1"/>
      </contour>
    </TTGlyph>
    <TTGlyph name="colon" xMin="30" yMin="-8" xMax="209" yMax="386">
      <contour>
        <pt x="209" y="322" on="1"/>
        <pt x="209" y="295" on="0"/>
        <pt x="172" y="258" on="0"/>
        <pt x="145" y="258" on="1"/>
        <pt x="119" y="258" on="0"/>
        <pt x="81" y="295" on="0"/>
        <pt x="81" y="322" on="1"/>
        <pt x="81" y="348" on="0"/>
        <pt x="119" y="386" on="0"/>
        <pt x="145" y="386" on="1"/>
        <pt x="172" y="386" on="0"/>
        <pt x="209" y="348" on="0"/>
      </contour>
      <contour>
        <pt x="158" y="56" on="1"/>
        <pt x="158" y="30" on="0"/>
        <pt x="120" y="-8" on="0"/>
        <pt x="94" y="-8" on="1"/>
        <pt x="68" y="-8" on="0"/>
        <pt x="30" y="30" on="0"/>
        <pt x="30" y="56" on="1"/>
        <pt x="30" y="83" on="0"/>
        <pt x="68" y="120" on="0"/>
        <pt x="94" y="120" on="1"/>
        <pt x="120" y="120" on="0"/>
        <pt x="158" y="83" on="0"/>
      </contour>
    </TTGlyph>
    <TTGlyph name="comma" xMin="-9" yMin="-132" xMax="158" yMax="118">
      <contour>
        <pt x="158" y="48" on="1"/>
        <pt x="158" y="21" on="0"/>
        <pt x="132" y="-31" on="0"/>
        <pt x="89" y="-77" on="0"/>
        <pt x="33" y="-117" on="0"/>
        <pt x="2" y="-132" on="1"/>
        <pt x="-9" y="-113" on="1"/>
        <pt x="30" y="-84" on="0"/>
        <pt x="70" y="-37" on="0"/>
        <pt x="83" y="-11" on="1"/>
        <pt x="59" y="-4" on="0"/>
        <pt x="30" y="30" on="0"/>
        <pt x="30" y="53" on="1"/>
        <pt x="30" y="80" on="0"/>
        <pt x="69" y="118" on="0"/>
        <pt x="95" y="118" on="1"/>
        <pt x="123" y="118" on="0"/>
        <pt x="158" y="79" on="0"/>
      </contour>
    </TTGlyph>
    <TTGlyph name="commaaccent" xMin="25" yMin="-322" xMax="192" yMax="-73">
      <contour>
        <pt x="192" y="-143" on="1"/>
        <pt x="192" y="-170" on="0"/>
        <pt x="166" y="-221" on="0"/>
        <pt x="123" y="-267" on="0"/>
        <pt x="67" y="-307" on="0"/>
        <pt x="36" y="-322" on="1"/>
        <pt x="25" y="-303" on="1"/>
        <pt x="64" y="-274" on="0"/>
        <pt x="104" y="-228" on="0"/>
        <pt x="117" y="-201" on="1"/>
        <pt x="93" y="-194" on="0"/>
        <pt x="64" y="-161" on="0"/>
        <pt x="64" y="-138" on="1"/>
        <pt x="64" y="-111" on="0"/>
        <pt x="103" y="-73" on="0"/>
        <pt x="129" y="-73" on="1"/>
        <pt x="157" y="-73" on="0"/>
        <pt x="192" y="-112" on="0"/>
      </contour>
    </TTGlyph>
    <TTGlyph name="copyright" xMin="78" yMin="-13" xMax="832" yMax="746">
      <contour>
        <pt x="568" y="206" on="1"/>
        <pt x="540" y="191" on="0"/>
        <pt x="479" y="175" on="0"/>
        <pt x="442" y="175" on="1"/>
        <pt x="405" y="175" on="0"/>
        <pt x="341" y="197" on="0"/>
        <pt x="294" y="239" on="0"/>
        <pt x="268" y="301" on="0"/>
        <pt x="268" y="341" on="1"/>
        <pt x="268" y="384" on="0"/>
        <pt x="303" y="463" on="0"/>
        <pt x="363" y="523" on="0"/>
        <pt x="446" y="559" on="0"/>
        <pt x="494" y="559" on="1"/>
        <pt x="537" y="559" on="0"/>
        <pt x="601" y="537" on="0"/>
        <pt x="626" y="519" on="1"/>
        <pt x="590" y="457" on="1"/>
        <pt x="570" y="471" on="0"/>
        <pt x="522" y="489" on="0"/>
        <pt x="493" y="489" on="1"/>
        <pt x="462" y="489" on="0"/>
        <pt x="410" y="467" on="0"/>
        <pt x="372" y="429" on="0"/>
        <pt x="350" y="377" on="0"/>
        <pt x="350" y="347" on="1"/>
        <pt x="350" y="298" on="0"/>
        <pt x="408" y="245" on="0"/>
        <pt x="459" y="245" on="1"/>
        <pt x="507" y="245" on="0"/>
        <pt x="553" y="271" on="1"/>
      </contour>
      <contour>
        <pt x="769" y="415" on="1"/>
        <pt x="769" y="478" on="0"/>
        <pt x="729" y="580" on="0"/>
        <pt x="657" y="653" on="0"/>
        <pt x="558" y="692" on="0"/>
        <pt x="499" y="692" on="1"/>
        <pt x="422" y="692" on="0"/>
        <pt x="291" y="632" on="0"/>
        <pt x="195" y="529" on="0"/>
        <pt x="141" y="393" on="0"/>
        <pt x="141" y="318" on="1"/>
        <pt x="141" y="255" on="0"/>
        <pt x="181" y="153" on="0"/>
        <pt x="253" y="81" on="0"/>
        <pt x="352" y="41" on="0"/>
        <pt x="411" y="41" on="1"/>
        <pt x="487" y="41" on="0"/>
        <pt x="618" y="102" on="0"/>
        <pt x="714" y="205" on="0"/>
        <pt x="769" y="340" on="0"/>
      </contour>
      <contour>
        <pt x="832" y="416" on="1"/>
        <pt x="832" y="334" on="0"/>
        <pt x="769" y="179" on="0"/>
        <pt x="656" y="59" on="0"/>
        <pt x="501" y="-13" on="0"/>
        <pt x="408" y="-13" on="1"/>
        <pt x="335" y="-13" on="0"/>
        <pt x="213" y="36" on="0"/>
        <pt x="126" y="124" on="0"/>
        <pt x="78" y="244" on="0"/>
        <pt x="78" y="316" on="1"/>
        <pt x="78" y="399" on="0"/>
        <pt x="141" y="554" on="0"/>
        <pt x="254" y="674" on="0"/>
        <pt x="410" y="746" on="0"/>
        <pt x="502" y="746" on="1"/>
        <pt x="575" y="746" on="0"/>
        <pt x="697" y="697" on="0"/>
        <pt x="784" y="610" on="0"/>
        <pt x="832" y="488" on="0"/>
      </contour>
    </TTGlyph>
    <TTGlyph name="d" xMin="34" yMin="-8" xMax="553" yMax="733">
      <contour>
        <pt x="411" y="0" on="1"/>
        <pt x="302" y="0" on="1"/>
        <pt x="308" y="32" on="1"/>
        <pt x="283" y="14" on="0"/>
        <pt x="229" y="-8" on="0"/>
        <pt x="197" y="-8" on="1"/>
        <pt x="164" y="-8" on="0"/>
        <pt x="104" y="19" on="0"/>
        <pt x="60" y="68" on="0"/>
        <pt x="34" y="135" on="0"/>
        <pt x="34" y="176" on="1"/>
        <pt x="34" y="228" on="0"/>
        <pt x="69" y="322" on="0"/>
        <pt x="131" y="393" on="0"/>
        <pt x="216" y="435" on="0"/>
        <pt x="267" y="435" on="1"/>
        <pt x="299" y="435" on="0"/>
        <pt x="354" y="416" on="0"/>
        <pt x="376" y="402" on="1"/>
        <pt x="439" y="733" on="1"/>
        <pt x="553" y="733" on="1"/>
      </contour>
      <contour>
        <pt x="359" y="314" on="1"/>
        <pt x="342" y="328" on="0"/>
        <pt x="301" y="345" on="0"/>
        <pt x="275" y="345" on="1"/>
        <pt x="248" y="345" on="0"/>
        <pt x="202" y="323" on="0"/>
        <pt x="167" y="282" on="0"/>
        <pt x="147" y="223" on="0"/>
        <pt x="147" y="187" on="1"/>
        <pt x="147" y="136" on="0"/>
        <pt x="196" y="84" on="0"/>
        <pt x="236" y="84" on="1"/>
        <pt x="261" y="84" on="0"/>
        <pt x="300" y="99" on="0"/>
        <pt x="320" y="116" on="1"/>
      </contour>
    </TTGlyph>
    <TTGlyph name="dagger" xMin="83" yMin="147" xMax="478" yMax="733">
      <contour>
        <pt x="459" y="474" on="1"/>
        <pt x="325" y="474" on="1"/>
        <pt x="262" y="147" on="1"/>
        <pt x="159" y="147" on="1"/>
        <pt x="222" y="474" on="1"/>
        <pt x="83" y="474" on="1"/>
        <pt x="102" y="569" on="1"/>
        <pt x="240" y="569" on="1"/>
        <pt x="272" y="733" on="1"/>
        <pt x="375" y="733" on="1"/>
        <pt x="343" y="569" on="1"/>
        <pt x="478" y="569" on="1"/>
      </contour>
    </TTGlyph>
    <TTGlyph name="daggerdbl" xMin="51" yMin="147" xMax="483" yMax="733">
      <contour>
        <pt x="465" y="502" on="1"/>
        <pt x="330" y="502" on="1"/>
        <pt x="306" y="379" on="1"/>
        <pt x="446" y="379" on="1"/>
        <pt x="427" y="283" on="1"/>
        <pt x="288" y="283" on="1"/>
        <pt x="261" y="147" on="1"/>
        <pt x="159" y="147" on="1"/>
        <pt x="185" y="283" on="1"/>
        <pt x="51" y="283" on="1"/>
        <pt x="70" y="379" on="1"/>
        <pt x="204" y="379" on="1"/>
        <pt x="228" y="502" on="1"/>
        <pt x="88" y="502" on="1"/>
        <pt x="107" y="597" on="1"/>
        <pt x="246" y="597" on="1"/>
        <pt x="273" y="733" on="1"/>
        <pt x="375" y="733" on="1"/>
        <pt x="349" y="597" on="1"/>
        <pt x="483" y="597" on="1"/>
      </contour>
    </TTGlyph>
    <TTGlyph name="dcaron" xMin="34" yMin="-8" xMax="735" yMax="734">
      <component glyphName="caron.alt" x="532" y="-7" flags="0x4"/>
      <component glyphName="d" x="0" y="0" flags="0x4"/>
    </TTGlyph>
    <TTGlyph name="dcroat" xMin="34" yMin="-8" xMax="590" yMax="733">
      <contour>
        <pt x="533" y="633" on="1"/>
        <pt x="590" y="633" on="1"/>
        <pt x="573" y="548" on="1"/>
        <pt x="517" y="548" on="1"/>
        <pt x="411" y="0" on="1"/>
        <pt x="302" y="0" on="1"/>
        <pt x="308" y="32" on="1"/>
        <pt x="283" y="14" on="0"/>
        <pt x="229" y="-8" on="0"/>
        <pt x="197" y="-8" on="1"/>
        <pt x="164" y="-8" on="0"/>
        <pt x="104" y="19" on="0"/>
        <pt x="60" y="68" on="0"/>
        <pt x="34" y="135" on="0"/>
        <pt x="34" y="176" on="1"/>
        <pt x="34" y="228" on="0"/>
        <pt x="69" y="322" on="0"/>
        <pt x="131" y="393" on="0"/>
        <pt x="216" y="435" on="0"/>
        <pt x="267" y="435" on="1"/>
        <pt x="299" y="435" on="0"/>
        <pt x="354" y="416" on="0"/>
        <pt x="376" y="402" on="1"/>
        <pt x="404" y="548" on="1"/>
        <pt x="264" y="548" on="1"/>
        <pt x="281" y="633" on="1"/>
        <pt x="420" y="633" on="1"/>
        <pt x="439" y="733" on="1"/>
        <pt x="553" y="733" on="1"/>
      </contour>
      <contour>
        <pt x="359" y="314" on="1"/>
        <pt x="342" y="328" on="0"/>
        <pt x="301" y="345" on="0"/>
        <pt x="275" y="345" on="1"/>
        <pt x="248" y="345" on="0"/>
        <pt x="202" y="323" on="0"/>
        <pt x="167" y="282" on="0"/>
        <pt x="147" y="223" on="0"/>
        <pt x="147" y="187" on="1"/>
        <pt x="147" y="136" on="0"/>
        <pt x="196" y="84" on="0"/>
        <pt x="236" y="84" on="1"/>
        <pt x="261" y="84" on="0"/>
        <pt x="300" y="99" on="0"/>
        <pt x="320" y="116" on="1"/>
      </contour>
    </TTGlyph>
    <TTGlyph name="degree" xMin="131" yMin="477" xMax="345" yMax="691">
      <contour>
        <pt x="345" y="602" on="1"/>
        <pt x="345" y="579" on="0"/>
        <pt x="328" y="534" on="0"/>
        <pt x="296" y="499" on="0"/>
        <pt x="250" y="477" on="0"/>
        <pt x="222" y="477" on="1"/>
        <pt x="183" y="477" on="0"/>
        <pt x="131" y="528" on="0"/>
        <pt x="131" y="566" on="1"/>
        <pt x="131" y="589" on="0"/>
        <pt x="149" y="634" on="0"/>
        <pt x="181" y="669" on="0"/>
        <pt x="226" y="691" on="0"/>
        <pt x="254" y="691" on="1"/>
        <pt x="294" y="691" on="0"/>
        <pt x="345" y="640" on="0"/>
      </contour>
      <contour>
        <pt x="281" y="595" on="1"/>
        <pt x="281" y="614" on="0"/>
        <pt x="262" y="636" on="0"/>
        <pt x="246" y="636" on="1"/>
        <pt x="226" y="636" on="0"/>
        <pt x="195" y="601" on="0"/>
        <pt x="195" y="573" on="1"/>
        <pt x="195" y="554" on="0"/>
        <pt x="214" y="532" on="0"/>
        <pt x="230" y="532" on="1"/>
        <pt x="250" y="532" on="0"/>
        <pt x="281" y="566" on="0"/>
      </contour>
    </TTGlyph>
    <TTGlyph name="degree.lin" xMin="133" yMin="473" xMax="401" yMax="745">
      <contour>
        <pt x="401" y="632" on="1"/>
        <pt x="401" y="603" on="0"/>
        <pt x="379" y="546" on="0"/>
        <pt x="339" y="501" on="0"/>
        <pt x="282" y="473" on="0"/>
        <pt x="247" y="473" on="1"/>
        <pt x="196" y="473" on="0"/>
        <pt x="133" y="538" on="0"/>
        <pt x="133" y="586" on="1"/>
        <pt x="133" y="616" on="0"/>
        <pt x="155" y="673" on="0"/>
        <pt x="195" y="718" on="0"/>
        <pt x="253" y="745" on="0"/>
        <pt x="288" y="745" on="1"/>
        <pt x="313" y="745" on="0"/>
        <pt x="354" y="728" on="0"/>
        <pt x="384" y="697" on="0"/>
        <pt x="401" y="656" on="0"/>
      </contour>
      <contour>
        <pt x="326" y="626" on="1"/>
        <pt x="326" y="651" on="0"/>
        <pt x="301" y="681" on="0"/>
        <pt x="278" y="681" on="1"/>
        <pt x="250" y="681" on="0"/>
        <pt x="208" y="629" on="0"/>
        <pt x="208" y="593" on="1"/>
        <pt x="208" y="568" on="0"/>
        <pt x="234" y="538" on="0"/>
        <pt x="257" y="538" on="1"/>
        <pt x="284" y="538" on="0"/>
        <pt x="326" y="589" on="0"/>
      </contour>
    </TTGlyph>
    <TTGlyph name="dieresis" xMin="148" yMin="494" xMax="452" yMax="617">
      <contour>
        <pt x="270" y="555" on="1"/>
        <pt x="270" y="530" on="0"/>
        <pt x="234" y="494" on="0"/>
        <pt x="208" y="494" on="1"/>
        <pt x="183" y="494" on="0"/>
        <pt x="148" y="530" on="0"/>
        <pt x="148" y="555" on="1"/>
        <pt x="148" y="581" on="0"/>
        <pt x="183" y="617" on="0"/>
        <pt x="208" y="617" on="1"/>
        <pt x="234" y="617" on="0"/>
        <pt x="270" y="581" on="0"/>
      </contour>
      <contour>
        <pt x="452" y="555" on="1"/>
        <pt x="452" y="530" on="0"/>
        <pt x="417" y="494" on="0"/>
        <pt x="391" y="494" on="1"/>
        <pt x="366" y="494" on="0"/>
        <pt x="330" y="530" on="0"/>
        <pt x="330" y="555" on="1"/>
        <pt x="330" y="581" on="0"/>
        <pt x="366" y="617" on="0"/>
        <pt x="391" y="617" on="1"/>
        <pt x="417" y="617" on="0"/>
        <pt x="452" y="581" on="0"/>
      </contour>
    </TTGlyph>
    <TTGlyph name="divide" xMin="56" yMin="87" xMax="411" yMax="488">
      <contour>
        <pt x="264" y="146" on="1"/>
        <pt x="264" y="122" on="0"/>
        <pt x="230" y="87" on="0"/>
        <pt x="205" y="87" on="1"/>
        <pt x="180" y="87" on="0"/>
        <pt x="146" y="122" on="0"/>
        <pt x="146" y="146" on="1"/>
        <pt x="146" y="171" on="0"/>
        <pt x="180" y="206" on="0"/>
        <pt x="205" y="206" on="1"/>
        <pt x="230" y="206" on="0"/>
        <pt x="264" y="171" on="0"/>
      </contour>
      <contour>
        <pt x="72" y="330" on="1"/>
        <pt x="411" y="330" on="1"/>
        <pt x="395" y="246" on="1"/>
        <pt x="56" y="246" on="1"/>
      </contour>
      <contour>
        <pt x="320" y="429" on="1"/>
        <pt x="320" y="404" on="0"/>
        <pt x="286" y="370" on="0"/>
        <pt x="261" y="370" on="1"/>
        <pt x="236" y="370" on="0"/>
        <pt x="202" y="404" on="0"/>
        <pt x="202" y="429" on="1"/>
        <pt x="202" y="453" on="0"/>
        <pt x="236" y="488" on="0"/>
        <pt x="261" y="488" on="1"/>
        <pt x="286" y="488" on="0"/>
        <pt x="320" y="453" on="0"/>
      </contour>
    </TTGlyph>
    <TTGlyph name="divide.lin" xMin="92" yMin="170" xMax="447" yMax="571">
      <component glyphName="divide" x="36" y="83" flags="0x4"/>
    </TTGlyph>
    <TTGlyph name="dollar" xMin="5" yMin="-82" xMax="479" yMax="665">
      <contour>
        <pt x="373" y="585" on="1"/>
        <pt x="407" y="577" on="0"/>
        <pt x="459" y="550" on="0"/>
        <pt x="479" y="536" on="1"/>
        <pt x="427" y="446" on="1"/>
        <pt x="408" y="459" on="0"/>
        <pt x="368" y="481" on="0"/>
        <pt x="347" y="489" on="1"/>
        <pt x="305" y="331" on="1"/>
        <pt x="369" y="293" on="0"/>
        <pt x="425" y="224" on="0"/>
        <pt x="425" y="174" on="1"/>
        <pt x="425" y="131" on="0"/>
        <pt x="392" y="63" on="0"/>
        <pt x="336" y="15" on="0"/>
        <pt x="262" y="-10" on="0"/>
        <pt x="221" y="-10" on="1"/>
        <pt x="213" y="-10" on="1"/>
        <pt x="194" y="-82" on="1"/>
        <pt x="128" y="-79" on="1"/>
        <pt x="148" y="-2" on="1"/>
        <pt x="106" y="7" on="0"/>
        <pt x="36" y="45" on="0"/>
        <pt x="5" y="68" on="1"/>
        <pt x="61" y="155" on="1"/>
        <pt x="86" y="135" on="0"/>
        <pt x="144" y="102" on="0"/>
        <pt x="174" y="94" on="1"/>
        <pt x="219" y="261" on="1"/>
        <pt x="188" y="279" on="0"/>
        <pt x="143" y="313" on="0"/>
        <pt x="114" y="349" on="0"/>
        <pt x="100" y="390" on="0"/>
        <pt x="100" y="416" on="1"/>
        <pt x="100" y="453" on="0"/>
        <pt x="131" y="518" on="0"/>
        <pt x="185" y="566" on="0"/>
        <pt x="259" y="594" on="0"/>
        <pt x="303" y="594" on="1"/>
        <pt x="308" y="594" on="1"/>
        <pt x="327" y="665" on="1"/>
        <pt x="394" y="663" on="1"/>
      </contour>
      <contour>
        <pt x="316" y="163" on="1"/>
        <pt x="316" y="180" on="0"/>
        <pt x="298" y="211" on="0"/>
        <pt x="275" y="228" on="1"/>
        <pt x="238" y="87" on="1"/>
        <pt x="272" y="90" on="0"/>
        <pt x="316" y="128" on="0"/>
      </contour>
      <contour>
        <pt x="208" y="427" on="1"/>
        <pt x="208" y="392" on="0"/>
        <pt x="248" y="365" on="1"/>
        <pt x="283" y="499" on="1"/>
        <pt x="246" y="497" on="0"/>
        <pt x="208" y="456" on="0"/>
      </contour>
    </TTGlyph>
    <TTGlyph name="dollar.lin" xMin="7" yMin="-101" xMax="553" yMax="833">
      <contour>
        <pt x="432" y="735" on="1"/>
        <pt x="467" y="727" on="0"/>
        <pt x="527" y="698" on="0"/>
        <pt x="553" y="680" on="1"/>
        <pt x="499" y="575" on="1"/>
        <pt x="455" y="610" on="0"/>
        <pt x="403" y="626" on="1"/>
        <pt x="347" y="416" on="1"/>
        <pt x="379" y="396" on="0"/>
        <pt x="434" y="355" on="0"/>
        <pt x="474" y="308" on="0"/>
        <pt x="496" y="252" on="0"/>
        <pt x="496" y="216" on="1"/>
        <pt x="496" y="171" on="0"/>
        <pt x="462" y="88" on="0"/>
        <pt x="397" y="25" on="0"/>
        <pt x="304" y="-12" on="0"/>
        <pt x="246" y="-12" on="1"/>
        <pt x="242" y="-12" on="0"/>
        <pt x="235" y="-11" on="0"/>
        <pt x="232" y="-11" on="1"/>
        <pt x="209" y="-101" on="1"/>
        <pt x="142" y="-98" on="1"/>
        <pt x="167" y="-3" on="1"/>
        <pt x="121" y="8" on="0"/>
        <pt x="39" y="49" on="0"/>
        <pt x="7" y="75" on="1"/>
        <pt x="63" y="177" on="1"/>
        <pt x="91" y="152" on="0"/>
        <pt x="160" y="115" on="0"/>
        <pt x="196" y="105" on="1"/>
        <pt x="255" y="330" on="1"/>
        <pt x="223" y="349" on="0"/>
        <pt x="169" y="389" on="0"/>
        <pt x="130" y="435" on="0"/>
        <pt x="108" y="491" on="0"/>
        <pt x="108" y="527" on="1"/>
        <pt x="108" y="572" on="0"/>
        <pt x="144" y="651" on="0"/>
        <pt x="208" y="711" on="0"/>
        <pt x="298" y="745" on="0"/>
        <pt x="351" y="745" on="1"/>
        <pt x="355" y="745" on="0"/>
        <pt x="363" y="745" on="0"/>
        <pt x="368" y="744" on="1"/>
        <pt x="391" y="833" on="1"/>
        <pt x="458" y="830" on="1"/>
      </contour>
      <contour>
        <pt x="374" y="200" on="1"/>
        <pt x="374" y="229" on="0"/>
        <pt x="341" y="272" on="0"/>
        <pt x="311" y="294" on="1"/>
        <pt x="260" y="98" on="1"/>
        <pt x="288" y="99" on="0"/>
        <pt x="330" y="117" on="0"/>
        <pt x="359" y="145" on="0"/>
        <pt x="374" y="180" on="0"/>
      </contour>
      <contour>
        <pt x="230" y="540" on="1"/>
        <pt x="230" y="512" on="0"/>
        <pt x="261" y="472" on="0"/>
        <pt x="291" y="451" on="1"/>
        <pt x="339" y="636" on="1"/>
        <pt x="285" y="635" on="0"/>
        <pt x="230" y="578" on="0"/>
      </contour>
    </TTGlyph>
    <TTGlyph name="dotaccent" xMin="226" yMin="494" xMax="348" yMax="617">
      <contour>
        <pt x="348" y="555" on="1"/>
        <pt x="348" y="530" on="0"/>
        <pt x="313" y="494" on="0"/>
        <pt x="287" y="494" on="1"/>
        <pt x="262" y="494" on="0"/>
        <pt x="226" y="530" on="0"/>
        <pt x="226" y="555" on="1"/>
        <pt x="226" y="581" on="0"/>
        <pt x="262" y="617" on="0"/>
        <pt x="287" y="617" on="1"/>
        <pt x="313" y="617" on="0"/>
        <pt x="348" y="581" on="0"/>
      </contour>
    </TTGlyph>
    <TTGlyph name="dotlessi" xMin="20" yMin="0" xMax="217" yMax="427">
      <contour>
        <pt x="134" y="0" on="1"/>
        <pt x="20" y="0" on="1"/>
        <pt x="103" y="427" on="1"/>
        <pt x="217" y="427" on="1"/>
      </contour>
    </TTGlyph>
    <TTGlyph name="e" xMin="35" yMin="-8" xMax="446" yMax="435">
      <contour>
        <pt x="236" y="-8" on="1"/>
        <pt x="146" y="-8" on="0"/>
        <pt x="35" y="82" on="0"/>
        <pt x="35" y="176" on="1"/>
        <pt x="35" y="224" on="0"/>
        <pt x="71" y="316" on="0"/>
        <pt x="135" y="390" on="0"/>
        <pt x="224" y="435" on="0"/>
        <pt x="278" y="435" on="1"/>
        <pt x="319" y="435" on="0"/>
        <pt x="382" y="408" on="0"/>
        <pt x="424" y="362" on="0"/>
        <pt x="446" y="299" on="0"/>
        <pt x="446" y="262" on="1"/>
        <pt x="446" y="245" on="0"/>
        <pt x="440" y="204" on="0"/>
        <pt x="434" y="184" on="1"/>
        <pt x="144" y="184" on="1"/>
        <pt x="144" y="176" on="1"/>
        <pt x="146" y="125" on="0"/>
        <pt x="206" y="81" on="0"/>
        <pt x="257" y="81" on="1"/>
        <pt x="283" y="81" on="0"/>
        <pt x="333" y="90" on="0"/>
        <pt x="365" y="98" on="1"/>
        <pt x="377" y="15" on="1"/>
        <pt x="344" y="4" on="0"/>
        <pt x="282" y="-8" on="0"/>
      </contour>
      <contour>
        <pt x="342" y="254" on="1"/>
        <pt x="343" y="259" on="0"/>
        <pt x="343" y="267" on="0"/>
        <pt x="343" y="272" on="1"/>
        <pt x="342" y="303" on="0"/>
        <pt x="305" y="346" on="0"/>
        <pt x="268" y="346" on="1"/>
        <pt x="230" y="346" on="0"/>
        <pt x="169" y="295" on="0"/>
        <pt x="154" y="254" on="1"/>
      </contour>
    </TTGlyph>
    <TTGlyph name="eacute" xMin="35" yMin="-8" xMax="476" yMax="669">
      <component glyphName="acute" x="64" y="0" flags="0x4"/>
      <component glyphName="e" x="0" y="0" flags="0x4"/>
    </TTGlyph>
    <TTGlyph name="ebreve" xMin="35" yMin="-8" xMax="489" yMax="653">
      <component glyphName="e" x="0" y="0" flags="0x204"/>
      <component glyphName="breve" x="15" y="0" flags="0x4"/>
    </TTGlyph>
    <TTGlyph name="ecaron" xMin="35" yMin="-8" xMax="505" yMax="667">
      <component glyphName="caron" x="17" y="0" flags="0x4"/>
      <component glyphName="e" x="0" y="0" flags="0x4"/>
    </TTGlyph>
    <TTGlyph name="ecircumflex" xMin="35" yMin="-8" xMax="465" yMax="668">
      <component glyphName="circumflex" x="7" y="0" flags="0x4"/>
      <component glyphName="e" x="0" y="0" flags="0x4"/>
    </TTGlyph>
    <TTGlyph name="edieresis" xMin="35" yMin="-8" xMax="464" yMax="617">
      <component glyphName="dieresis" x="12" y="0" flags="0x4"/>
      <component glyphName="e" x="0" y="0" flags="0x4"/>
    </TTGlyph>
    <TTGlyph name="edotaccent" xMin="35" yMin="-8" xMax="446" yMax="617">
      <component glyphName="e" x="0" y="0" flags="0x204"/>
      <component glyphName="dotaccent" x="25" y="0" flags="0x4"/>
    </TTGlyph>
    <TTGlyph name="egrave" xMin="35" yMin="-8" xMax="446" yMax="669">
      <component glyphName="e" x="0" y="0" flags="0x204"/>
      <component glyphName="grave" x="-38" y="0" flags="0x4"/>
    </TTGlyph>
    <TTGlyph name="eight" xMin="45" yMin="-10" xMax="490" yMax="593">
      <contour>
        <pt x="490" y="446" on="1"/>
        <pt x="490" y="393" on="0"/>
        <pt x="433" y="316" on="0"/>
        <pt x="380" y="293" on="1"/>
        <pt x="416" y="272" on="0"/>
        <pt x="452" y="210" on="0"/>
        <pt x="452" y="172" on="1"/>
        <pt x="452" y="134" on="0"/>
        <pt x="421" y="68" on="0"/>
        <pt x="364" y="19" on="0"/>
        <pt x="284" y="-10" on="0"/>
        <pt x="236" y="-10" on="1"/>
        <pt x="192" y="-10" on="0"/>
        <pt x="121" y="13" on="0"/>
        <pt x="72" y="54" on="0"/>
        <pt x="45" y="111" on="0"/>
        <pt x="45" y="145" on="1"/>
        <pt x="45" y="195" on="0"/>
        <pt x="108" y="283" on="0"/>
        <pt x="168" y="303" on="1"/>
        <pt x="139" y="323" on="0"/>
        <pt x="106" y="379" on="0"/>
        <pt x="106" y="416" on="1"/>
        <pt x="106" y="449" on="0"/>
        <pt x="136" y="513" on="0"/>
        <pt x="190" y="562" on="0"/>
        <pt x="266" y="593" on="0"/>
        <pt x="313" y="593" on="1"/>
        <pt x="354" y="593" on="0"/>
        <pt x="419" y="570" on="0"/>
        <pt x="465" y="529" on="0"/>
        <pt x="490" y="476" on="0"/>
      </contour>
      <contour>
        <pt x="380" y="425" on="1"/>
        <pt x="380" y="454" on="0"/>
        <pt x="342" y="499" on="0"/>
        <pt x="304" y="499" on="1"/>
        <pt x="283" y="499" on="0"/>
        <pt x="248" y="484" on="0"/>
        <pt x="224" y="458" on="0"/>
        <pt x="211" y="426" on="0"/>
        <pt x="211" y="409" on="1"/>
        <pt x="211" y="375" on="0"/>
        <pt x="254" y="334" on="0"/>
        <pt x="288" y="334" on="1"/>
        <pt x="328" y="334" on="0"/>
        <pt x="380" y="387" on="0"/>
      </contour>
      <contour>
        <pt x="339" y="178" on="1"/>
        <pt x="339" y="210" on="0"/>
        <pt x="299" y="256" on="0"/>
        <pt x="258" y="256" on="1"/>
        <pt x="215" y="256" on="0"/>
        <pt x="162" y="200" on="0"/>
        <pt x="162" y="161" on="1"/>
        <pt x="162" y="127" on="0"/>
        <pt x="206" y="84" on="0"/>
        <pt x="244" y="84" on="1"/>
        <pt x="290" y="84" on="0"/>
        <pt x="339" y="141" on="0"/>
      </contour>
    </TTGlyph>
    <TTGlyph name="eight.den" xMin="4" yMin="-8" xMax="340" yMax="405">
      <contour>
        <pt x="155" y="-8" on="1"/>
        <pt x="126" y="-8" on="0"/>
        <pt x="72" y="5" on="0"/>
        <pt x="30" y="32" on="0"/>
        <pt x="4" y="73" on="0"/>
        <pt x="4" y="100" on="1"/>
        <pt x="4" y="176" on="0"/>
        <pt x="87" y="208" on="1"/>
        <pt x="68" y="220" on="0"/>
        <pt x="47" y="259" on="0"/>
        <pt x="47" y="282" on="1"/>
        <pt x="47" y="309" on="0"/>
        <pt x="69" y="354" on="0"/>
        <pt x="109" y="387" on="0"/>
        <pt x="165" y="405" on="0"/>
        <pt x="199" y="405" on="1"/>
        <pt x="264" y="405" on="0"/>
        <pt x="340" y="345" on="0"/>
        <pt x="340" y="299" on="1"/>
        <pt x="340" y="261" on="0"/>
        <pt x="297" y="208" on="0"/>
        <pt x="266" y="194" on="1"/>
        <pt x="290" y="180" on="0"/>
        <pt x="312" y="139" on="0"/>
        <pt x="312" y="116" on="1"/>
        <pt x="312" y="88" on="0"/>
        <pt x="289" y="42" on="0"/>
        <pt x="247" y="10" on="0"/>
        <pt x="189" y="-8" on="0"/>
      </contour>
      <contour>
        <pt x="190" y="231" on="1"/>
        <pt x="217" y="231" on="0"/>
        <pt x="255" y="261" on="0"/>
        <pt x="255" y="289" on="1"/>
        <pt x="255" y="311" on="0"/>
        <pt x="222" y="336" on="0"/>
        <pt x="193" y="336" on="1"/>
        <pt x="167" y="336" on="0"/>
        <pt x="129" y="306" on="0"/>
        <pt x="129" y="278" on="1"/>
        <pt x="129" y="256" on="0"/>
        <pt x="162" y="231" on="0"/>
      </contour>
      <contour>
        <pt x="157" y="62" on="1"/>
        <pt x="186" y="62" on="0"/>
        <pt x="227" y="92" on="0"/>
        <pt x="227" y="121" on="1"/>
        <pt x="227" y="145" on="0"/>
        <pt x="188" y="170" on="0"/>
        <pt x="162" y="170" on="1"/>
        <pt x="132" y="170" on="0"/>
        <pt x="92" y="140" on="0"/>
        <pt x="92" y="111" on="1"/>
        <pt x="92" y="87" on="0"/>
        <pt x="131" y="62" on="0"/>
      </contour>
    </TTGlyph>
    <TTGlyph name="eight.lin" xMin="54" yMin="-12" xMax="608" yMax="745">
      <contour>
        <pt x="294" y="-12" on="1"/>
        <pt x="237" y="-12" on="0"/>
        <pt x="148" y="18" on="0"/>
        <pt x="87" y="71" on="0"/>
        <pt x="54" y="142" on="0"/>
        <pt x="54" y="183" on="1"/>
        <pt x="54" y="251" on="0"/>
        <pt x="138" y="358" on="0"/>
        <pt x="210" y="384" on="1"/>
        <pt x="175" y="409" on="0"/>
        <pt x="133" y="477" on="0"/>
        <pt x="133" y="522" on="1"/>
        <pt x="133" y="567" on="0"/>
        <pt x="172" y="648" on="0"/>
        <pt x="240" y="709" on="0"/>
        <pt x="333" y="745" on="0"/>
        <pt x="387" y="745" on="1"/>
        <pt x="438" y="745" on="0"/>
        <pt x="520" y="716" on="0"/>
        <pt x="577" y="666" on="0"/>
        <pt x="608" y="598" on="0"/>
        <pt x="608" y="560" on="1"/>
        <pt x="608" y="492" on="0"/>
        <pt x="532" y="388" on="0"/>
        <pt x="469" y="362" on="1"/>
        <pt x="557" y="307" on="0"/>
        <pt x="557" y="215" on="1"/>
        <pt x="557" y="168" on="0"/>
        <pt x="519" y="85" on="0"/>
        <pt x="449" y="24" on="0"/>
        <pt x="352" y="-12" on="0"/>
      </contour>
      <contour>
        <pt x="433" y="221" on="1"/>
        <pt x="433" y="269" on="0"/>
        <pt x="367" y="328" on="0"/>
        <pt x="313" y="328" on="1"/>
        <pt x="285" y="328" on="0"/>
        <pt x="237" y="307" on="0"/>
        <pt x="203" y="272" on="0"/>
        <pt x="183" y="225" on="0"/>
        <pt x="183" y="199" on="1"/>
        <pt x="183" y="152" on="0"/>
        <pt x="244" y="89" on="0"/>
        <pt x="299" y="89" on="1"/>
        <pt x="329" y="89" on="0"/>
        <pt x="378" y="111" on="0"/>
        <pt x="414" y="147" on="0"/>
        <pt x="433" y="195" on="0"/>
      </contour>
      <contour>
        <pt x="487" y="539" on="1"/>
        <pt x="487" y="587" on="0"/>
        <pt x="425" y="645" on="0"/>
        <pt x="376" y="645" on="1"/>
        <pt x="346" y="645" on="0"/>
        <pt x="298" y="623" on="0"/>
        <pt x="266" y="587" on="0"/>
        <pt x="248" y="540" on="0"/>
        <pt x="248" y="516" on="1"/>
        <pt x="248" y="469" on="0"/>
        <pt x="310" y="413" on="0"/>
        <pt x="360" y="413" on="1"/>
        <pt x="388" y="413" on="0"/>
        <pt x="435" y="432" on="0"/>
        <pt x="468" y="466" on="0"/>
        <pt x="487" y="512" on="0"/>
      </contour>
    </TTGlyph>
    <TTGlyph name="eight.num" xMin="68" yMin="327" xMax="404" yMax="740">
      <contour>
        <pt x="219" y="327" on="1"/>
        <pt x="190" y="327" on="0"/>
        <pt x="136" y="340" on="0"/>
        <pt x="94" y="367" on="0"/>
        <pt x="68" y="408" on="0"/>
        <pt x="68" y="435" on="1"/>
        <pt x="68" y="511" on="0"/>
        <pt x="151" y="543" on="1"/>
        <pt x="132" y="555" on="0"/>
        <pt x="111" y="594" on="0"/>
        <pt x="111" y="617" on="1"/>
        <pt x="111" y="644" on="0"/>
        <pt x="133" y="689" on="0"/>
        <pt x="173" y="722" on="0"/>
        <pt x="229" y="740" on="0"/>
        <pt x="263" y="740" on="1"/>
        <pt x="328" y="740" on="0"/>
        <pt x="404" y="680" on="0"/>
        <pt x="404" y="634" on="1"/>
        <pt x="404" y="596" on="0"/>
        <pt x="361" y="543" on="0"/>
        <pt x="330" y="529" on="1"/>
        <pt x="354" y="515" on="0"/>
        <pt x="376" y="474" on="0"/>
        <pt x="376" y="451" on="1"/>
        <pt x="376" y="423" on="0"/>
        <pt x="353" y="377" on="0"/>
        <pt x="311" y="345" on="0"/>
        <pt x="253" y="327" on="0"/>
      </contour>
      <contour>
        <pt x="254" y="566" on="1"/>
        <pt x="281" y="566" on="0"/>
        <pt x="319" y="596" on="0"/>
        <pt x="319" y="624" on="1"/>
        <pt x="319" y="646" on="0"/>
        <pt x="286" y="671" on="0"/>
        <pt x="257" y="671" on="1"/>
        <pt x="231" y="671" on="0"/>
        <pt x="193" y="641" on="0"/>
        <pt x="193" y="613" on="1"/>
        <pt x="193" y="591" on="0"/>
        <pt x="226" y="566" on="0"/>
      </contour>
      <contour>
        <pt x="221" y="397" on="1"/>
        <pt x="250" y="397" on="0"/>
        <pt x="291" y="427" on="0"/>
        <pt x="291" y="456" on="1"/>
        <pt x="291" y="480" on="0"/>
        <pt x="252" y="505" on="0"/>
        <pt x="226" y="505" on="1"/>
        <pt x="196" y="505" on="0"/>
        <pt x="156" y="475" on="0"/>
        <pt x="156" y="446" on="1"/>
        <pt x="156" y="422" on="0"/>
        <pt x="195" y="397" on="0"/>
      </contour>
    </TTGlyph>
    <TTGlyph name="elevensixteenths" xMin="116" yMin="-19" xMax="1260" yMax="752">
      <component glyphName="one.den" x="665" y="0" flags="0x4"/>
      <component glyphName="six.den" x="939" y="0" flags="0x4"/>
      <component glyphName="one.num" x="7" y="0" flags="0x4"/>
      <component glyphName="one.num" x="281" y="0" flags="0x4"/>
      <component glyphName="fraction" x="555" y="0" flags="0x4"/>
    </TTGlyph>
    <TTGlyph name="ellipsis" xMin="39" yMin="-8" xMax="671" yMax="120">
      <contour>
        <pt x="167" y="56" on="1"/>
        <pt x="167" y="30" on="0"/>
        <pt x="129" y="-8" on="0"/>
        <pt x="103" y="-8" on="1"/>
        <pt x="77" y="-8" on="0"/>
        <pt x="39" y="30" on="0"/>
        <pt x="39" y="56" on="1"/>
        <pt x="39" y="83" on="0"/>
        <pt x="77" y="120" on="0"/>
        <pt x="103" y="120" on="1"/>
        <pt x="129" y="120" on="0"/>
        <pt x="167" y="83" on="0"/>
      </contour>
      <contour>
        <pt x="419" y="56" on="1"/>
        <pt x="419" y="30" on="0"/>
        <pt x="381" y="-8" on="0"/>
        <pt x="355" y="-8" on="1"/>
        <pt x="329" y="-8" on="0"/>
        <pt x="291" y="30" on="0"/>
        <pt x="291" y="56" on="1"/>
        <pt x="291" y="83" on="0"/>
        <pt x="329" y="120" on="0"/>
        <pt x="355" y="120" on="1"/>
        <pt x="381" y="120" on="0"/>
        <pt x="419" y="83" on="0"/>
      </contour>
      <contour>
        <pt x="671" y="56" on="1"/>
        <pt x="671" y="30" on="0"/>
        <pt x="633" y="-8" on="0"/>
        <pt x="607" y="-8" on="1"/>
        <pt x="581" y="-8" on="0"/>
        <pt x="543" y="30" on="0"/>
        <pt x="543" y="56" on="1"/>
        <pt x="543" y="83" on="0"/>
        <pt x="581" y="120" on="0"/>
        <pt x="607" y="120" on="1"/>
        <pt x="633" y="120" on="0"/>
        <pt x="671" y="83" on="0"/>
      </contour>
    </TTGlyph>
    <TTGlyph name="emacron" xMin="35" yMin="-8" xMax="461" yMax="591">
      <component glyphName="e" x="0" y="0" flags="0x204"/>
      <component glyphName="macron" x="13" y="0" flags="0x4"/>
    </TTGlyph>
    <TTGlyph name="emdash" xMin="48" yMin="206" xMax="699" yMax="283">
      <contour>
        <pt x="684" y="206" on="1"/>
        <pt x="48" y="206" on="1"/>
        <pt x="64" y="283" on="1"/>
        <pt x="699" y="283" on="1"/>
      </contour>
    </TTGlyph>
    <TTGlyph name="emdash.cap" xMin="73" yMin="332" xMax="724" yMax="409">
      <component glyphName="emdash" x="25" y="126" flags="0x204"/>
    </TTGlyph>
    <TTGlyph name="endash" xMin="48" yMin="206" xMax="449" yMax="283">
      <contour>
        <pt x="434" y="206" on="1"/>
        <pt x="48" y="206" on="1"/>
        <pt x="64" y="283" on="1"/>
        <pt x="449" y="283" on="1"/>
      </contour>
    </TTGlyph>
    <TTGlyph name="endash.cap" xMin="73" yMin="332" xMax="474" yMax="409">
      <component glyphName="endash" x="25" y="126" flags="0x204"/>
    </TTGlyph>
    <TTGlyph name="eogonek" xMin="35" yMin="-222" xMax="446" yMax="435">
      <contour>
        <pt x="236" y="-8" on="1"/>
        <pt x="146" y="-8" on="0"/>
        <pt x="35" y="82" on="0"/>
        <pt x="35" y="176" on="1"/>
        <pt x="35" y="224" on="0"/>
        <pt x="71" y="316" on="0"/>
        <pt x="135" y="390" on="0"/>
        <pt x="224" y="435" on="0"/>
        <pt x="278" y="435" on="1"/>
        <pt x="319" y="435" on="0"/>
        <pt x="382" y="408" on="0"/>
        <pt x="424" y="362" on="0"/>
        <pt x="446" y="299" on="0"/>
        <pt x="446" y="262" on="1"/>
        <pt x="446" y="245" on="0"/>
        <pt x="440" y="204" on="0"/>
        <pt x="434" y="184" on="1"/>
        <pt x="144" y="184" on="1"/>
        <pt x="144" y="176" on="1"/>
        <pt x="146" y="125" on="0"/>
        <pt x="206" y="81" on="0"/>
        <pt x="257" y="81" on="1"/>
        <pt x="283" y="81" on="0"/>
        <pt x="333" y="90" on="0"/>
        <pt x="365" y="98" on="1"/>
        <pt x="377" y="15" on="1"/>
        <pt x="358" y="0" on="0"/>
        <pt x="321" y="-34" on="0"/>
        <pt x="291" y="-69" on="0"/>
        <pt x="273" y="-105" on="0"/>
        <pt x="273" y="-121" on="1"/>
        <pt x="273" y="-150" on="0"/>
        <pt x="301" y="-150" on="1"/>
        <pt x="314" y="-150" on="0"/>
        <pt x="337" y="-138" on="0"/>
        <pt x="351" y="-126" on="1"/>
        <pt x="376" y="-173" on="1"/>
        <pt x="351" y="-196" on="0"/>
        <pt x="298" y="-221" on="0"/>
        <pt x="264" y="-222" on="1"/>
        <pt x="227" y="-222" on="0"/>
        <pt x="187" y="-184" on="0"/>
        <pt x="187" y="-151" on="1"/>
        <pt x="187" y="-114" on="0"/>
        <pt x="235" y="-41" on="0"/>
        <pt x="273" y="-7" on="1"/>
        <pt x="265" y="-8" on="0"/>
        <pt x="246" y="-8" on="0"/>
      </contour>
      <contour>
        <pt x="342" y="254" on="1"/>
        <pt x="343" y="259" on="0"/>
        <pt x="343" y="267" on="0"/>
        <pt x="343" y="272" on="1"/>
        <pt x="342" y="303" on="0"/>
        <pt x="305" y="346" on="0"/>
        <pt x="268" y="346" on="1"/>
        <pt x="230" y="346" on="0"/>
        <pt x="169" y="295" on="0"/>
        <pt x="154" y="254" on="1"/>
      </contour>
    </TTGlyph>
    <TTGlyph name="equal" xMin="47" yMin="166" xMax="406" yMax="411">
      <contour>
        <pt x="358" y="166" on="1"/>
        <pt x="47" y="166" on="1"/>
        <pt x="64" y="250" on="1"/>
        <pt x="375" y="250" on="1"/>
      </contour>
      <contour>
        <pt x="389" y="326" on="1"/>
        <pt x="78" y="326" on="1"/>
        <pt x="95" y="411" on="1"/>
        <pt x="406" y="411" on="1"/>
      </contour>
    </TTGlyph>
    <TTGlyph name="equal.lin" xMin="63" yMin="248" xMax="422" yMax="493">
      <component glyphName="equal" x="16" y="82" flags="0x4"/>
    </TTGlyph>
    <TTGlyph name="eth" xMin="35" yMin="-9" xMax="472" yMax="739">
      <contour>
        <pt x="361" y="606" on="1"/>
        <pt x="409" y="552" on="0"/>
        <pt x="472" y="403" on="0"/>
        <pt x="472" y="303" on="1"/>
        <pt x="472" y="238" on="0"/>
        <pt x="436" y="125" on="0"/>
        <pt x="370" y="40" on="0"/>
        <pt x="277" y="-9" on="0"/>
        <pt x="219" y="-9" on="1"/>
        <pt x="178" y="-9" on="0"/>
        <pt x="110" y="19" on="0"/>
        <pt x="62" y="68" on="0"/>
        <pt x="35" y="135" on="0"/>
        <pt x="35" y="174" on="1"/>
        <pt x="35" y="223" on="0"/>
        <pt x="69" y="316" on="0"/>
        <pt x="132" y="389" on="0"/>
        <pt x="219" y="433" on="0"/>
        <pt x="272" y="433" on="1"/>
        <pt x="299" y="433" on="0"/>
        <pt x="345" y="416" on="0"/>
        <pt x="359" y="400" on="1"/>
        <pt x="351" y="442" on="0"/>
        <pt x="308" y="517" on="0"/>
        <pt x="278" y="549" on="1"/>
        <pt x="188" y="489" on="1"/>
        <pt x="147" y="555" on="1"/>
        <pt x="218" y="604" on="1"/>
        <pt x="198" y="619" on="0"/>
        <pt x="158" y="643" on="0"/>
        <pt x="137" y="654" on="1"/>
        <pt x="189" y="739" on="1"/>
        <pt x="216" y="724" on="0"/>
        <pt x="274" y="686" on="0"/>
        <pt x="303" y="662" on="1"/>
        <pt x="384" y="717" on="1"/>
        <pt x="427" y="650" on="1"/>
      </contour>
      <contour>
        <pt x="360" y="251" on="1"/>
        <pt x="360" y="299" on="0"/>
        <pt x="314" y="350" on="0"/>
        <pt x="275" y="350" on="1"/>
        <pt x="248" y="350" on="0"/>
        <pt x="200" y="323" on="0"/>
        <pt x="165" y="277" on="0"/>
        <pt x="145" y="215" on="0"/>
        <pt x="145" y="181" on="1"/>
        <pt x="145" y="133" on="0"/>
        <pt x="191" y="81" on="0"/>
        <pt x="229" y="81" on="1"/>
        <pt x="257" y="81" on="0"/>
        <pt x="305" y="108" on="0"/>
        <pt x="340" y="154" on="0"/>
        <pt x="360" y="216" on="0"/>
      </contour>
    </TTGlyph>
    <TTGlyph name="exclam" xMin="37" yMin="-8" xMax="296" yMax="733">
      <contour>
        <pt x="167" y="202" on="1"/>
        <pt x="91" y="205" on="1"/>
        <pt x="170" y="733" on="1"/>
        <pt x="296" y="733" on="1"/>
      </contour>
      <contour>
        <pt x="165" y="56" on="1"/>
        <pt x="165" y="30" on="0"/>
        <pt x="127" y="-8" on="0"/>
        <pt x="101" y="-8" on="1"/>
        <pt x="75" y="-8" on="0"/>
        <pt x="37" y="30" on="0"/>
        <pt x="37" y="56" on="1"/>
        <pt x="37" y="83" on="0"/>
        <pt x="75" y="120" on="0"/>
        <pt x="101" y="120" on="1"/>
        <pt x="127" y="120" on="0"/>
        <pt x="165" y="83" on="0"/>
      </contour>
    </TTGlyph>
    <TTGlyph name="exclamdown" xMin="24" yMin="0" xMax="283" yMax="741">
      <contour>
        <pt x="283" y="677" on="1"/>
        <pt x="283" y="651" on="0"/>
        <pt x="246" y="613" on="0"/>
        <pt x="219" y="613" on="1"/>
        <pt x="193" y="613" on="0"/>
        <pt x="156" y="651" on="0"/>
        <pt x="156" y="677" on="1"/>
        <pt x="156" y="704" on="0"/>
        <pt x="193" y="741" on="0"/>
        <pt x="219" y="741" on="1"/>
        <pt x="246" y="741" on="0"/>
        <pt x="283" y="704" on="0"/>
      </contour>
      <contour>
        <pt x="151" y="0" on="1"/>
        <pt x="24" y="0" on="1"/>
        <pt x="154" y="532" on="1"/>
        <pt x="230" y="529" on="1"/>
      </contour>
    </TTGlyph>
    <TTGlyph name="f" xMin="8" yMin="-208" xMax="424" yMax="739">
      <contour>
        <pt x="392" y="632" on="1"/>
        <pt x="382" y="634" on="0"/>
        <pt x="364" y="637" on="0"/>
        <pt x="353" y="637" on="1"/>
        <pt x="332" y="637" on="0"/>
        <pt x="302" y="626" on="0"/>
        <pt x="282" y="602" on="0"/>
        <pt x="269" y="561" on="0"/>
        <pt x="263" y="531" on="1"/>
        <pt x="243" y="427" on="1"/>
        <pt x="349" y="427" on="1"/>
        <pt x="331" y="335" on="1"/>
        <pt x="225" y="335" on="1"/>
        <pt x="120" y="-208" on="1"/>
        <pt x="8" y="-208" on="1"/>
        <pt x="114" y="335" on="1"/>
        <pt x="28" y="335" on="1"/>
        <pt x="30" y="349" on="1"/>
        <pt x="131" y="431" on="1"/>
        <pt x="152" y="538" on="1"/>
        <pt x="172" y="644" on="0"/>
        <pt x="265" y="739" on="0"/>
        <pt x="348" y="739" on="1"/>
        <pt x="370" y="739" on="0"/>
        <pt x="405" y="733" on="0"/>
        <pt x="424" y="728" on="1"/>
      </contour>
    </TTGlyph>
    <TTGlyph name="f_f" xMin="8" yMin="-208" xMax="728" yMax="739">
      <contour>
        <pt x="696" y="632" on="1"/>
        <pt x="686" y="634" on="0"/>
        <pt x="668" y="637" on="0"/>
        <pt x="657" y="637" on="1"/>
        <pt x="636" y="637" on="0"/>
        <pt x="606" y="626" on="0"/>
        <pt x="586" y="602" on="0"/>
        <pt x="573" y="561" on="0"/>
        <pt x="567" y="531" on="1"/>
        <pt x="547" y="427" on="1"/>
        <pt x="653" y="427" on="1"/>
        <pt x="635" y="335" on="1"/>
        <pt x="529" y="335" on="1"/>
        <pt x="424" y="-208" on="1"/>
        <pt x="312" y="-208" on="1"/>
        <pt x="418" y="335" on="1"/>
        <pt x="332" y="335" on="1"/>
        <pt x="334" y="349" on="1"/>
        <pt x="435" y="431" on="1"/>
        <pt x="456" y="538" on="1"/>
        <pt x="476" y="644" on="0"/>
        <pt x="569" y="739" on="0"/>
        <pt x="652" y="739" on="1"/>
        <pt x="674" y="739" on="0"/>
        <pt x="709" y="733" on="0"/>
        <pt x="728" y="728" on="1"/>
      </contour>
      <contour>
        <pt x="392" y="632" on="1"/>
        <pt x="382" y="634" on="0"/>
        <pt x="364" y="637" on="0"/>
        <pt x="353" y="637" on="1"/>
        <pt x="332" y="637" on="0"/>
        <pt x="302" y="626" on="0"/>
        <pt x="282" y="602" on="0"/>
        <pt x="269" y="561" on="0"/>
        <pt x="263" y="531" on="1"/>
        <pt x="243" y="427" on="1"/>
        <pt x="349" y="427" on="1"/>
        <pt x="331" y="335" on="1"/>
        <pt x="225" y="335" on="1"/>
        <pt x="120" y="-208" on="1"/>
        <pt x="8" y="-208" on="1"/>
        <pt x="114" y="335" on="1"/>
        <pt x="28" y="335" on="1"/>
        <pt x="30" y="349" on="1"/>
        <pt x="131" y="431" on="1"/>
        <pt x="152" y="538" on="1"/>
        <pt x="172" y="644" on="0"/>
        <pt x="265" y="739" on="0"/>
        <pt x="348" y="739" on="1"/>
        <pt x="370" y="739" on="0"/>
        <pt x="405" y="733" on="0"/>
        <pt x="424" y="728" on="1"/>
      </contour>
    </TTGlyph>
    <TTGlyph name="f_f_i" xMin="8" yMin="-208" xMax="877" yMax="739">
      <contour>
        <pt x="392" y="632" on="1"/>
        <pt x="382" y="634" on="0"/>
        <pt x="364" y="637" on="0"/>
        <pt x="353" y="637" on="1"/>
        <pt x="332" y="637" on="0"/>
        <pt x="302" y="626" on="0"/>
        <pt x="282" y="602" on="0"/>
        <pt x="269" y="561" on="0"/>
        <pt x="263" y="531" on="1"/>
        <pt x="243" y="427" on="1"/>
        <pt x="349" y="427" on="1"/>
        <pt x="331" y="335" on="1"/>
        <pt x="225" y="335" on="1"/>
        <pt x="120" y="-208" on="1"/>
        <pt x="8" y="-208" on="1"/>
        <pt x="114" y="335" on="1"/>
        <pt x="28" y="335" on="1"/>
        <pt x="30" y="349" on="1"/>
        <pt x="131" y="431" on="1"/>
        <pt x="152" y="538" on="1"/>
        <pt x="172" y="644" on="0"/>
        <pt x="265" y="739" on="0"/>
        <pt x="348" y="739" on="1"/>
        <pt x="370" y="739" on="0"/>
        <pt x="405" y="733" on="0"/>
        <pt x="424" y="728" on="1"/>
      </contour>
      <contour>
        <pt x="696" y="632" on="1"/>
        <pt x="686" y="634" on="0"/>
        <pt x="668" y="637" on="0"/>
        <pt x="657" y="637" on="1"/>
        <pt x="636" y="637" on="0"/>
        <pt x="606" y="626" on="0"/>
        <pt x="586" y="602" on="0"/>
        <pt x="573" y="561" on="0"/>
        <pt x="567" y="531" on="1"/>
        <pt x="547" y="427" on="1"/>
        <pt x="653" y="427" on="1"/>
        <pt x="635" y="335" on="1"/>
        <pt x="529" y="335" on="1"/>
        <pt x="424" y="-208" on="1"/>
        <pt x="312" y="-208" on="1"/>
        <pt x="418" y="335" on="1"/>
        <pt x="332" y="335" on="1"/>
        <pt x="334" y="349" on="1"/>
        <pt x="435" y="431" on="1"/>
        <pt x="456" y="538" on="1"/>
        <pt x="476" y="644" on="0"/>
        <pt x="569" y="739" on="0"/>
        <pt x="652" y="739" on="1"/>
        <pt x="674" y="739" on="0"/>
        <pt x="709" y="733" on="0"/>
        <pt x="728" y="728" on="1"/>
      </contour>
      <contour>
        <pt x="757" y="0" on="1"/>
        <pt x="643" y="0" on="1"/>
        <pt x="726" y="427" on="1"/>
        <pt x="840" y="427" on="1"/>
      </contour>
      <contour>
        <pt x="877" y="574" on="1"/>
        <pt x="877" y="547" on="0"/>
        <pt x="838" y="508" on="0"/>
        <pt x="811" y="508" on="1"/>
        <pt x="783" y="508" on="0"/>
        <pt x="744" y="547" on="0"/>
        <pt x="744" y="574" on="1"/>
        <pt x="744" y="602" on="0"/>
        <pt x="783" y="641" on="0"/>
        <pt x="811" y="641" on="1"/>
        <pt x="838" y="641" on="0"/>
        <pt x="877" y="602" on="0"/>
      </contour>
    </TTGlyph>
    <TTGlyph name="f_f_l" xMin="8" yMin="-208" xMax="896" yMax="739">
      <contour>
        <pt x="392" y="632" on="1"/>
        <pt x="382" y="634" on="0"/>
        <pt x="364" y="637" on="0"/>
        <pt x="353" y="637" on="1"/>
        <pt x="332" y="637" on="0"/>
        <pt x="302" y="626" on="0"/>
        <pt x="282" y="602" on="0"/>
        <pt x="269" y="561" on="0"/>
        <pt x="263" y="531" on="1"/>
        <pt x="243" y="427" on="1"/>
        <pt x="349" y="427" on="1"/>
        <pt x="331" y="335" on="1"/>
        <pt x="225" y="335" on="1"/>
        <pt x="120" y="-208" on="1"/>
        <pt x="8" y="-208" on="1"/>
        <pt x="114" y="335" on="1"/>
        <pt x="28" y="335" on="1"/>
        <pt x="30" y="349" on="1"/>
        <pt x="131" y="431" on="1"/>
        <pt x="152" y="538" on="1"/>
        <pt x="172" y="644" on="0"/>
        <pt x="265" y="739" on="0"/>
        <pt x="348" y="739" on="1"/>
        <pt x="370" y="739" on="0"/>
        <pt x="405" y="733" on="0"/>
        <pt x="424" y="728" on="1"/>
      </contour>
      <contour>
        <pt x="696" y="632" on="1"/>
        <pt x="686" y="634" on="0"/>
        <pt x="668" y="637" on="0"/>
        <pt x="657" y="637" on="1"/>
        <pt x="636" y="637" on="0"/>
        <pt x="606" y="626" on="0"/>
        <pt x="586" y="602" on="0"/>
        <pt x="573" y="561" on="0"/>
        <pt x="567" y="531" on="1"/>
        <pt x="547" y="427" on="1"/>
        <pt x="653" y="427" on="1"/>
        <pt x="635" y="335" on="1"/>
        <pt x="529" y="335" on="1"/>
        <pt x="424" y="-208" on="1"/>
        <pt x="312" y="-208" on="1"/>
        <pt x="418" y="335" on="1"/>
        <pt x="332" y="335" on="1"/>
        <pt x="334" y="349" on="1"/>
        <pt x="435" y="431" on="1"/>
        <pt x="456" y="538" on="1"/>
        <pt x="476" y="644" on="0"/>
        <pt x="569" y="739" on="0"/>
        <pt x="652" y="739" on="1"/>
        <pt x="674" y="739" on="0"/>
        <pt x="709" y="733" on="0"/>
        <pt x="728" y="728" on="1"/>
      </contour>
      <contour>
        <pt x="754" y="0" on="1"/>
        <pt x="640" y="0" on="1"/>
        <pt x="782" y="733" on="1"/>
        <pt x="896" y="733" on="1"/>
      </contour>
    </TTGlyph>
    <TTGlyph name="fi" xMin="8" yMin="-208" xMax="573" yMax="739">
      <contour>
        <pt x="392" y="632" on="1"/>
        <pt x="382" y="634" on="0"/>
        <pt x="364" y="637" on="0"/>
        <pt x="353" y="637" on="1"/>
        <pt x="332" y="637" on="0"/>
        <pt x="302" y="626" on="0"/>
        <pt x="282" y="602" on="0"/>
        <pt x="269" y="561" on="0"/>
        <pt x="263" y="531" on="1"/>
        <pt x="243" y="427" on="1"/>
        <pt x="349" y="427" on="1"/>
        <pt x="331" y="335" on="1"/>
        <pt x="225" y="335" on="1"/>
        <pt x="120" y="-208" on="1"/>
        <pt x="8" y="-208" on="1"/>
        <pt x="114" y="335" on="1"/>
        <pt x="28" y="335" on="1"/>
        <pt x="30" y="349" on="1"/>
        <pt x="131" y="431" on="1"/>
        <pt x="152" y="538" on="1"/>
        <pt x="172" y="644" on="0"/>
        <pt x="265" y="739" on="0"/>
        <pt x="348" y="739" on="1"/>
        <pt x="370" y="739" on="0"/>
        <pt x="405" y="733" on="0"/>
        <pt x="424" y="728" on="1"/>
      </contour>
      <contour>
        <pt x="453" y="0" on="1"/>
        <pt x="339" y="0" on="1"/>
        <pt x="422" y="427" on="1"/>
        <pt x="536" y="427" on="1"/>
      </contour>
      <contour>
        <pt x="573" y="574" on="1"/>
        <pt x="573" y="547" on="0"/>
        <pt x="534" y="508" on="0"/>
        <pt x="507" y="508" on="1"/>
        <pt x="479" y="508" on="0"/>
        <pt x="440" y="547" on="0"/>
        <pt x="440" y="574" on="1"/>
        <pt x="440" y="602" on="0"/>
        <pt x="479" y="641" on="0"/>
        <pt x="507" y="641" on="1"/>
        <pt x="534" y="641" on="0"/>
        <pt x="573" y="602" on="0"/>
      </contour>
    </TTGlyph>
    <TTGlyph name="fifteensixteenths" xMin="116" yMin="-19" xMax="1336" yMax="752">
      <component glyphName="one.den" x="741" y="0" flags="0x4"/>
      <component glyphName="five.num" x="281" y="0" flags="0x4"/>
      <component glyphName="six.den" x="1015" y="0" flags="0x4"/>
      <component glyphName="one.num" x="7" y="0" flags="0x4"/>
      <component glyphName="fraction" x="631" y="0" flags="0x4"/>
    </TTGlyph>
    <TTGlyph name="five" xMin="21" yMin="-10" xMax="477" yMax="583">
      <contour>
        <pt x="458" y="485" on="1"/>
        <pt x="243" y="485" on="1"/>
        <pt x="218" y="365" on="1"/>
        <pt x="328" y="363" on="0"/>
        <pt x="436" y="269" on="0"/>
        <pt x="436" y="196" on="1"/>
        <pt x="436" y="151" on="0"/>
        <pt x="401" y="75" on="0"/>
        <pt x="339" y="21" on="0"/>
        <pt x="253" y="-10" on="0"/>
        <pt x="203" y="-10" on="1"/>
        <pt x="146" y="-10" on="0"/>
        <pt x="59" y="12" on="0"/>
        <pt x="21" y="29" on="1"/>
        <pt x="61" y="122" on="1"/>
        <pt x="93" y="107" on="0"/>
        <pt x="164" y="88" on="0"/>
        <pt x="201" y="88" on="1"/>
        <pt x="258" y="88" on="0"/>
        <pt x="320" y="141" on="0"/>
        <pt x="320" y="182" on="1"/>
        <pt x="320" y="226" on="0"/>
        <pt x="251" y="274" on="0"/>
        <pt x="179" y="274" on="1"/>
        <pt x="159" y="274" on="0"/>
        <pt x="123" y="270" on="0"/>
        <pt x="103" y="267" on="1"/>
        <pt x="96" y="278" on="1"/>
        <pt x="155" y="583" on="1"/>
        <pt x="477" y="583" on="1"/>
      </contour>
    </TTGlyph>
    <TTGlyph name="five.den" xMin="1" yMin="-8" xMax="338" yMax="397">
      <contour>
        <pt x="36" y="98" on="1"/>
        <pt x="59" y="84" on="0"/>
        <pt x="111" y="69" on="0"/>
        <pt x="136" y="69" on="1"/>
        <pt x="173" y="69" on="0"/>
        <pt x="215" y="102" on="0"/>
        <pt x="215" y="128" on="1"/>
        <pt x="215" y="151" on="0"/>
        <pt x="173" y="178" on="0"/>
        <pt x="126" y="178" on="1"/>
        <pt x="112" y="178" on="0"/>
        <pt x="84" y="176" on="0"/>
        <pt x="64" y="174" on="1"/>
        <pt x="48" y="184" on="1"/>
        <pt x="88" y="397" on="1"/>
        <pt x="338" y="397" on="1"/>
        <pt x="324" y="321" on="1"/>
        <pt x="156" y="321" on="1"/>
        <pt x="142" y="252" on="1"/>
        <pt x="154" y="252" on="1"/>
        <pt x="196" y="252" on="0"/>
        <pt x="255" y="234" on="0"/>
        <pt x="292" y="202" on="0"/>
        <pt x="308" y="161" on="0"/>
        <pt x="308" y="137" on="1"/>
        <pt x="308" y="107" on="0"/>
        <pt x="285" y="54" on="0"/>
        <pt x="242" y="15" on="0"/>
        <pt x="180" y="-8" on="0"/>
        <pt x="141" y="-8" on="1"/>
        <pt x="106" y="-8" on="0"/>
        <pt x="33" y="9" on="0"/>
        <pt x="1" y="26" on="1"/>
      </contour>
    </TTGlyph>
    <TTGlyph name="five.lin" xMin="25" yMin="-12" xMax="592" yMax="733">
      <contour>
        <pt x="572" y="624" on="1"/>
        <pt x="288" y="624" on="1"/>
        <pt x="248" y="448" on="1"/>
        <pt x="256" y="449" on="0"/>
        <pt x="270" y="449" on="0"/>
        <pt x="272" y="449" on="1"/>
        <pt x="335" y="449" on="0"/>
        <pt x="432" y="417" on="0"/>
        <pt x="497" y="361" on="0"/>
        <pt x="530" y="286" on="0"/>
        <pt x="530" y="243" on="1"/>
        <pt x="530" y="187" on="0"/>
        <pt x="487" y="94" on="0"/>
        <pt x="410" y="26" on="0"/>
        <pt x="302" y="-12" on="0"/>
        <pt x="237" y="-12" on="1"/>
        <pt x="175" y="-12" on="0"/>
        <pt x="74" y="13" on="0"/>
        <pt x="25" y="36" on="1"/>
        <pt x="68" y="142" on="1"/>
        <pt x="108" y="123" on="0"/>
        <pt x="195" y="96" on="0"/>
        <pt x="241" y="96" on="1"/>
        <pt x="316" y="96" on="0"/>
        <pt x="403" y="169" on="0"/>
        <pt x="403" y="228" on="1"/>
        <pt x="403" y="288" on="0"/>
        <pt x="304" y="355" on="0"/>
        <pt x="209" y="355" on="1"/>
        <pt x="159" y="355" on="0"/>
        <pt x="120" y="349" on="1"/>
        <pt x="114" y="360" on="1"/>
        <pt x="192" y="733" on="1"/>
        <pt x="592" y="733" on="1"/>
      </contour>
    </TTGlyph>
    <TTGlyph name="five.num" xMin="66" yMin="328" xMax="403" yMax="733">
      <contour>
        <pt x="100" y="434" on="1"/>
        <pt x="123" y="420" on="0"/>
        <pt x="175" y="405" on="0"/>
        <pt x="201" y="405" on="1"/>
        <pt x="238" y="405" on="0"/>
        <pt x="279" y="438" on="0"/>
        <pt x="279" y="464" on="1"/>
        <pt x="279" y="487" on="0"/>
        <pt x="238" y="514" on="0"/>
        <pt x="191" y="514" on="1"/>
        <pt x="177" y="514" on="0"/>
        <pt x="148" y="512" on="0"/>
        <pt x="128" y="510" on="1"/>
        <pt x="112" y="520" on="1"/>
        <pt x="153" y="733" on="1"/>
        <pt x="403" y="733" on="1"/>
        <pt x="388" y="657" on="1"/>
        <pt x="221" y="657" on="1"/>
        <pt x="206" y="587" on="1"/>
        <pt x="219" y="587" on="1"/>
        <pt x="261" y="587" on="0"/>
        <pt x="320" y="569" on="0"/>
        <pt x="356" y="538" on="0"/>
        <pt x="373" y="497" on="0"/>
        <pt x="373" y="473" on="1"/>
        <pt x="373" y="442" on="0"/>
        <pt x="350" y="389" on="0"/>
        <pt x="306" y="350" on="0"/>
        <pt x="244" y="328" on="0"/>
        <pt x="205" y="328" on="1"/>
        <pt x="170" y="328" on="0"/>
        <pt x="97" y="345" on="0"/>
        <pt x="66" y="362" on="1"/>
      </contour>
    </TTGlyph>
    <TTGlyph name="fiveeighths" xMin="73" yMin="-19" xMax="807" yMax="752">
      <component glyphName="five.num" x="7" y="0" flags="0x4"/>
      <component glyphName="fraction" x="357" y="0" flags="0x4"/>
      <component glyphName="eight.den" x="467" y="0" flags="0x4"/>
    </TTGlyph>
    <TTGlyph name="fivesixteenths" xMin="73" yMin="-19" xMax="1062" yMax="752">
      <component glyphName="one.den" x="467" y="0" flags="0x4"/>
      <component glyphName="six.den" x="741" y="0" flags="0x4"/>
      <component glyphName="five.num" x="7" y="0" flags="0x4"/>
      <component glyphName="fraction" x="357" y="0" flags="0x4"/>
    </TTGlyph>
    <TTGlyph name="fivesixths" xMin="83" yMin="-19" xMax="808" yMax="752">
      <component glyphName="six.den" x="457" y="0" flags="0x4"/>
      <component glyphName="five.num" x="17" y="0" flags="0x4"/>
      <component glyphName="fraction" x="367" y="0" flags="0x4"/>
    </TTGlyph>
    <TTGlyph name="fl" xMin="8" yMin="-208" xMax="592" yMax="739">
      <contour>
        <pt x="450" y="0" on="1"/>
        <pt x="336" y="0" on="1"/>
        <pt x="478" y="733" on="1"/>
        <pt x="592" y="733" on="1"/>
      </contour>
      <contour>
        <pt x="392" y="632" on="1"/>
        <pt x="382" y="634" on="0"/>
        <pt x="364" y="637" on="0"/>
        <pt x="353" y="637" on="1"/>
        <pt x="332" y="637" on="0"/>
        <pt x="302" y="626" on="0"/>
        <pt x="282" y="602" on="0"/>
        <pt x="269" y="561" on="0"/>
        <pt x="263" y="531" on="1"/>
        <pt x="243" y="427" on="1"/>
        <pt x="349" y="427" on="1"/>
        <pt x="331" y="335" on="1"/>
        <pt x="225" y="335" on="1"/>
        <pt x="120" y="-208" on="1"/>
        <pt x="8" y="-208" on="1"/>
        <pt x="114" y="335" on="1"/>
        <pt x="28" y="335" on="1"/>
        <pt x="30" y="349" on="1"/>
        <pt x="131" y="431" on="1"/>
        <pt x="152" y="538" on="1"/>
        <pt x="172" y="644" on="0"/>
        <pt x="265" y="739" on="0"/>
        <pt x="348" y="739" on="1"/>
        <pt x="370" y="739" on="0"/>
        <pt x="405" y="733" on="0"/>
        <pt x="424" y="728" on="1"/>
      </contour>
    </TTGlyph>
    <TTGlyph name="florin" xMin="54" yMin="0" xMax="455" yMax="588">
      <contour>
        <pt x="421" y="477" on="1"/>
        <pt x="403" y="482" on="0"/>
        <pt x="380" y="482" on="1"/>
        <pt x="345" y="482" on="0"/>
        <pt x="302" y="439" on="0"/>
        <pt x="285" y="385" on="1"/>
        <pt x="273" y="343" on="1"/>
        <pt x="359" y="343" on="1"/>
        <pt x="342" y="250" on="1"/>
        <pt x="245" y="250" on="1"/>
        <pt x="169" y="0" on="1"/>
        <pt x="57" y="0" on="1"/>
        <pt x="132" y="250" on="1"/>
        <pt x="54" y="250" on="1"/>
        <pt x="55" y="257" on="1"/>
        <pt x="161" y="345" on="1"/>
        <pt x="174" y="388" on="1"/>
        <pt x="190" y="441" on="0"/>
        <pt x="230" y="517" on="0"/>
        <pt x="282" y="565" on="0"/>
        <pt x="347" y="588" on="0"/>
        <pt x="388" y="588" on="1"/>
        <pt x="408" y="588" on="0"/>
        <pt x="441" y="583" on="0"/>
        <pt x="455" y="578" on="1"/>
      </contour>
    </TTGlyph>
    <TTGlyph name="florin.lin" xMin="42" yMin="0" xMax="574" yMax="745">
      <contour>
        <pt x="532" y="619" on="1"/>
        <pt x="515" y="625" on="0"/>
        <pt x="485" y="634" on="0"/>
        <pt x="465" y="634" on="1"/>
        <pt x="363" y="634" on="0"/>
        <pt x="320" y="497" on="1"/>
        <pt x="298" y="428" on="1"/>
        <pt x="433" y="428" on="1"/>
        <pt x="414" y="327" on="1"/>
        <pt x="266" y="327" on="1"/>
        <pt x="165" y="0" on="1"/>
        <pt x="42" y="0" on="1"/>
        <pt x="144" y="327" on="1"/>
        <pt x="55" y="327" on="1"/>
        <pt x="56" y="336" on="1"/>
        <pt x="174" y="425" on="1"/>
        <pt x="202" y="514" on="1"/>
        <pt x="238" y="629" on="0"/>
        <pt x="372" y="745" on="0"/>
        <pt x="467" y="745" on="1"/>
        <pt x="501" y="745" on="0"/>
        <pt x="557" y="733" on="0"/>
        <pt x="574" y="723" on="1"/>
      </contour>
    </TTGlyph>
    <TTGlyph name="four" xMin="16" yMin="-2" xMax="479" yMax="594">
      <contour>
        <pt x="462" y="147" on="1"/>
        <pt x="374" y="147" on="1"/>
        <pt x="345" y="-2" on="1"/>
        <pt x="238" y="-2" on="1"/>
        <pt x="267" y="147" on="1"/>
        <pt x="16" y="147" on="1"/>
        <pt x="28" y="210" on="1"/>
        <pt x="400" y="594" on="1"/>
        <pt x="462" y="594" on="1"/>
        <pt x="392" y="237" on="1"/>
        <pt x="479" y="237" on="1"/>
      </contour>
      <contour>
        <pt x="316" y="395" on="1"/>
        <pt x="166" y="237" on="1"/>
        <pt x="286" y="237" on="1"/>
      </contour>
    </TTGlyph>
    <TTGlyph name="four.den" xMin="-14" yMin="0" xMax="326" yMax="410">
      <contour>
        <pt x="180" y="71" on="1"/>
        <pt x="-14" y="71" on="1"/>
        <pt x="1" y="143" on="1"/>
        <pt x="253" y="410" on="1"/>
        <pt x="326" y="410" on="1"/>
        <pt x="274" y="140" on="1"/>
        <pt x="326" y="140" on="1"/>
        <pt x="313" y="71" on="1"/>
        <pt x="260" y="71" on="1"/>
        <pt x="247" y="0" on="1"/>
        <pt x="167" y="0" on="1"/>
      </contour>
      <contour>
        <pt x="194" y="140" on="1"/>
        <pt x="223" y="291" on="1"/>
        <pt x="81" y="140" on="1"/>
      </contour>
    </TTGlyph>
    <TTGlyph name="four.lin" xMin="21" yMin="0" xMax="610" yMax="743">
      <contour>
        <pt x="591" y="190" on="1"/>
        <pt x="475" y="190" on="1"/>
        <pt x="439" y="0" on="1"/>
        <pt x="318" y="0" on="1"/>
        <pt x="355" y="190" on="1"/>
        <pt x="21" y="190" on="1"/>
        <pt x="34" y="257" on="1"/>
        <pt x="505" y="743" on="1"/>
        <pt x="584" y="743" on="1"/>
        <pt x="494" y="290" on="1"/>
        <pt x="610" y="290" on="1"/>
      </contour>
      <contour>
        <pt x="426" y="531" on="1"/>
        <pt x="197" y="290" on="1"/>
        <pt x="375" y="290" on="1"/>
      </contour>
    </TTGlyph>
    <TTGlyph name="four.num" xMin="50" yMin="336" xMax="391" yMax="746">
      <contour>
        <pt x="245" y="407" on="1"/>
        <pt x="50" y="407" on="1"/>
        <pt x="65" y="479" on="1"/>
        <pt x="317" y="746" on="1"/>
        <pt x="391" y="746" on="1"/>
        <pt x="338" y="475" on="1"/>
        <pt x="390" y="475" on="1"/>
        <pt x="377" y="407" on="1"/>
        <pt x="325" y="407" on="1"/>
        <pt x="311" y="336" on="1"/>
        <pt x="231" y="336" on="1"/>
      </contour>
      <contour>
        <pt x="258" y="475" on="1"/>
        <pt x="288" y="627" on="1"/>
        <pt x="145" y="475" on="1"/>
      </contour>
    </TTGlyph>
    <TTGlyph name="fourfifths" xMin="57" yMin="-19" xMax="805" yMax="752">
      <component glyphName="four.num" x="7" y="0" flags="0x4"/>
      <component glyphName="five.den" x="467" y="0" flags="0x4"/>
      <component glyphName="fraction" x="357" y="0" flags="0x4"/>
    </TTGlyph>
    <TTGlyph name="fraction" xMin="-271" yMin="-19" xMax="441" yMax="752">
      <contour>
        <pt x="-271" y="27" on="1"/>
        <pt x="62" y="388" on="1"/>
        <pt x="385" y="752" on="1"/>
        <pt x="441" y="706" on="1"/>
        <pt x="109" y="345" on="1"/>
        <pt x="-216" y="-19" on="1"/>
      </contour>
    </TTGlyph>
    <TTGlyph name="g" xMin="32" yMin="-224" xMax="495" yMax="435">
      <contour>
        <pt x="406" y="-30" on="1"/>
        <pt x="386" y="-133" on="0"/>
        <pt x="272" y="-224" on="0"/>
        <pt x="182" y="-224" on="1"/>
        <pt x="145" y="-224" on="0"/>
        <pt x="64" y="-208" on="0"/>
        <pt x="32" y="-196" on="1"/>
        <pt x="62" y="-100" on="1"/>
        <pt x="89" y="-110" on="0"/>
        <pt x="148" y="-123" on="0"/>
        <pt x="177" y="-123" on="1"/>
        <pt x="228" y="-123" on="0"/>
        <pt x="283" y="-77" on="0"/>
        <pt x="294" y="-26" on="1"/>
        <pt x="303" y="22" on="1"/>
        <pt x="281" y="8" on="0"/>
        <pt x="236" y="-8" on="0"/>
        <pt x="206" y="-8" on="1"/>
        <pt x="169" y="-8" on="0"/>
        <pt x="106" y="19" on="0"/>
        <pt x="60" y="68" on="0"/>
        <pt x="34" y="136" on="0"/>
        <pt x="34" y="176" on="1"/>
        <pt x="34" y="228" on="0"/>
        <pt x="69" y="322" on="0"/>
        <pt x="131" y="393" on="0"/>
        <pt x="216" y="435" on="0"/>
        <pt x="267" y="435" on="1"/>
        <pt x="300" y="435" on="0"/>
        <pt x="360" y="414" on="0"/>
        <pt x="380" y="400" on="1"/>
        <pt x="385" y="427" on="1"/>
        <pt x="495" y="427" on="1"/>
      </contour>
      <contour>
        <pt x="359" y="314" on="1"/>
        <pt x="324" y="344" on="0"/>
        <pt x="276" y="344" on="1"/>
        <pt x="249" y="344" on="0"/>
        <pt x="202" y="322" on="0"/>
        <pt x="167" y="281" on="0"/>
        <pt x="147" y="223" on="0"/>
        <pt x="147" y="187" on="1"/>
        <pt x="147" y="136" on="0"/>
        <pt x="198" y="83" on="0"/>
        <pt x="239" y="83" on="1"/>
        <pt x="263" y="83" on="0"/>
        <pt x="301" y="99" on="0"/>
        <pt x="321" y="116" on="1"/>
      </contour>
    </TTGlyph>
    <TTGlyph name="gbreve" xMin="32" yMin="-224" xMax="512" yMax="653">
      <component glyphName="g" x="0" y="0" flags="0x204"/>
      <component glyphName="breve" x="38" y="0" flags="0x4"/>
    </TTGlyph>
    <TTGlyph name="gcommaaccent" xMin="32" yMin="-224" xMax="495" yMax="742">
      <contour>
        <pt x="270" y="563" on="1"/>
        <pt x="270" y="590" on="0"/>
        <pt x="296" y="641" on="0"/>
        <pt x="339" y="687" on="0"/>
        <pt x="395" y="727" on="0"/>
        <pt x="426" y="742" on="1"/>
        <pt x="437" y="723" on="1"/>
        <pt x="398" y="694" on="0"/>
        <pt x="358" y="648" on="0"/>
        <pt x="345" y="621" on="1"/>
        <pt x="369" y="614" on="0"/>
        <pt x="398" y="581" on="0"/>
        <pt x="398" y="558" on="1"/>
        <pt x="398" y="531" on="0"/>
        <pt x="359" y="493" on="0"/>
        <pt x="333" y="493" on="1"/>
        <pt x="305" y="493" on="0"/>
        <pt x="270" y="532" on="0"/>
      </contour>
      <contour>
        <pt x="406" y="-30" on="1"/>
        <pt x="386" y="-133" on="0"/>
        <pt x="272" y="-224" on="0"/>
        <pt x="182" y="-224" on="1"/>
        <pt x="145" y="-224" on="0"/>
        <pt x="64" y="-208" on="0"/>
        <pt x="32" y="-196" on="1"/>
        <pt x="62" y="-100" on="1"/>
        <pt x="89" y="-110" on="0"/>
        <pt x="148" y="-123" on="0"/>
        <pt x="177" y="-123" on="1"/>
        <pt x="228" y="-123" on="0"/>
        <pt x="283" y="-77" on="0"/>
        <pt x="294" y="-26" on="1"/>
        <pt x="303" y="22" on="1"/>
        <pt x="281" y="8" on="0"/>
        <pt x="236" y="-8" on="0"/>
        <pt x="206" y="-8" on="1"/>
        <pt x="169" y="-8" on="0"/>
        <pt x="106" y="19" on="0"/>
        <pt x="60" y="68" on="0"/>
        <pt x="34" y="136" on="0"/>
        <pt x="34" y="176" on="1"/>
        <pt x="34" y="228" on="0"/>
        <pt x="69" y="322" on="0"/>
        <pt x="131" y="393" on="0"/>
        <pt x="216" y="435" on="0"/>
        <pt x="267" y="435" on="1"/>
        <pt x="300" y="435" on="0"/>
        <pt x="360" y="414" on="0"/>
        <pt x="380" y="400" on="1"/>
        <pt x="385" y="427" on="1"/>
        <pt x="495" y="427" on="1"/>
      </contour>
      <contour>
        <pt x="359" y="314" on="1"/>
        <pt x="324" y="344" on="0"/>
        <pt x="276" y="344" on="1"/>
        <pt x="249" y="344" on="0"/>
        <pt x="202" y="322" on="0"/>
        <pt x="167" y="281" on="0"/>
        <pt x="147" y="223" on="0"/>
        <pt x="147" y="187" on="1"/>
        <pt x="147" y="136" on="0"/>
        <pt x="198" y="83" on="0"/>
        <pt x="239" y="83" on="1"/>
        <pt x="263" y="83" on="0"/>
        <pt x="301" y="99" on="0"/>
        <pt x="321" y="116" on="1"/>
      </contour>
    </TTGlyph>
    <TTGlyph name="gdotaccent" xMin="32" yMin="-224" xMax="495" yMax="617">
      <component glyphName="g" x="0" y="0" flags="0x204"/>
      <component glyphName="dotaccent" x="48" y="0" flags="0x4"/>
    </TTGlyph>
    <TTGlyph name="germandbls" xMin="-25" yMin="-208" xMax="553" yMax="740">
      <contour>
        <pt x="369" y="209" on="1"/>
        <pt x="415" y="191" on="0"/>
        <pt x="463" y="126" on="0"/>
        <pt x="462" y="80" on="1"/>
        <pt x="462" y="44" on="0"/>
        <pt x="434" y="-19" on="0"/>
        <pt x="383" y="-66" on="0"/>
        <pt x="308" y="-94" on="0"/>
        <pt x="262" y="-94" on="1"/>
        <pt x="233" y="-94" on="0"/>
        <pt x="184" y="-87" on="0"/>
        <pt x="164" y="-82" on="1"/>
        <pt x="189" y="9" on="1"/>
        <pt x="208" y="4" on="0"/>
        <pt x="242" y="-2" on="0"/>
        <pt x="262" y="-2" on="1"/>
        <pt x="304" y="-2" on="0"/>
        <pt x="352" y="42" on="0"/>
        <pt x="352" y="76" on="1"/>
        <pt x="352" y="111" on="0"/>
        <pt x="296" y="147" on="0"/>
        <pt x="246" y="149" on="1"/>
        <pt x="240" y="149" on="0"/>
        <pt x="231" y="149" on="0"/>
        <pt x="226" y="148" on="1"/>
        <pt x="222" y="162" on="1"/>
        <pt x="371" y="334" on="1"/>
        <pt x="192" y="334" on="1"/>
        <pt x="88" y="-208" on="1"/>
        <pt x="-25" y="-208" on="1"/>
        <pt x="121" y="547" on="1"/>
        <pt x="141" y="653" on="0"/>
        <pt x="240" y="740" on="0"/>
        <pt x="319" y="740" on="1"/>
        <pt x="343" y="740" on="0"/>
        <pt x="382" y="732" on="0"/>
        <pt x="400" y="727" on="1"/>
        <pt x="368" y="631" on="1"/>
        <pt x="357" y="634" on="0"/>
        <pt x="337" y="638" on="0"/>
        <pt x="323" y="638" on="1"/>
        <pt x="285" y="638" on="0"/>
        <pt x="242" y="591" on="0"/>
        <pt x="231" y="532" on="1"/>
        <pt x="211" y="427" on="1"/>
        <pt x="551" y="427" on="1"/>
        <pt x="553" y="415" on="1"/>
      </contour>
    </TTGlyph>
    <TTGlyph name="grave" xMin="189" yMin="479" xMax="402" yMax="669">
      <contour>
        <pt x="364" y="479" on="1"/>
        <pt x="189" y="583" on="1"/>
        <pt x="256" y="669" on="1"/>
        <pt x="402" y="528" on="1"/>
      </contour>
    </TTGlyph>
    <TTGlyph name="greater" xMin="21" yMin="47" xMax="371" yMax="530">
      <contour>
        <pt x="73" y="47" on="1"/>
        <pt x="21" y="122" on="1"/>
        <pt x="240" y="285" on="1"/>
        <pt x="89" y="469" on="1"/>
        <pt x="167" y="530" on="1"/>
        <pt x="371" y="276" on="1"/>
      </contour>
    </TTGlyph>
    <TTGlyph name="greater.lin" xMin="34" yMin="129" xMax="384" yMax="612">
      <component glyphName="greater" x="13" y="82" flags="0x204"/>
    </TTGlyph>
    <TTGlyph name="guillemotleft" xMin="40" yMin="9" xMax="456" yMax="336">
      <contour>
        <pt x="314" y="169" on="1"/>
        <pt x="391" y="9" on="1"/>
        <pt x="286" y="9" on="1"/>
        <pt x="213" y="173" on="1"/>
        <pt x="350" y="336" on="1"/>
        <pt x="456" y="336" on="1"/>
      </contour>
      <contour>
        <pt x="141" y="169" on="1"/>
        <pt x="218" y="9" on="1"/>
        <pt x="113" y="9" on="1"/>
        <pt x="40" y="173" on="1"/>
        <pt x="177" y="336" on="1"/>
        <pt x="283" y="336" on="1"/>
      </contour>
    </TTGlyph>
    <TTGlyph name="guillemotleft.cap" xMin="78" yMin="207" xMax="494" yMax="534">
      <component glyphName="guillemotleft" x="38" y="198" flags="0x204"/>
    </TTGlyph>
    <TTGlyph name="guillemotright" xMin="1" yMin="9" xMax="417" yMax="336">
      <contour>
        <pt x="280" y="9" on="1"/>
        <pt x="174" y="9" on="1"/>
        <pt x="316" y="177" on="1"/>
        <pt x="239" y="336" on="1"/>
        <pt x="344" y="336" on="1"/>
        <pt x="417" y="172" on="1"/>
      </contour>
      <contour>
        <pt x="107" y="9" on="1"/>
        <pt x="1" y="9" on="1"/>
        <pt x="143" y="177" on="1"/>
        <pt x="66" y="336" on="1"/>
        <pt x="171" y="336" on="1"/>
        <pt x="244" y="172" on="1"/>
      </contour>
    </TTGlyph>
    <TTGlyph name="guillemotright.cap" xMin="39" yMin="207" xMax="455" yMax="534">
      <component glyphName="guillemotright" x="38" y="198" flags="0x204"/>
    </TTGlyph>
    <TTGlyph name="guilsinglleft" xMin="40" yMin="9" xMax="283" yMax="336">
      <contour>
        <pt x="141" y="169" on="1"/>
        <pt x="218" y="9" on="1"/>
        <pt x="113" y="9" on="1"/>
        <pt x="40" y="173" on="1"/>
        <pt x="177" y="336" on="1"/>
        <pt x="283" y="336" on="1"/>
      </contour>
    </TTGlyph>
    <TTGlyph name="guilsinglleft.cap" xMin="79" yMin="207" xMax="322" yMax="534">
      <component glyphName="guilsinglleft" x="39" y="198" flags="0x204"/>
    </TTGlyph>
    <TTGlyph name="guilsinglright" xMin="1" yMin="9" xMax="244" yMax="336">
      <contour>
        <pt x="107" y="9" on="1"/>
        <pt x="1" y="9" on="1"/>
        <pt x="143" y="177" on="1"/>
        <pt x="66" y="336" on="1"/>
        <pt x="171" y="336" on="1"/>
        <pt x="244" y="172" on="1"/>
      </contour>
    </TTGlyph>
    <TTGlyph name="guilsinglright.cap" xMin="41" yMin="207" xMax="284" yMax="534">
      <component glyphName="guilsinglright" x="40" y="198" flags="0x204"/>
    </TTGlyph>
    <TTGlyph name="h" xMin="15" yMin="0" xMax="464" yMax="733">
      <contour>
        <pt x="464" y="324" on="1"/>
        <pt x="464" y="304" on="0"/>
        <pt x="459" y="279" on="1"/>
        <pt x="405" y="0" on="1"/>
        <pt x="291" y="0" on="1"/>
        <pt x="341" y="256" on="1"/>
        <pt x="345" y="273" on="0"/>
        <pt x="345" y="290" on="1"/>
        <pt x="345" y="340" on="0"/>
        <pt x="295" y="340" on="1"/>
        <pt x="266" y="340" on="0"/>
        <pt x="211" y="308" on="0"/>
        <pt x="183" y="283" on="1"/>
        <pt x="129" y="0" on="1"/>
        <pt x="15" y="0" on="1"/>
        <pt x="157" y="733" on="1"/>
        <pt x="271" y="733" on="1"/>
        <pt x="197" y="358" on="1"/>
        <pt x="233" y="391" on="0"/>
        <pt x="313" y="435" on="0"/>
        <pt x="358" y="435" on="1"/>
        <pt x="410" y="435" on="0"/>
        <pt x="464" y="375" on="0"/>
      </contour>
    </TTGlyph>
    <TTGlyph name="hbar" xMin="15" yMin="0" xMax="464" yMax="733">
      <contour>
        <pt x="464" y="324" on="1"/>
        <pt x="464" y="304" on="0"/>
        <pt x="459" y="279" on="1"/>
        <pt x="405" y="0" on="1"/>
        <pt x="291" y="0" on="1"/>
        <pt x="341" y="256" on="1"/>
        <pt x="345" y="273" on="0"/>
        <pt x="345" y="290" on="1"/>
        <pt x="345" y="340" on="0"/>
        <pt x="295" y="340" on="1"/>
        <pt x="266" y="340" on="0"/>
        <pt x="211" y="308" on="0"/>
        <pt x="183" y="283" on="1"/>
        <pt x="129" y="0" on="1"/>
        <pt x="15" y="0" on="1"/>
        <pt x="121" y="548" on="1"/>
        <pt x="67" y="548" on="1"/>
        <pt x="83" y="633" on="1"/>
        <pt x="137" y="633" on="1"/>
        <pt x="157" y="733" on="1"/>
        <pt x="271" y="733" on="1"/>
        <pt x="251" y="633" on="1"/>
        <pt x="392" y="633" on="1"/>
        <pt x="376" y="548" on="1"/>
        <pt x="234" y="548" on="1"/>
        <pt x="197" y="358" on="1"/>
        <pt x="233" y="391" on="0"/>
        <pt x="313" y="435" on="0"/>
        <pt x="358" y="435" on="1"/>
        <pt x="410" y="435" on="0"/>
        <pt x="464" y="375" on="0"/>
      </contour>
    </TTGlyph>
</ttFont>
